<svg xmlns="http://www.w3.org/2000/svg" width="1440" viewBox="0 0 1440 810" height="810" version="1.0"><defs><clipPath id="a"><path d="M 0 0 L 154 0 L 154 203 L 0 203 Z M 0 0"/></clipPath><clipPath id="b"><path d="M -32.367188 -69.523438 L 188.027344 4.511719 L 103.007812 257.613281 L -117.390625 183.578125 Z M -32.367188 -69.523438"/></clipPath><clipPath id="c"><path d="M -32.367188 -69.523438 L 188.027344 4.511719 L 103.007812 257.613281 L -117.390625 183.578125 Z M -32.367188 -69.523438"/></clipPath><clipPath id="d"><path d="M 0 0 L 611 0 L 611 158 L 0 158 Z M 0 0"/></clipPath><clipPath id="e"><path d="M -69.230469 -67.304688 L 583.542969 -187.507812 L 627.277344 50 L -25.496094 170.199219 Z M -69.230469 -67.304688"/></clipPath><clipPath id="f"><path d="M -69.230469 -67.304688 L 583.542969 -187.507812 L 627.277344 50 L -25.496094 170.199219 Z M -69.230469 -67.304688"/></clipPath><clipPath id="g"><path d="M 1216 542 L 1440 542 L 1440 805 L 1216 805 Z M 1216 542"/></clipPath><clipPath id="h"><path d="M 1175.800781 632.414062 L 1495.648438 499.148438 L 1586.796875 717.917969 L 1266.949219 851.183594 Z M 1175.800781 632.414062"/></clipPath><clipPath id="i"><path d="M 1175.800781 632.414062 L 1495.648438 499.148438 L 1586.796875 717.917969 L 1266.949219 851.183594 Z M 1175.800781 632.414062"/></clipPath><clipPath id="j"><path d="M 1045 703.570312 L 1440 703.570312 L 1440 810 L 1045 810 Z M 1045 703.570312"/></clipPath><clipPath id="k"><path d="M 1288 547 L 1411 547 L 1411 810 L 1288 810 Z M 1288 547"/></clipPath><clipPath id="l"><path d="M 1310.609375 545.589844 L 1475.382812 588.421875 L 1407.078125 851.1875 L 1242.304688 808.355469 Z M 1310.609375 545.589844"/></clipPath><clipPath id="m"><path d="M 1310.609375 545.589844 L 1475.382812 588.421875 L 1407.078125 851.1875 L 1242.304688 808.355469 Z M 1310.609375 545.589844"/></clipPath><clipPath id="n"><path d="M 1317 482 L 1326 482 L 1326 500 L 1317 500 Z M 1317 482"/></clipPath><clipPath id="o"><path d="M 1311.5625 439.75 L 1391.933594 468.914062 L 1352.285156 578.191406 L 1271.910156 549.03125 Z M 1311.5625 439.75"/></clipPath><clipPath id="p"><path d="M 1311.5625 439.75 L 1391.933594 468.914062 L 1352.285156 578.191406 L 1271.910156 549.03125 Z M 1311.5625 439.75"/></clipPath><clipPath id="q"><path d="M 1321 484 L 1336 484 L 1336 505 L 1321 505 Z M 1321 484"/></clipPath><clipPath id="r"><path d="M 1311.5625 439.75 L 1391.933594 468.914062 L 1352.285156 578.191406 L 1271.910156 549.03125 Z M 1311.5625 439.75"/></clipPath><clipPath id="s"><path d="M 1311.5625 439.75 L 1391.933594 468.914062 L 1352.285156 578.191406 L 1271.910156 549.03125 Z M 1311.5625 439.75"/></clipPath><clipPath id="t"><path d="M 1332 493 L 1344 493 L 1344 507 L 1332 507 Z M 1332 493"/></clipPath><clipPath id="u"><path d="M 1311.5625 439.75 L 1391.933594 468.914062 L 1352.285156 578.191406 L 1271.910156 549.03125 Z M 1311.5625 439.75"/></clipPath><clipPath id="v"><path d="M 1311.5625 439.75 L 1391.933594 468.914062 L 1352.285156 578.191406 L 1271.910156 549.03125 Z M 1311.5625 439.75"/></clipPath><clipPath id="w"><path d="M 1340 497 L 1356 497 L 1356 512 L 1340 512 Z M 1340 497"/></clipPath><clipPath id="x"><path d="M 1311.5625 439.75 L 1391.933594 468.914062 L 1352.285156 578.191406 L 1271.910156 549.03125 Z M 1311.5625 439.75"/></clipPath><clipPath id="y"><path d="M 1311.5625 439.75 L 1391.933594 468.914062 L 1352.285156 578.191406 L 1271.910156 549.03125 Z M 1311.5625 439.75"/></clipPath><clipPath id="z"><path d="M 1295 451 L 1380 451 L 1380 549 L 1295 549 Z M 1295 451"/></clipPath><clipPath id="A"><path d="M 1311.5625 439.75 L 1391.933594 468.914062 L 1352.285156 578.191406 L 1271.910156 549.03125 Z M 1311.5625 439.75"/></clipPath><clipPath id="B"><path d="M 1311.5625 439.75 L 1391.933594 468.914062 L 1352.285156 578.191406 L 1271.910156 549.03125 Z M 1311.5625 439.75"/></clipPath><clipPath id="C"><path d="M 1295 531 L 1343 531 L 1343 566 L 1295 566 Z M 1295 531"/></clipPath><clipPath id="D"><path d="M 1311.5625 439.75 L 1391.933594 468.914062 L 1352.285156 578.191406 L 1271.910156 549.03125 Z M 1311.5625 439.75"/></clipPath><clipPath id="E"><path d="M 1311.5625 439.75 L 1391.933594 468.914062 L 1352.285156 578.191406 L 1271.910156 549.03125 Z M 1311.5625 439.75"/></clipPath><clipPath id="F"><path d="M 1295 550 L 1334 550 L 1334 567 L 1295 567 Z M 1295 550"/></clipPath><clipPath id="G"><path d="M 1311.5625 439.75 L 1391.933594 468.914062 L 1352.285156 578.191406 L 1271.910156 549.03125 Z M 1311.5625 439.75"/></clipPath><clipPath id="H"><path d="M 1311.5625 439.75 L 1391.933594 468.914062 L 1352.285156 578.191406 L 1271.910156 549.03125 Z M 1311.5625 439.75"/></clipPath><clipPath id="I"><path d="M 1298 532 L 1342 532 L 1342 552 L 1298 552 Z M 1298 532"/></clipPath><clipPath id="J"><path d="M 1311.5625 439.75 L 1391.933594 468.914062 L 1352.285156 578.191406 L 1271.910156 549.03125 Z M 1311.5625 439.75"/></clipPath><clipPath id="K"><path d="M 1311.5625 439.75 L 1391.933594 468.914062 L 1352.285156 578.191406 L 1271.910156 549.03125 Z M 1311.5625 439.75"/></clipPath><clipPath id="L"><path d="M 1296 538 L 1340 538 L 1340 558 L 1296 558 Z M 1296 538"/></clipPath><clipPath id="M"><path d="M 1311.5625 439.75 L 1391.933594 468.914062 L 1352.285156 578.191406 L 1271.910156 549.03125 Z M 1311.5625 439.75"/></clipPath><clipPath id="N"><path d="M 1311.5625 439.75 L 1391.933594 468.914062 L 1352.285156 578.191406 L 1271.910156 549.03125 Z M 1311.5625 439.75"/></clipPath><clipPath id="O"><path d="M 1294 545 L 1337 545 L 1337 564 L 1294 564 Z M 1294 545"/></clipPath><clipPath id="P"><path d="M 1311.5625 439.75 L 1391.933594 468.914062 L 1352.285156 578.191406 L 1271.910156 549.03125 Z M 1311.5625 439.75"/></clipPath><clipPath id="Q"><path d="M 1311.5625 439.75 L 1391.933594 468.914062 L 1352.285156 578.191406 L 1271.910156 549.03125 Z M 1311.5625 439.75"/></clipPath><clipPath id="R"><path d="M 1309 489 L 1317 489 L 1317 537 L 1309 537 Z M 1309 489"/></clipPath><clipPath id="S"><path d="M 1311.5625 439.75 L 1391.933594 468.914062 L 1352.285156 578.191406 L 1271.910156 549.03125 Z M 1311.5625 439.75"/></clipPath><clipPath id="T"><path d="M 1311.5625 439.75 L 1391.933594 468.914062 L 1352.285156 578.191406 L 1271.910156 549.03125 Z M 1311.5625 439.75"/></clipPath><clipPath id="U"><path d="M 1332 503 L 1357 503 L 1357 545 L 1332 545 Z M 1332 503"/></clipPath><clipPath id="V"><path d="M 1311.5625 439.75 L 1391.933594 468.914062 L 1352.285156 578.191406 L 1271.910156 549.03125 Z M 1311.5625 439.75"/></clipPath><clipPath id="W"><path d="M 1311.5625 439.75 L 1391.933594 468.914062 L 1352.285156 578.191406 L 1271.910156 549.03125 Z M 1311.5625 439.75"/></clipPath><clipPath id="X"><path d="M 1314 489 L 1320 489 L 1320 499 L 1314 499 Z M 1314 489"/></clipPath><clipPath id="Y"><path d="M 1311.5625 439.75 L 1391.933594 468.914062 L 1352.285156 578.191406 L 1271.910156 549.03125 Z M 1311.5625 439.75"/></clipPath><clipPath id="Z"><path d="M 1311.5625 439.75 L 1391.933594 468.914062 L 1352.285156 578.191406 L 1271.910156 549.03125 Z M 1311.5625 439.75"/></clipPath><clipPath id="aa"><path d="M 44 225 L 232 225 L 232 284 L 44 284 Z M 44 225"/></clipPath><clipPath id="ab"><path d="M 37.882812 154.820312 L 249.339844 159.070312 L 246.777344 286.542969 L 35.320312 282.296875 Z M 37.882812 154.820312"/></clipPath><clipPath id="ac"><path d="M 37.882812 154.820312 L 249.339844 159.070312 L 246.777344 286.542969 L 35.320312 282.296875 Z M 37.882812 154.820312"/></clipPath><clipPath id="ad"><path d="M 43.964844 225.691406 L 233.0625 229.492188 L 231.914062 286.554688 L 42.820312 282.753906 Z M 43.964844 225.691406"/></clipPath><clipPath id="ae"><path d="M 43.964844 225.691406 L 233.0625 229.492188 L 231.925781 286.042969 L 42.828125 282.246094 Z M 43.964844 225.691406"/></clipPath><clipPath id="af"><path d="M 44 201 L 228 201 L 228 256 L 44 256 Z M 44 201"/></clipPath><clipPath id="ag"><path d="M 37.882812 154.820312 L 249.339844 159.070312 L 246.777344 286.542969 L 35.320312 282.296875 Z M 37.882812 154.820312"/></clipPath><clipPath id="ah"><path d="M 37.882812 154.820312 L 249.339844 159.070312 L 246.777344 286.542969 L 35.320312 282.296875 Z M 37.882812 154.820312"/></clipPath><clipPath id="ai"><path d="M 37 190 L 233 190 L 233 285 L 37 285 Z M 37 190"/></clipPath><clipPath id="aj"><path d="M 37.882812 154.820312 L 249.339844 159.070312 L 246.777344 286.542969 L 35.320312 282.296875 Z M 37.882812 154.820312"/></clipPath><clipPath id="ak"><path d="M 37.882812 154.820312 L 249.339844 159.070312 L 246.777344 286.542969 L 35.320312 282.296875 Z M 37.882812 154.820312"/></clipPath><clipPath id="al"><path d="M 37.183594 189.503906 L 235.285156 193.484375 L 233.414062 286.585938 L 35.316406 282.605469 Z M 37.183594 189.503906"/></clipPath><clipPath id="am"><path d="M 37.183594 189.503906 L 235.285156 193.484375 L 233.425781 286.074219 L 35.324219 282.09375 Z M 37.183594 189.503906"/></clipPath><clipPath id="an"><path d="M 45 161 L 239 161 L 239 261 L 45 261 Z M 45 161"/></clipPath><clipPath id="ao"><path d="M 37.882812 154.820312 L 249.339844 159.070312 L 246.777344 286.542969 L 35.320312 282.296875 Z M 37.882812 154.820312"/></clipPath><clipPath id="ap"><path d="M 37.882812 154.820312 L 249.339844 159.070312 L 246.777344 286.542969 L 35.320312 282.296875 Z M 37.882812 154.820312"/></clipPath><clipPath id="aq"><path d="M 60 173 L 248 173 L 248 228 L 60 228 Z M 60 173"/></clipPath><clipPath id="ar"><path d="M 37.882812 154.820312 L 249.339844 159.070312 L 246.777344 286.542969 L 35.320312 282.296875 Z M 37.882812 154.820312"/></clipPath><clipPath id="as"><path d="M 37.882812 154.820312 L 249.339844 159.070312 L 246.777344 286.542969 L 35.320312 282.296875 Z M 37.882812 154.820312"/></clipPath><clipPath id="at"><path d="M 59 157 L 249 157 L 249 229 L 59 229 Z M 59 157"/></clipPath><clipPath id="au"><path d="M 37.882812 154.820312 L 249.339844 159.070312 L 246.777344 286.542969 L 35.320312 282.296875 Z M 37.882812 154.820312"/></clipPath><clipPath id="av"><path d="M 37.882812 154.820312 L 249.339844 159.070312 L 246.777344 286.542969 L 35.320312 282.296875 Z M 37.882812 154.820312"/></clipPath><clipPath id="aw"><path d="M 58.890625 155.386719 L 249.488281 159.214844 L 248.039062 231.292969 L 57.441406 227.464844 Z M 58.890625 155.386719"/></clipPath><clipPath id="ax"><path d="M 58.890625 155.386719 L 249.371094 159.214844 L 247.921875 231.292969 L 57.441406 227.464844 Z M 58.890625 155.386719"/></clipPath><clipPath id="ay"><path d="M 48 185 L 235 185 L 235 273 L 48 273 Z M 48 185"/></clipPath><clipPath id="az"><path d="M 37.882812 154.820312 L 249.339844 159.070312 L 246.777344 286.542969 L 35.320312 282.296875 Z M 37.882812 154.820312"/></clipPath><clipPath id="aA"><path d="M 37.882812 154.820312 L 249.339844 159.070312 L 246.777344 286.542969 L 35.320312 282.296875 Z M 37.882812 154.820312"/></clipPath></defs><path fill="#FFF" d="M-144 -81H1584V891H-144z"/><path fill="#FFF" d="M-144 -81H1584V891H-144z"/><path fill="#F4EFEC" d="M-144 -81H1584V891H-144z"/><g clip-path="url(#a)"><g clip-path="url(#b)"><g clip-path="url(#c)"><path fill="#EAE1DA" d="M 152.679688 56.34375 C 152.304688 53.050781 151.777344 49.757812 151.066406 46.46875 C 146.867188 27.027344 136.996094 9.230469 123.804688 -4.621094 C 115.453125 -13.390625 105.773438 -20.582031 95.355469 -25.597656 C 88.558594 -28.871094 81.445312 -31.222656 74.1875 -32.488281 C 65.53125 -33.992188 57.1875 -33.851562 49 -32.664062 C 46.65625 -32.324219 44.328125 -31.902344 42.007812 -31.40625 C 30.253906 -28.878906 18.734375 -24.484375 6.96875 -20 C -1.347656 -16.832031 -9.921875 -13.558594 -18.222656 -9.566406 C -19.832031 -8.792969 -21.429688 -7.996094 -23.015625 -7.164062 C -32.5 -2.179688 -41.484375 3.933594 -49.132812 12.15625 C -51.859375 15.089844 -54.429688 18.308594 -56.839844 21.765625 C -57.324219 22.46875 -57.804688 23.179688 -58.28125 23.902344 C -68.960938 40.140625 -76.097656 61.28125 -78.398438 83.375 C -79.121094 90.269531 -79.367188 97.257812 -79.105469 104.21875 C -78.015625 133.070312 -68.15625 161.464844 -46.71875 180.859375 C -0.117188 223.007812 67.65625 192.316406 71.109375 190.683594 C 110.28125 172.1875 145.722656 129.792969 152.269531 83.289062 C 153.519531 74.410156 153.710938 65.382812 152.679688 56.34375"/></g></g></g><g clip-path="url(#d)"><g clip-path="url(#e)"><g clip-path="url(#f)"><path fill="#D0B1A1" d="M 599.132812 -39.210938 C 604.847656 -37.066406 606.886719 -31.765625 608.519531 -26.742188 C 613.421875 -11.679688 609.6875 4.625 598.640625 15.882812 C 584.234375 32.019531 565.835938 36.117188 545.652344 36.285156 C 525.75 36.046875 505.746094 33.34375 486.050781 28.453125 C 466.011719 23.628906 445.972656 18.800781 425.84375 15.410156 C 417.105469 14.179688 408.277344 14.386719 399.699219 15.964844 C 367.585938 22.589844 335.59375 29.898438 303.324219 37.617188 C 274.015625 44.078125 245.339844 53.972656 218.320312 67.109375 C 177.097656 87.828125 136.46875 109.859375 95.308594 130.921875 C 81.039062 138.164062 67.019531 146.777344 52.089844 152.363281 C 33.859375 159.269531 13.609375 159.097656 -4.40625 151.769531 C -20.863281 145.21875 -30.441406 131.722656 -29.140625 113.738281 C -27.652344 96.789062 -25.070312 79.988281 -21.742188 63.40625 C -17.671875 43.140625 -11.695312 23.585938 -3.816406 4.75 C 1.148438 -6.8125 4.957031 -18.867188 8.828125 -30.582031 C 13.070312 -44.136719 21.589844 -55.640625 32.863281 -63.75 C 53.851562 -80.746094 78.71875 -92.066406 105.003906 -97.617188 C 154.425781 -108.488281 204.738281 -110.65625 255 -109.265625 C 307.101562 -107.503906 359.457031 -104.371094 411.042969 -95.773438 C 467 -86.558594 522.152344 -74.003906 575.761719 -54.421875 C 582.289062 -51.722656 588.878906 -48.675781 594.910156 -44.820312 C 596.875 -43.761719 597.726562 -41.078125 599.132812 -39.210938 C 598.445312 -39.082031 597.417969 -38.894531 596.949219 -39.515625 C 591.847656 -46.03125 584.230469 -48.886719 576.609375 -51.742188 C 521.972656 -71.132812 465.132812 -85.152344 407.867188 -93.769531 C 343.296875 -103.523438 277.558594 -108.097656 212.078125 -107.394531 C 172.460938 -106.84375 132.570312 -101.980469 93.632812 -91.972656 C 70.28125 -85.898438 48.625 -74.460938 29.851562 -58.9375 C 21.195312 -52.019531 15.101562 -42.738281 11.664062 -32.523438 C 7.636719 -19.714844 3.269531 -6.847656 -1.910156 5.460938 C -14.070312 35.734375 -22.011719 67.714844 -26.335938 100.09375 C -27.6875 108.148438 -27.605469 116.296875 -25.808594 124.125 C -22.6875 139.164062 -12 147.132812 2.238281 151.253906 C 22.121094 157.171875 43.425781 155.378906 61.902344 145.945312 C 102.035156 125.070312 142.101562 103.851562 182.234375 82.980469 C 203.546875 71.601562 224.792969 59.882812 247.550781 52.5 C 269.621094 45.242188 291.753906 38.328125 314.074219 32.441406 C 342.570312 25.421875 371.601562 19.367188 400.628906 13.3125 C 409.144531 11.386719 417.628906 11.246094 426.429688 12.820312 C 446.621094 16.550781 466.941406 20.972656 486.636719 25.863281 C 505.988281 30.816406 525.992188 33.519531 545.898438 33.757812 C 565.738281 33.652344 583.449219 29.683594 597.574219 13.949219 C 610.453125 -0.839844 612.375 -19.292969 601.261719 -35.34375 C 600.324219 -36.589844 599.730469 -37.898438 599.132812 -39.210938 Z M 599.132812 -39.210938"/></g></g></g><g clip-path="url(#g)"><g clip-path="url(#h)"><g clip-path="url(#i)"><path fill="#EAE1DA" d="M 1484.09375 618.476562 C 1485.082031 620.402344 1486.226562 622.472656 1487.328125 624.445312 C 1489.667969 627.632812 1492.394531 630.445312 1495.507812 632.882812 C 1497.925781 634.726562 1500.515625 636.277344 1503.277344 637.542969 C 1506.671875 638.980469 1506.589844 639.503906 1514.945312 642.777344 C 1536.816406 651.28125 1537.933594 651.28125 1548.765625 658.078125 C 1549.96875 658.890625 1551.113281 659.777344 1552.203125 660.734375 C 1561.734375 668.449219 1571.394531 680.777344 1567.886719 692.335938 C 1560.988281 714.953125 1517.875 713.875 1498.070312 714.414062 C 1488.847656 714.660156 1474.9375 714.121094 1462.464844 719.667969 C 1449.628906 725.34375 1440.589844 735.488281 1432.375 746.882812 C 1427.582031 753.285156 1423.199219 759.957031 1419.214844 766.898438 C 1413.972656 774.339844 1408.085938 783.21875 1398.109375 790.832031 C 1383.230469 802.125 1363.523438 806.25 1353.710938 804.074219 C 1349.566406 803.421875 1345.558594 802.289062 1341.683594 800.671875 C 1334.675781 797.828125 1328.363281 793.867188 1322.746094 788.796875 C 1321.796875 788.023438 1319.332031 786.199219 1318.902344 785.722656 C 1317.664062 784.566406 1316.300781 783.574219 1314.820312 782.753906 C 1313.074219 781.75 1302.402344 774.328125 1293.390625 774.296875 C 1288.0625 774.429688 1282.765625 774.929688 1277.507812 775.796875 C 1275.109375 776.027344 1272.699219 775.953125 1270.308594 776.085938 C 1260.800781 776.496094 1233.441406 763.480469 1226.980469 751.167969 C 1222.039062 741.707031 1218.015625 733.617188 1217.410156 722.933594 C 1216.160156 700.90625 1216.683594 700.875 1217.273438 693.058594 C 1219.542969 662.8125 1239.390625 642.90625 1265.917969 639.425781 C 1272.042969 638.625 1284.535156 637.207031 1292.023438 636.65625 C 1296.210938 636.390625 1300.351562 635.789062 1304.441406 634.847656 C 1308.53125 633.910156 1312.519531 632.644531 1316.402344 631.058594 C 1320.285156 629.46875 1324.015625 627.578125 1327.59375 625.378906 C 1331.167969 623.183594 1334.542969 620.714844 1337.71875 617.96875 C 1343.5 612.871094 1342.488281 614.25 1352.21875 602.90625 C 1359.101562 594.804688 1369.746094 571.445312 1386.71875 556.167969 C 1410.078125 535.175781 1448.589844 537.402344 1469.148438 573.488281 C 1475.46875 584.570312 1477.65625 605.714844 1484.09375 618.476562 Z M 1484.09375 618.476562"/></g></g></g><g clip-path="url(#j)"><path fill="#D0B1A1" d="M 1232.664062 731.964844 C 1246.859375 731.410156 1260.5 736.140625 1271.636719 745.050781 C 1284.160156 755.074219 1297.523438 763.980469 1311.71875 771.777344 C 1315.617188 773.726562 1319.515625 775.394531 1323.410156 777.066406 C 1332.875 781.242188 1343.730469 780.40625 1352.640625 775.117188 C 1367.394531 766.488281 1382.148438 757.300781 1396.34375 747.554688 C 1408.589844 739.203125 1420.28125 729.738281 1433.921875 723.613281 C 1451.738281 715.261719 1470.390625 708.859375 1489.597656 704.683594 C 1495.164062 703.570312 1501.007812 703.570312 1506.855469 704.402344 C 1510.472656 705.238281 1513.535156 707.1875 1516.042969 709.972656 C 1520.496094 714.148438 1521.050781 721.109375 1517.15625 725.839844 C 1515.484375 728.625 1514.371094 731.964844 1514.371094 735.304688 C 1513.535156 749.226562 1512.699219 763.144531 1511.03125 776.789062 C 1509.082031 790.707031 1505.183594 804.347656 1499.617188 817.15625 C 1491.265625 836.644531 1480.96875 855.296875 1468.996094 873.113281 C 1454.800781 894.269531 1440.046875 914.871094 1420.5625 931.578125 C 1410.539062 940.207031 1399.128906 948.558594 1384.929688 951.34375 C 1376.300781 953.011719 1368.226562 951.621094 1359.878906 950.230469 C 1330.371094 945.21875 1301.976562 936.03125 1273.582031 926.84375 C 1261.335938 922.945312 1248.808594 920.71875 1236.003906 920.164062 C 1225.425781 919.605469 1215.125 923.226562 1207.332031 930.183594 C 1200.09375 936.585938 1193.136719 943.269531 1186.175781 949.949219 C 1173.09375 962.757812 1156.667969 971.664062 1138.855469 975.285156 C 1126.050781 978.070312 1112.964844 977.234375 1100.71875 972.5 C 1081.230469 965.261719 1064.808594 951.621094 1053.953125 933.804688 C 1040.867188 912.644531 1043.652344 888.980469 1061.1875 871.441406 C 1071.210938 861.976562 1082.34375 853.625 1094.316406 846.664062 C 1099.046875 843.882812 1104.894531 841.933594 1108.511719 838.035156 C 1112.128906 834.136719 1113.523438 828.570312 1115.75 823.558594 C 1124.101562 806.855469 1133.285156 790.707031 1146.089844 777.066406 C 1164.183594 757.578125 1187.011719 743.101562 1212.34375 734.75 C 1219.023438 733.078125 1225.984375 731.6875 1232.941406 730.574219 Z M 1106.839844 841.933594 C 1103.5 843.882812 1099.882812 845.550781 1096.820312 847.777344 C 1086.242188 855.015625 1075.386719 861.976562 1065.644531 870.050781 C 1045.042969 887.589844 1041.980469 912.644531 1056.734375 935.195312 C 1067.3125 951.621094 1082.902344 964.148438 1101.273438 970.832031 C 1111.574219 974.726562 1122.707031 975.84375 1133.84375 974.171875 C 1153.605469 970.832031 1171.699219 961.644531 1185.621094 947.167969 C 1192.578125 940.484375 1199.539062 933.804688 1206.773438 927.679688 C 1214.847656 920.996094 1225.148438 917.65625 1235.445312 918.214844 C 1248.53125 918.492188 1261.335938 920.71875 1273.863281 924.894531 C 1301.976562 934.359375 1330.925781 942.15625 1359.878906 948.558594 C 1377.691406 952.734375 1396.621094 948.28125 1411.097656 936.867188 C 1422.789062 927.679688 1433.367188 917.378906 1442.832031 905.964844 C 1459.53125 885.363281 1474.285156 863.089844 1487.089844 839.707031 C 1505.183594 806.574219 1515.207031 771.5 1511.308594 733.359375 C 1511.308594 732.800781 1511.308594 731.964844 1511.585938 731.410156 C 1513.257812 728.902344 1515.207031 726.121094 1516.597656 723.335938 C 1518.546875 720.273438 1518.546875 716.652344 1516.597656 713.589844 C 1513.8125 708.300781 1508.246094 705.238281 1502.679688 705.796875 C 1495.71875 706.351562 1489.039062 707.464844 1482.359375 709.136719 C 1452.015625 716.375 1423.625 730.015625 1399.125 748.949219 C 1386.320312 758.414062 1372.960938 767.042969 1359.042969 774.839844 C 1350.132812 780.40625 1340.390625 783.746094 1329.8125 780.964844 C 1323.410156 779.292969 1317.285156 776.789062 1311.441406 774.003906 C 1295.851562 765.929688 1282.210938 755.351562 1268.574219 745.328125 C 1253.820312 734.191406 1234.890625 730.851562 1217.074219 736.140625 C 1190.351562 743.660156 1166.132812 758.414062 1147.484375 778.738281 C 1131.894531 795.160156 1121.59375 815.207031 1112.410156 835.53125 C 1112.410156 835.53125 1112.410156 835.808594 1112.6875 836.363281 L 1116.304688 834.695312 C 1126.882812 828.847656 1138.296875 824.394531 1149.988281 821.332031 C 1161.957031 818.269531 1173.929688 816.597656 1186.175781 819.105469 C 1199.816406 821.609375 1208.722656 834.414062 1206.21875 848.058594 C 1204.828125 855.296875 1200.371094 861.699219 1193.96875 865.316406 C 1178.9375 874.503906 1163.070312 882.300781 1146.371094 888.703125 C 1136.347656 893.15625 1125.769531 896.21875 1115.191406 897.613281 C 1106.839844 898.449219 1103.5 896.21875 1101.273438 888.425781 C 1099.605469 881.742188 1099.605469 874.785156 1100.996094 868.378906 C 1102.667969 859.472656 1104.894531 850.839844 1106.839844 841.933594 Z M 1102.109375 880.628906 C 1102.667969 882.855469 1103.5 887.3125 1104.894531 891.488281 C 1105.726562 894.550781 1108.511719 896.21875 1111.574219 895.664062 C 1116.304688 895.105469 1121.316406 894.269531 1126.050781 893.15625 C 1146.089844 887.867188 1164.464844 878.679688 1182.835938 869.214844 C 1187.289062 866.988281 1191.464844 864.484375 1195.363281 861.421875 C 1203.15625 856.410156 1206.496094 846.945312 1203.992188 838.035156 C 1202.320312 829.125 1195.082031 822.167969 1185.898438 821.054688 C 1178.9375 819.9375 1171.699219 819.660156 1164.742188 820.496094 C 1146.089844 822.445312 1128.832031 830.238281 1112.410156 839.148438 C 1111.574219 839.707031 1110.738281 840.539062 1110.460938 841.652344 C 1105.171875 853.902344 1102.667969 867.265625 1102.109375 880.628906 Z M 1102.109375 880.628906"/></g><g clip-path="url(#k)"><g clip-path="url(#l)"><g clip-path="url(#m)"><path fill="#FFF" d="M 1402.261719 849.949219 L 1401.363281 849.203125 C 1408.511719 840.53125 1407.535156 827.058594 1398.457031 809.171875 C 1395.105469 802.558594 1391.679688 795.523438 1389.894531 788.574219 C 1389.5625 787.292969 1389.296875 786.042969 1389.09375 784.824219 C 1386.117188 785.960938 1383.078125 786.875 1379.96875 787.558594 C 1371.3125 789.457031 1362.886719 789.421875 1354.929688 787.445312 C 1350.785156 786.390625 1346.855469 784.8125 1343.136719 782.707031 C 1339.417969 780.601562 1336.039062 778.042969 1333.003906 775.03125 C 1326.695312 768.757812 1322.613281 761.167969 1321.195312 753.089844 C 1320.710938 750.140625 1320.46875 747.171875 1320.464844 744.183594 C 1318.234375 744.269531 1316.011719 744.179688 1313.796875 743.917969 C 1304.8125 742.84375 1293.730469 738.085938 1289.582031 727.957031 C 1287.503906 722.894531 1288.136719 716.394531 1291.1875 711.40625 C 1293.746094 707.210938 1297.527344 704.703125 1301.835938 704.347656 C 1306.453125 703.960938 1311.007812 705.996094 1314.660156 710.078125 C 1317.898438 713.699219 1320.234375 718.675781 1321.066406 723.734375 C 1321.855469 728.523438 1321.765625 733.453125 1321.679688 738.21875 C 1321.648438 739.785156 1321.621094 741.367188 1321.625 742.957031 C 1329.636719 742.433594 1337.710938 739.675781 1344.972656 734.90625 C 1354.40625 728.707031 1361.632812 719.703125 1365.320312 709.5625 C 1372.605469 689.511719 1367.058594 664.851562 1351.519531 648.199219 C 1346.320312 642.628906 1340.082031 637.863281 1334.054688 633.253906 C 1325.460938 626.6875 1316.574219 619.898438 1310.589844 610.6875 C 1304.515625 601.34375 1302.082031 589.632812 1303.738281 577.71875 C 1305.394531 565.800781 1310.929688 555.195312 1319.320312 547.851562 L 1320.085938 548.730469 C 1311.90625 555.890625 1306.511719 566.242188 1304.894531 577.878906 C 1303.277344 589.515625 1305.648438 600.941406 1311.566406 610.050781 C 1317.441406 619.09375 1326.246094 625.820312 1334.761719 632.324219 C 1340.828125 636.964844 1347.105469 641.757812 1352.371094 647.398438 C 1368.203125 664.363281 1373.84375 689.507812 1366.410156 709.960938 C 1362.640625 720.339844 1355.25 729.542969 1345.605469 735.882812 C 1338.15625 740.777344 1329.863281 743.601562 1321.628906 744.125 C 1321.628906 747.066406 1321.867188 749.988281 1322.339844 752.886719 C 1323.714844 760.726562 1327.6875 768.097656 1333.824219 774.203125 C 1336.785156 777.140625 1340.078125 779.636719 1343.707031 781.691406 C 1347.332031 783.746094 1351.167969 785.285156 1355.207031 786.3125 C 1362.992188 788.242188 1371.238281 788.277344 1379.71875 786.417969 C 1382.855469 785.726562 1385.917969 784.800781 1388.910156 783.644531 C 1388.09375 777.609375 1388.886719 772.367188 1391.296875 767.71875 C 1393.414062 763.648438 1396.660156 760.851562 1400.203125 760.050781 C 1404.019531 759.191406 1409.054688 761.167969 1410.179688 765.390625 C 1410.792969 767.703125 1410.703125 772.355469 1403.160156 777.484375 C 1399.085938 780.253906 1394.761719 782.558594 1390.195312 784.394531 C 1391.554688 792.988281 1395.925781 801.601562 1399.496094 808.640625 C 1408.800781 826.980469 1409.734375 840.878906 1402.261719 849.949219 Z M 1404.121094 761.242188 C 1402.90625 760.929688 1401.683594 760.910156 1400.460938 761.191406 C 1397.25 761.917969 1394.289062 764.492188 1392.332031 768.257812 C 1389.882812 772.976562 1389.382812 778.070312 1390.027344 783.203125 C 1394.421875 781.414062 1398.582031 779.1875 1402.503906 776.519531 C 1409.449219 771.792969 1409.589844 767.707031 1409.054688 765.691406 C 1408.527344 763.714844 1406.605469 761.890625 1404.121094 761.242188 Z M 1306.089844 705.863281 C 1304.722656 705.507812 1303.332031 705.390625 1301.925781 705.507812 C 1298.003906 705.835938 1294.539062 708.144531 1292.175781 712.011719 C 1289.316406 716.695312 1288.71875 722.78125 1290.65625 727.511719 C 1294.617188 737.171875 1305.277344 741.722656 1313.933594 742.753906 C 1316.101562 743.011719 1318.273438 743.097656 1320.453125 743.015625 C 1320.453125 741.398438 1320.480469 739.789062 1320.511719 738.199219 C 1320.597656 733.484375 1320.683594 728.609375 1319.914062 723.921875 C 1319.113281 719.078125 1316.882812 714.316406 1313.789062 710.859375 C 1312.042969 708.910156 1309.453125 706.738281 1306.089844 705.863281 Z M 1306.089844 705.863281"/></g></g></g><g clip-path="url(#n)"><g clip-path="url(#o)"><g clip-path="url(#p)"><path fill="#E8DED6" d="M 1319.746094 488.429688 C 1320.089844 488.199219 1320.421875 488.128906 1320.742188 488.226562 L 1320.925781 488.292969 C 1321.171875 488.382812 1321.398438 488.496094 1321.609375 488.628906 C 1321.433594 489.21875 1321.214844 489.871094 1320.957031 490.585938 L 1320.167969 492.757812 C 1319.675781 494.121094 1319.28125 495.371094 1318.988281 496.503906 C 1318.675781 497.636719 1318.710938 498.308594 1319.085938 498.527344 C 1319.3125 498.667969 1319.714844 498.4375 1320.289062 497.835938 C 1320.859375 497.253906 1321.433594 496.574219 1322.011719 495.796875 C 1322.503906 495.148438 1322.957031 494.53125 1323.367188 493.945312 C 1323.773438 493.367188 1324.058594 492.945312 1324.210938 492.683594 C 1324.378906 492.765625 1324.652344 492.886719 1325.03125 493.042969 C 1324.84375 493.347656 1324.472656 493.933594 1323.921875 494.800781 C 1323.375 495.648438 1322.746094 496.476562 1322.035156 497.285156 C 1321.660156 497.722656 1321.273438 498.125 1320.882812 498.496094 C 1320.496094 498.851562 1320.117188 499.128906 1319.746094 499.328125 C 1319.484375 499.453125 1319.226562 499.535156 1318.972656 499.582031 C 1318.765625 499.605469 1318.574219 499.585938 1318.398438 499.519531 C 1318.347656 499.503906 1318.304688 499.476562 1318.277344 499.449219 C 1318.011719 499.3125 1317.816406 499.050781 1317.695312 498.671875 C 1317.558594 498.289062 1317.492188 497.808594 1317.5 497.242188 C 1317.515625 496.160156 1317.71875 494.839844 1318.105469 493.28125 C 1318.386719 492.179688 1318.734375 491.0625 1319.144531 489.925781 C 1319.328125 489.421875 1319.527344 488.921875 1319.746094 488.429688 Z M 1322.472656 484.855469 C 1322.359375 484.894531 1322.25 484.894531 1322.144531 484.855469 C 1322.039062 484.816406 1321.933594 484.75 1321.832031 484.652344 C 1321.625 484.457031 1321.488281 484.261719 1321.421875 484.058594 C 1321.355469 483.855469 1321.363281 483.644531 1321.445312 483.417969 L 1321.457031 483.390625 C 1321.539062 483.164062 1321.683594 483.007812 1321.894531 482.925781 C 1322.09375 482.859375 1322.339844 482.871094 1322.625 482.957031 L 1322.652344 482.964844 C 1322.898438 483.054688 1323.054688 483.21875 1323.125 483.464844 C 1323.214844 483.710938 1323.175781 483.984375 1323.007812 484.28125 C 1322.851562 484.597656 1322.671875 484.789062 1322.472656 484.855469"/></g></g></g><g clip-path="url(#q)"><g clip-path="url(#r)"><g clip-path="url(#s)"><path fill="#E8DED6" d="M 1329.527344 493.515625 C 1329.429688 493.523438 1329.328125 493.503906 1329.222656 493.464844 C 1329.109375 493.445312 1329.023438 493.414062 1328.957031 493.371094 C 1329.03125 493.117188 1328.957031 492.828125 1328.742188 492.492188 C 1328.53125 492.140625 1328.199219 491.890625 1327.734375 491.742188 C 1327.160156 491.574219 1326.570312 491.753906 1325.960938 492.28125 C 1325.371094 492.820312 1324.839844 493.488281 1324.375 494.285156 C 1323.796875 495.277344 1323.375 496.273438 1323.113281 497.261719 C 1322.878906 498.242188 1322.941406 498.828125 1323.308594 499.023438 C 1323.675781 499.214844 1324.242188 499.125 1325.015625 498.753906 C 1325.765625 498.375 1326.5 497.910156 1327.214844 497.359375 C 1327.707031 496.984375 1328.136719 496.617188 1328.507812 496.257812 C 1328.882812 495.878906 1329.140625 495.570312 1329.289062 495.324219 C 1330.113281 492.941406 1331.351562 489.371094 1332.996094 484.617188 C 1333.253906 484.453125 1333.496094 484.410156 1333.726562 484.492188 C 1333.832031 484.53125 1333.9375 484.59375 1334.046875 484.671875 C 1334.363281 484.945312 1334.539062 485.203125 1334.566406 485.453125 C 1334.402344 485.6875 1334.027344 486.589844 1333.4375 488.152344 C 1332.863281 489.738281 1332.261719 491.507812 1331.632812 493.453125 C 1331.355469 494.296875 1331.09375 495.152344 1330.855469 496.015625 C 1330.59375 496.847656 1330.359375 497.652344 1330.160156 498.425781 C 1329.75 499.878906 1329.449219 501.113281 1329.261719 502.128906 C 1329.070312 503.144531 1329.078125 503.722656 1329.289062 503.859375 C 1329.484375 503.96875 1329.8125 503.769531 1330.273438 503.269531 C 1330.753906 502.769531 1331.273438 502.160156 1331.832031 501.433594 C 1332.5 500.527344 1333.140625 499.605469 1333.757812 498.667969 C 1334.359375 497.71875 1334.757812 497.09375 1334.945312 496.785156 C 1335.132812 496.875 1335.417969 496.988281 1335.804688 497.128906 C 1335.644531 497.40625 1335.308594 497.945312 1334.800781 498.746094 C 1334.308594 499.558594 1333.734375 500.40625 1333.074219 501.292969 C 1332.285156 502.367188 1331.46875 503.316406 1330.617188 504.132812 C 1329.863281 504.84375 1329.21875 505.105469 1328.695312 504.914062 C 1328.640625 504.898438 1328.585938 504.867188 1328.519531 504.824219 C 1328.023438 504.542969 1327.769531 503.925781 1327.75 502.976562 C 1327.734375 502.019531 1327.816406 501.023438 1327.992188 499.980469 C 1328.09375 499.425781 1328.210938 498.882812 1328.339844 498.359375 C 1328.464844 497.851562 1328.582031 497.390625 1328.691406 496.976562 C 1328.515625 497.1875 1328.128906 497.570312 1327.53125 498.125 C 1326.886719 498.699219 1326.191406 499.199219 1325.441406 499.621094 C 1324.921875 499.90625 1324.414062 500.105469 1323.917969 500.21875 C 1323.417969 500.335938 1322.972656 500.28125 1322.578125 500.058594 C 1321.855469 499.699219 1321.507812 499.042969 1321.539062 498.082031 C 1321.558594 497.378906 1321.699219 496.652344 1321.972656 495.902344 C 1322.0625 495.65625 1322.164062 495.398438 1322.285156 495.125 C 1322.675781 494.320312 1323.167969 493.5625 1323.765625 492.847656 C 1324.378906 492.140625 1325.019531 491.625 1325.695312 491.296875 C 1326.078125 491.121094 1326.457031 491 1326.835938 490.941406 C 1327.207031 490.898438 1327.578125 490.945312 1327.945312 491.078125 C 1328.636719 491.308594 1329.097656 491.703125 1329.332031 492.261719 C 1329.5625 492.820312 1329.628906 493.238281 1329.527344 493.515625"/></g></g></g><g clip-path="url(#t)"><g clip-path="url(#u)"><g clip-path="url(#v)"><path fill="#E8DED6" d="M 1337.238281 498.746094 C 1337.882812 498.722656 1338.398438 498.582031 1338.789062 498.328125 C 1339.53125 497.867188 1339.878906 497.214844 1339.828125 496.367188 C 1339.785156 495.5 1339.417969 494.953125 1338.726562 494.722656 C 1338.164062 494.535156 1337.632812 494.683594 1337.144531 495.15625 C 1336.636719 495.625 1336.1875 496.261719 1335.796875 497.066406 C 1335.617188 497.457031 1335.4375 497.882812 1335.269531 498.355469 C 1336.015625 498.644531 1336.675781 498.773438 1337.238281 498.746094 Z M 1334.832031 499.972656 C 1334.558594 501.160156 1334.453125 502.273438 1334.507812 503.324219 C 1334.546875 504.363281 1334.816406 505.015625 1335.316406 505.273438 C 1335.71875 505.480469 1336.128906 505.550781 1336.550781 505.484375 C 1336.988281 505.425781 1337.4375 505.273438 1337.902344 505.027344 C 1338.269531 504.84375 1338.632812 504.601562 1339 504.300781 C 1339.359375 504.015625 1339.714844 503.703125 1340.058594 503.351562 C 1340.722656 502.722656 1341.316406 502.070312 1341.839844 501.390625 C 1342.390625 500.703125 1342.824219 500.128906 1343.148438 499.671875 C 1343.300781 499.6875 1343.445312 499.722656 1343.585938 499.773438 C 1343.726562 499.824219 1343.863281 499.894531 1343.988281 499.976562 C 1343.65625 500.507812 1343.191406 501.171875 1342.585938 501.960938 C 1341.992188 502.730469 1341.324219 503.464844 1340.59375 504.167969 C 1340.195312 504.554688 1339.78125 504.910156 1339.347656 505.226562 C 1338.917969 505.542969 1338.484375 505.804688 1338.054688 506 C 1337.527344 506.261719 1336.984375 506.414062 1336.4375 506.453125 C 1336.050781 506.46875 1335.667969 506.410156 1335.28125 506.269531 C 1335.140625 506.21875 1335.003906 506.160156 1334.871094 506.089844 C 1334.324219 505.792969 1333.882812 505.425781 1333.546875 504.988281 C 1333.203125 504.566406 1332.949219 504.089844 1332.789062 503.554688 C 1332.539062 502.714844 1332.488281 501.808594 1332.640625 500.839844 C 1332.742188 500.183594 1332.910156 499.535156 1333.144531 498.886719 C 1333.246094 498.609375 1333.351562 498.332031 1333.472656 498.058594 C 1334.101562 496.707031 1334.921875 495.59375 1335.933594 494.714844 C 1336.957031 493.863281 1337.9375 493.597656 1338.875 493.917969 L 1338.898438 493.925781 C 1339.335938 494.085938 1339.695312 494.304688 1339.96875 494.582031 C 1340.261719 494.863281 1340.476562 495.179688 1340.609375 495.523438 C 1340.851562 496.164062 1340.835938 496.839844 1340.558594 497.550781 C 1340.269531 498.234375 1339.753906 498.757812 1339.007812 499.117188 C 1338.511719 499.335938 1337.917969 499.445312 1337.222656 499.449219 C 1336.570312 499.449219 1335.847656 499.304688 1335.058594 499.019531 C 1334.96875 499.324219 1334.890625 499.640625 1334.832031 499.972656"/></g></g></g><g clip-path="url(#w)"><g clip-path="url(#x)"><g clip-path="url(#y)"><path fill="#E8DED6" d="M 1349.441406 499.707031 C 1349.339844 499.710938 1349.238281 499.691406 1349.132812 499.652344 C 1349.023438 499.632812 1348.933594 499.601562 1348.871094 499.558594 C 1348.941406 499.308594 1348.871094 499.015625 1348.652344 498.679688 C 1348.421875 498.339844 1348.074219 498.09375 1347.613281 497.945312 C 1347.054688 497.785156 1346.457031 497.960938 1345.8125 498.476562 C 1345.152344 498.988281 1344.550781 499.628906 1344.011719 500.402344 C 1343.351562 501.347656 1342.859375 502.296875 1342.539062 503.242188 C 1342.207031 504.210938 1342.226562 504.78125 1342.601562 504.957031 C 1342.964844 505.148438 1343.546875 505.101562 1344.34375 504.820312 C 1345.136719 504.550781 1345.90625 504.199219 1346.660156 503.761719 C 1347.164062 503.46875 1347.617188 503.171875 1348.027344 502.867188 C 1348.445312 502.585938 1348.75 502.328125 1348.929688 502.097656 C 1349.109375 501.707031 1349.367188 501.113281 1349.699219 500.304688 C 1350.058594 500.078125 1350.390625 500.011719 1350.695312 500.101562 C 1351 500.191406 1351.289062 500.328125 1351.5625 500.503906 C 1351.378906 501.109375 1351.164062 501.761719 1350.910156 502.460938 C 1350.652344 503.175781 1350.398438 503.902344 1350.148438 504.644531 C 1349.695312 506 1349.335938 507.242188 1349.0625 508.367188 C 1348.792969 509.492188 1348.847656 510.164062 1349.226562 510.382812 C 1349.425781 510.492188 1349.746094 510.320312 1350.1875 509.867188 C 1350.625 509.417969 1351.097656 508.855469 1351.597656 508.191406 C 1352.199219 507.359375 1352.785156 506.507812 1353.359375 505.628906 C 1353.917969 504.746094 1354.292969 504.152344 1354.484375 503.84375 C 1354.652344 503.925781 1354.921875 504.054688 1355.296875 504.230469 C 1355.125 504.480469 1354.800781 504.988281 1354.328125 505.746094 C 1353.847656 506.519531 1353.308594 507.328125 1352.703125 508.175781 C 1351.933594 509.203125 1351.132812 510.09375 1350.304688 510.859375 C 1349.546875 511.574219 1348.902344 511.824219 1348.367188 511.609375 L 1348.234375 511.5625 C 1347.714844 511.292969 1347.453125 510.65625 1347.441406 509.644531 C 1347.4375 508.617188 1347.539062 507.546875 1347.746094 506.4375 C 1347.871094 505.808594 1348.007812 505.21875 1348.152344 504.660156 C 1348.300781 504.082031 1348.433594 503.574219 1348.550781 503.144531 C 1348.347656 503.328125 1347.871094 503.707031 1347.125 504.285156 C 1346.386719 504.847656 1345.585938 505.335938 1344.71875 505.753906 C 1344.160156 506.042969 1343.609375 506.238281 1343.078125 506.34375 C 1342.519531 506.457031 1342.046875 506.421875 1341.65625 506.242188 C 1341.34375 506.070312 1341.117188 505.847656 1340.976562 505.578125 C 1340.816406 505.304688 1340.730469 504.996094 1340.714844 504.65625 C 1340.710938 504.121094 1340.824219 503.539062 1341.050781 502.910156 L 1341.230469 502.414062 C 1341.589844 501.597656 1342.0625 500.808594 1342.652344 500.058594 C 1343.394531 499.101562 1344.238281 498.332031 1345.1875 497.746094 C 1346.132812 497.164062 1347.003906 496.996094 1347.804688 497.246094 L 1347.910156 497.285156 C 1348.558594 497.519531 1349.003906 497.910156 1349.246094 498.449219 C 1349.480469 498.992188 1349.550781 499.410156 1349.441406 499.707031"/></g></g></g><g clip-path="url(#z)"><g clip-path="url(#A)"><g clip-path="url(#B)"><path fill="#E8DED6" d="M 1302.550781 532.007812 L 1340.488281 545.773438 L 1342.964844 540.867188 C 1344.957031 536.90625 1349.785156 532.003906 1353.730469 529.941406 C 1353.902344 529.855469 1370.898438 520.808594 1375.519531 507.730469 C 1382.871094 486.925781 1371.90625 463.855469 1351.082031 456.300781 L 1350.746094 456.179688 C 1329.675781 448.742188 1306.503906 459.761719 1299.09375 480.746094 C 1294.46875 493.832031 1302.035156 511.539062 1302.113281 511.71875 C 1303.882812 515.800781 1304.5625 522.648438 1303.628906 526.980469 Z M 1340.648438 548.023438 L 1301 533.636719 C 1300.515625 533.460938 1300.230469 532.957031 1300.339844 532.453125 L 1301.605469 526.546875 C 1302.449219 522.632812 1301.8125 516.214844 1300.214844 512.527344 C 1299.886719 511.777344 1292.253906 493.902344 1297.140625 480.058594 C 1304.929688 458.003906 1329.28125 446.417969 1351.433594 454.238281 L 1351.785156 454.363281 C 1373.667969 462.304688 1385.195312 486.554688 1377.46875 508.421875 C 1372.582031 522.265625 1355.421875 531.386719 1354.691406 531.769531 C 1351.132812 533.628906 1346.609375 538.222656 1344.808594 541.796875 L 1341.921875 547.519531 C 1341.6875 547.988281 1341.140625 548.199219 1340.648438 548.023438"/></g></g></g><g clip-path="url(#C)"><g clip-path="url(#D)"><g clip-path="url(#E)"><path fill="#E8DED6" d="M 1298.117188 550.421875 L 1332.085938 562.746094 C 1333.34375 560.699219 1334.886719 557.414062 1336.507812 553.957031 C 1337.589844 551.640625 1338.707031 549.257812 1339.796875 547.136719 L 1302.210938 533.5 C 1301.683594 535.824219 1301.011719 538.367188 1300.363281 540.835938 C 1299.390625 544.53125 1298.464844 548.042969 1298.117188 550.421875 Z M 1332.15625 564.964844 L 1296.636719 552.074219 C 1296.195312 551.914062 1295.914062 551.472656 1295.960938 551.007812 C 1296.203125 548.496094 1297.25 544.515625 1298.359375 540.308594 C 1299.117188 537.441406 1299.898438 534.480469 1300.4375 531.914062 C 1300.496094 531.625 1300.683594 531.375 1300.945312 531.230469 C 1301.207031 531.082031 1301.519531 531.058594 1301.800781 531.160156 L 1341.609375 545.605469 C 1341.886719 545.707031 1342.113281 545.925781 1342.222656 546.207031 C 1342.328125 546.484375 1342.308594 546.792969 1342.171875 547.058594 C 1340.9375 549.375 1339.636719 552.148438 1338.382812 554.832031 C 1336.535156 558.773438 1334.789062 562.492188 1333.363281 564.578125 C 1333.09375 564.964844 1332.601562 565.125 1332.15625 564.964844"/></g></g></g><g clip-path="url(#F)"><g clip-path="url(#G)"><g clip-path="url(#H)"><path fill="#E8DED6" d="M 1298.609375 552.582031 C 1301.113281 556.117188 1306.601562 559.789062 1313.105469 562.148438 C 1319.609375 564.507812 1326.171875 565.210938 1330.363281 564.105469 Z M 1312.539062 563.714844 C 1304.332031 560.738281 1297.851562 555.886719 1296.019531 551.34375 C 1295.894531 551.039062 1295.964844 550.691406 1296.191406 550.457031 C 1296.421875 550.21875 1296.769531 550.140625 1297.078125 550.253906 L 1333.03125 563.296875 C 1333.34375 563.410156 1333.554688 563.695312 1333.582031 564.019531 C 1333.601562 564.347656 1333.433594 564.660156 1333.144531 564.816406 C 1328.824219 567.125 1320.738281 566.691406 1312.539062 563.714844"/></g></g></g><g clip-path="url(#I)"><g clip-path="url(#J)"><g clip-path="url(#K)"><path fill="#E8DED6" d="M 1340.257812 548.335938 L 1300.964844 534.109375 C 1301.007812 534.144531 1300.75 534.351562 1300.582031 534.804688 C 1300.414062 535.265625 1300.480469 535.589844 1300.527344 535.652344 L 1339.742188 549.851562 C 1339.84375 549.789062 1340.058594 549.582031 1340.203125 549.179688 C 1340.371094 548.726562 1340.300781 548.402344 1340.257812 548.335938 Z M 1339.253906 551.4375 L 1299.863281 537.148438 C 1298.902344 536.796875 1298.542969 535.546875 1299.015625 534.238281 C 1299.492188 532.929688 1300.570312 532.203125 1301.53125 532.550781 L 1340.921875 546.84375 C 1341.878906 547.191406 1342.246094 548.441406 1341.769531 549.75 C 1341.296875 551.058594 1340.210938 551.785156 1339.253906 551.4375"/></g></g></g><g clip-path="url(#L)"><g clip-path="url(#M)"><g clip-path="url(#N)"><path fill="#E8DED6" d="M 1338.148438 554.15625 L 1298.855469 539.929688 C 1298.894531 539.964844 1298.636719 540.167969 1298.472656 540.625 C 1298.304688 541.082031 1298.371094 541.40625 1298.414062 541.472656 L 1337.632812 555.667969 C 1337.734375 555.605469 1337.945312 555.402344 1338.09375 555 C 1338.257812 554.542969 1338.191406 554.222656 1338.148438 554.15625 Z M 1337.144531 557.257812 L 1297.753906 542.964844 C 1296.792969 542.617188 1296.429688 541.367188 1296.90625 540.058594 C 1297.378906 538.75 1298.460938 538.023438 1299.421875 538.371094 L 1338.808594 552.664062 C 1339.765625 553.011719 1340.132812 554.261719 1339.65625 555.570312 C 1339.183594 556.878906 1338.101562 557.605469 1337.144531 557.257812"/></g></g></g><g clip-path="url(#O)"><g clip-path="url(#P)"><g clip-path="url(#Q)"><path fill="#E8DED6" d="M 1335.070312 560.609375 L 1297.117188 546.878906 C 1297.183594 546.914062 1296.929688 547.128906 1296.761719 547.585938 C 1296.597656 548.042969 1296.65625 548.367188 1296.699219 548.433594 L 1334.554688 562.132812 C 1334.660156 562.0625 1334.867188 561.851562 1335.007812 561.460938 C 1335.171875 561.003906 1335.113281 560.675781 1335.070312 560.609375 Z M 1334.089844 563.726562 L 1296.015625 549.914062 C 1295.074219 549.570312 1294.722656 548.324219 1295.195312 547.015625 C 1295.671875 545.707031 1296.742188 544.976562 1297.683594 545.320312 L 1335.753906 559.132812 C 1336.699219 559.472656 1337.046875 560.722656 1336.574219 562.027344 C 1336.097656 563.335938 1335.03125 564.070312 1334.089844 563.726562"/></g></g></g><g clip-path="url(#R)"><g clip-path="url(#S)"><g clip-path="url(#T)"><path fill="#E8DED6" d="M 1310.890625 535.671875 L 1316.253906 493.253906 L 1316.265625 493.273438 L 1316.265625 493.210938 C 1316.265625 493.175781 1316.265625 493.136719 1316.265625 493.101562 C 1316.277344 492.6875 1316.554688 490.253906 1316.550781 490.242188 C 1316.429688 489.90625 1316.089844 489.699219 1315.738281 489.734375 C 1315.382812 489.777344 1315.097656 490.050781 1315.050781 490.40625 L 1309.355469 535.472656 C 1309.304688 535.839844 1309.527344 536.179688 1309.859375 536.296875 C 1309.914062 536.316406 1309.964844 536.328125 1310.023438 536.335938 C 1310.445312 536.390625 1310.835938 536.089844 1310.890625 535.671875"/></g></g></g><g clip-path="url(#U)"><g clip-path="url(#V)"><g clip-path="url(#W)"><path fill="#E8DED6" d="M 1356.054688 503.5 C 1355.789062 503.261719 1355.402344 503.234375 1355.097656 503.429688 C 1354.855469 503.589844 1354.601562 503.742188 1354.34375 503.890625 C 1354.285156 504.648438 1354.003906 505.398438 1353.546875 506.007812 L 1353.59375 505.988281 L 1332.933594 543.492188 C 1332.726562 543.867188 1332.863281 544.339844 1333.234375 544.542969 C 1333.617188 544.746094 1334.082031 544.609375 1334.289062 544.242188 L 1356.210938 504.445312 C 1356.382812 504.136719 1356.3125 503.75 1356.054688 503.5"/></g></g></g><g clip-path="url(#X)"><g clip-path="url(#Y)"><g clip-path="url(#Z)"><path fill="#E8DED6" d="M 1315.855469 498.914062 C 1315.097656 498.640625 1314.425781 497.601562 1315.417969 490.4375 C 1315.460938 490.105469 1315.769531 489.875 1316.101562 489.921875 C 1316.433594 489.972656 1316.667969 490.273438 1316.621094 490.605469 C 1315.898438 495.816406 1315.898438 497.503906 1316.296875 497.699219 C 1316.652344 497.777344 1317.296875 497.339844 1317.765625 494.851562 C 1317.824219 494.519531 1318.433594 494.824219 1318.734375 494.964844 C 1319.039062 495.109375 1319.164062 495.472656 1319.015625 495.777344 C 1318.226562 497.40625 1317.046875 499.28125 1315.925781 498.9375 L 1315.855469 498.914062"/></g></g></g><g clip-path="url(#aa)"><g clip-path="url(#ab)"><g clip-path="url(#ac)"><g clip-path="url(#ad)"><g clip-path="url(#ae)"><path fill="#F3F0E7" d="M 48.253906 225.984375 L 68.613281 234.597656 L 81.035156 239.964844 L 94.285156 243.652344 L 107.035156 247.914062 L 119.910156 252.035156 L 130.738281 255.882812 L 143.652344 260.546875 L 151.023438 263.417969 L 175.828125 256.011719 L 193.96875 250.144531 L 210.113281 244.820312 L 218.453125 242.078125 L 226.109375 239.246094 L 230.871094 237.691406 L 231.960938 255.367188 L 223.390625 258.667969 L 210.285156 262.964844 L 200.332031 265.820312 L 187.785156 270.351562 L 174.273438 274.675781 L 165.578125 278.121094 L 150.394531 283.644531 L 142.703125 282.007812 L 132.144531 278.136719 L 123.960938 275.320312 L 115.019531 271.335938 L 107.945312 268.847656 L 101.375 265.914062 L 94.433594 263.417969 L 88.253906 260.1875 L 81.1875 257.835938 L 74.382812 255.328125 L 65.34375 251.890625 L 56.429688 248.3125 L 48.492188 245.066406 L 44.273438 242.785156 L 45.429688 236.066406 L 45.71875 232.394531 L 48.253906 225.984375"/></g></g></g></g></g><g clip-path="url(#af)"><g clip-path="url(#ag)"><g clip-path="url(#ah)"><path fill="#F3F0E7" d="M 65.667969 207.707031 L 87.148438 215.902344 L 111.644531 225.578125 C 111.644531 225.578125 133.335938 233.703125 139.207031 235.453125 C 148.601562 238.257812 162.890625 233.492188 165.527344 232.40625 C 168.160156 231.328125 198.785156 221.679688 199.453125 220.910156 C 200.125 220.140625 225.566406 211.917969 225.566406 211.917969 L 227.011719 230.785156 C 227.011719 230.785156 205.585938 236.769531 201.5 237.769531 C 197.417969 238.769531 177.503906 247.621094 174.492188 248.378906 C 171.472656 249.128906 160.976562 254.011719 157.230469 254.632812 C 152.105469 255.480469 149.519531 255.347656 148.082031 255.445312 C 146.644531 255.546875 126.894531 246.625 124.34375 246.261719 C 121.789062 245.894531 105.226562 241.265625 101.566406 240.617188 C 97.910156 239.960938 84.476562 233.675781 76.652344 232.773438 C 68.835938 231.867188 44.003906 217.335938 44.003906 217.335938 L 44.320312 201.058594 L 65.667969 207.707031"/></g></g></g><g clip-path="url(#ai)"><g clip-path="url(#aj)"><g clip-path="url(#ak)"><g clip-path="url(#al)"><g clip-path="url(#am)"><path fill="#D0B1A1" d="M 230.769531 255.035156 C 230.753906 255.042969 230.753906 255.054688 230.734375 255.058594 C 229.476562 255.28125 228.0625 255.796875 226.871094 256.242188 L 226.097656 256.519531 C 225.386719 256.78125 224.671875 256.996094 223.972656 257.199219 C 223.421875 257.378906 222.867188 257.542969 222.300781 257.730469 C 220.722656 258.25 219.160156 258.753906 217.621094 259.238281 C 216.332031 259.648438 215.058594 260.042969 213.789062 260.464844 C 209.082031 262.019531 204.335938 263.566406 199.585938 265.121094 L 189.910156 268.277344 C 183.804688 270.277344 177.660156 272.53125 171.703125 274.71875 C 164.46875 277.375 156.988281 280.113281 149.585938 282.398438 C 145.410156 281.90625 140.609375 280.675781 137.03125 279.167969 C 131.566406 276.839844 113.53125 269.597656 100.359375 264.300781 C 94.34375 261.894531 89.546875 259.972656 87.910156 259.296875 C 84.652344 257.957031 75.71875 254.683594 68.554688 252.054688 C 64.414062 250.53125 60.824219 249.214844 59.152344 248.578125 C 57.332031 247.871094 53.019531 245.765625 49.570312 244.085938 C 47.789062 243.214844 46.382812 242.53125 45.34375 242.046875 C 45.96875 239.597656 46.359375 237.21875 46.523438 234.757812 C 46.605469 233.550781 47.039062 232.34375 47.5 231.0625 C 47.953125 229.796875 48.402344 228.480469 48.503906 227.140625 C 59.21875 231.9375 82.570312 241.226562 86.15625 242.261719 C 94.78125 244.722656 103.285156 247.644531 111.519531 250.476562 C 117.375 252.488281 122.917969 254.390625 128.363281 256.09375 C 133.484375 257.699219 148.492188 263.402344 150.894531 264.371094 L 151.066406 263.945312 L 151.140625 264.316406 C 158.066406 262.90625 164.363281 260.714844 170.46875 258.585938 C 174.953125 257.03125 179.597656 255.421875 184.539062 254.085938 C 188.703125 252.960938 192.847656 251.527344 196.855469 250.140625 C 199.675781 249.160156 202.488281 248.183594 205.332031 247.3125 C 206.996094 246.796875 208.582031 246.171875 210.113281 245.585938 C 211.785156 244.921875 213.363281 244.3125 215.066406 243.8125 C 219.179688 242.597656 224.976562 240.753906 230.1875 238.59375 C 230.140625 240.871094 230.351562 243.199219 230.5625 245.472656 C 230.847656 248.628906 231.140625 251.894531 230.769531 255.035156 Z M 46.546875 224.164062 C 46.90625 223.703125 47.234375 223.246094 47.542969 222.796875 C 47.894531 222.269531 48.261719 221.753906 48.699219 221.226562 C 49.402344 221.605469 50.09375 221.972656 50.816406 222.367188 C 54.523438 224.390625 58.371094 226.476562 62.695312 228.46875 C 67.355469 230.597656 72.261719 232.058594 77.007812 233.472656 C 80.324219 234.460938 83.765625 235.480469 87.070312 236.734375 C 97.316406 240.558594 107.976562 243.671875 118.765625 245.972656 C 123.804688 247.035156 127.621094 248.691406 131.660156 250.441406 C 135.101562 251.921875 138.636719 253.457031 142.980469 254.605469 C 143.867188 254.839844 144.789062 255.191406 145.667969 255.535156 C 147.175781 256.113281 148.707031 256.710938 150.304688 256.824219 C 151.15625 256.882812 152.019531 256.8125 152.902344 256.542969 C 153.855469 256.238281 155.210938 255.890625 156.683594 255.496094 C 160.0625 254.625 163.882812 253.632812 165.757812 252.597656 C 168.835938 250.882812 172.550781 249.835938 176.15625 248.816406 C 177.78125 248.363281 179.375 247.90625 180.902344 247.414062 C 184.167969 246.332031 186.996094 244.902344 189.714844 243.503906 C 192.800781 241.925781 195.722656 240.449219 199.25 239.433594 C 202.484375 238.5 205.894531 237.765625 209.191406 237.050781 C 213.933594 236.039062 219.238281 234.675781 223.914062 232.863281 C 224.46875 233.304688 225.097656 233.839844 225.765625 234.410156 C 226.816406 235.304688 227.941406 236.261719 228.992188 237.039062 C 223.976562 239.085938 218.46875 240.824219 214.53125 241.980469 C 212.742188 242.511719 211.058594 243.167969 209.417969 243.816406 C 207.917969 244.390625 206.375 244.992188 204.765625 245.488281 C 201.910156 246.363281 199.066406 247.359375 196.234375 248.339844 C 192.253906 249.714844 188.148438 251.140625 184.050781 252.242188 C 179.039062 253.605469 174.355469 255.222656 169.835938 256.792969 C 163.613281 258.949219 157.71875 260.996094 151.039062 262.378906 C 147.429688 260.960938 133.789062 255.792969 128.9375 254.28125 C 123.511719 252.582031 117.984375 250.679688 112.125 248.675781 C 103.878906 245.839844 95.351562 242.914062 86.679688 240.421875 C 82.746094 239.304688 54.898438 228.183594 46.546875 224.164062 Z M 44.871094 217.089844 C 44.859375 215.863281 44.855469 214.597656 44.839844 213.300781 C 44.835938 209.21875 44.820312 205.035156 44.597656 201.503906 C 45.917969 201.984375 47.21875 202.460938 48.492188 202.925781 C 52.644531 204.472656 56.925781 206.054688 61.722656 207.433594 C 64.144531 208.148438 66.710938 209.238281 69.191406 210.320312 C 71.449219 211.28125 73.757812 212.273438 75.988281 212.980469 C 79.679688 214.152344 82.984375 215.480469 86.492188 216.882812 C 88.121094 217.535156 89.773438 218.191406 91.476562 218.855469 C 95.207031 220.273438 98.601562 221.613281 101.789062 222.882812 C 109.203125 225.816406 115.59375 228.371094 123.113281 230.667969 C 125.003906 231.253906 127.128906 232.039062 129.386719 232.878906 C 134.703125 234.84375 140.644531 237.054688 145.769531 237.410156 C 146.414062 237.457031 147.054688 237.476562 147.65625 237.457031 C 151.070312 237.375 153.140625 236.804688 156.164062 235.875 C 158.023438 235.308594 159.898438 234.800781 161.785156 234.292969 C 163.734375 233.765625 165.675781 233.238281 167.613281 232.628906 C 169.867188 231.9375 172.105469 231.183594 174.355469 230.441406 C 177.808594 229.285156 181.378906 228.089844 184.917969 227.117188 C 191.304688 225.367188 215.929688 215.597656 225.183594 211.753906 C 225.195312 212.902344 225.171875 214.28125 225.152344 215.824219 C 225.054688 220.6875 224.960938 226.558594 225.78125 230.195312 C 220.695312 232.625 214.910156 233.878906 208.796875 235.199219 C 205.460938 235.910156 202.015625 236.660156 198.730469 237.609375 C 195.015625 238.667969 191.886719 240.265625 188.859375 241.808594 C 186.191406 243.167969 183.441406 244.566406 180.300781 245.597656 C 178.800781 246.09375 177.230469 246.539062 175.640625 246.992188 C 171.929688 248.023438 168.101562 249.113281 164.820312 250.9375 C 163.179688 251.867188 159.3125 252.855469 156.222656 253.660156 C 154.691406 254.058594 153.316406 254.417969 152.332031 254.722656 C 150.390625 255.328125 148.429688 254.5625 146.363281 253.757812 C 145.425781 253.398438 144.464844 253.027344 143.457031 252.761719 C 139.265625 251.65625 135.796875 250.152344 132.433594 248.695312 C 128.46875 246.984375 124.382812 245.21875 119.160156 244.109375 C 108.46875 241.835938 97.894531 238.746094 87.742188 234.941406 C 84.363281 233.667969 80.914062 232.644531 77.554688 231.648438 C 72.867188 230.25 68.03125 228.8125 63.484375 226.734375 C 59.214844 224.777344 55.410156 222.699219 51.71875 220.695312 C 49.335938 219.390625 47.078125 218.191406 44.871094 217.089844 Z M 232.457031 245.3125 C 232.183594 242.296875 231.921875 239.457031 232.195312 236.75 L 231.902344 236.722656 C 231.664062 236.597656 231.40625 236.449219 231.117188 236.253906 L 231.074219 236.160156 C 231.054688 236.164062 231.03125 236.175781 231.015625 236.179688 C 229.789062 235.339844 228.21875 234 226.996094 232.96875 C 226.546875 232.578125 226.171875 232.316406 225.820312 232.085938 C 226.585938 231.757812 227.328125 231.414062 228.042969 231.050781 L 228.023438 231.035156 C 226.835938 228.109375 226.960938 221.023438 227.042969 215.863281 C 227.085938 213.945312 227.101562 212.261719 227.070312 210.957031 C 227.085938 210.953125 227.113281 210.941406 227.128906 210.933594 L 227.0625 210.785156 C 227.058594 210.621094 227.058594 210.441406 227.046875 210.292969 L 226.855469 210.300781 L 226.378906 209.183594 C 219.332031 212.199219 191.246094 223.417969 184.410156 225.285156 C 180.824219 226.265625 177.226562 227.472656 173.746094 228.640625 C 171.519531 229.375 169.285156 230.125 167.054688 230.816406 C 165.144531 231.40625 163.214844 231.933594 161.277344 232.457031 C 159.378906 232.964844 157.484375 233.476562 155.601562 234.0625 C 152.484375 235.027344 150.671875 235.472656 147.609375 235.554688 C 142.480469 235.683594 135.871094 233.238281 130.042969 231.09375 C 127.761719 230.257812 125.609375 229.453125 123.671875 228.855469 C 116.230469 226.570312 109.863281 224.035156 102.492188 221.125 C 99.292969 219.851562 95.894531 218.503906 92.171875 217.074219 C 90.453125 216.425781 88.820312 215.765625 87.195312 215.105469 C 83.652344 213.703125 80.3125 212.363281 76.566406 211.167969 C 74.425781 210.488281 72.148438 209.503906 69.945312 208.5625 C 67.410156 207.46875 64.773438 206.347656 62.261719 205.617188 C 57.527344 204.246094 53.464844 202.738281 49.148438 201.144531 C 46.671875 200.226562 44.125 199.28125 41.441406 198.371094 C 43.226562 197.738281 45.070312 197.171875 46.890625 196.632812 L 48.777344 196.050781 C 49.957031 195.679688 51.46875 195.246094 53.078125 194.792969 C 55.761719 194.03125 58.800781 193.160156 60.820312 192.449219 L 60.199219 190.652344 C 58.214844 191.339844 55.210938 192.207031 52.546875 192.96875 C 50.929688 193.417969 49.394531 193.859375 48.210938 194.226562 L 46.332031 194.804688 C 43.1875 195.753906 39.9375 196.734375 37.011719 198.101562 L 37.8125 199.824219 C 38.089844 199.695312 38.382812 199.585938 38.667969 199.460938 C 40.03125 199.898438 41.355469 200.355469 42.648438 200.808594 C 42.914062 204.441406 42.929688 208.929688 42.941406 213.300781 C 42.945312 214.878906 42.953125 216.425781 42.972656 217.878906 L 42.984375 217.878906 L 42.832031 218.195312 C 44.183594 218.84375 45.570312 219.5625 46.992188 220.3125 C 46.625 220.78125 46.289062 221.253906 45.972656 221.726562 C 45.601562 222.257812 45.21875 222.765625 44.800781 223.261719 C 44.71875 223.214844 44.621094 223.164062 44.554688 223.121094 L 43.539062 224.714844 C 44.078125 225.0625 45.167969 225.605469 46.644531 226.292969 C 46.488281 227.601562 46.089844 229.355469 45.710938 230.429688 C 45.234375 231.769531 44.722656 233.15625 44.628906 234.621094 C 44.480469 236.859375 44.125 239.046875 43.582031 241.265625 C 43.5625 241.257812 43.535156 241.246094 43.519531 241.246094 L 42.914062 243.050781 C 43.488281 243.234375 46.15625 244.542969 48.738281 245.796875 C 52.417969 247.585938 56.574219 249.617188 58.484375 250.347656 C 60.148438 250.988281 63.75 252.308594 67.894531 253.835938 C 75.046875 256.457031 83.964844 259.726562 87.179688 261.058594 C 88.828125 261.738281 93.621094 263.652344 99.640625 266.082031 C 112.808594 271.355469 130.835938 278.601562 136.292969 280.914062 C 140.332031 282.625 145.890625 284 150.457031 284.40625 L 150.484375 284.113281 C 157.828125 281.839844 165.210938 279.128906 172.367188 276.503906 C 178.296875 274.328125 184.425781 272.078125 190.5 270.089844 L 200.183594 266.921875 C 204.929688 265.367188 209.667969 263.824219 214.390625 262.277344 C 215.648438 261.863281 216.925781 261.460938 218.179688 261.050781 C 219.746094 260.558594 221.316406 260.0625 222.910156 259.53125 C 223.441406 259.34375 223.984375 259.183594 224.519531 259.023438 C 225.257812 258.8125 225.988281 258.578125 226.746094 258.316406 L 227.539062 258.023438 C 228.71875 257.582031 230.261719 257.027344 231.378906 256.890625 L 231.390625 256.902344 C 231.394531 256.902344 231.40625 256.890625 231.414062 256.886719 C 231.503906 256.875 231.601562 256.855469 231.683594 256.851562 L 232.402344 257.035156 L 232.5625 255.988281 C 233.105469 252.414062 232.777344 248.796875 232.457031 245.3125"/></g></g></g></g></g><g clip-path="url(#an)"><g clip-path="url(#ao)"><g clip-path="url(#ap)"><path fill="#D9C9BC" d="M 74.285156 174.96875 C 79.019531 177.097656 84.167969 179.039062 89.96875 182.175781 C 97.71875 186.335938 103.566406 190.488281 111.25 194.710938 C 116.941406 197.839844 122.457031 201.320312 128.242188 204.269531 C 130.523438 205.433594 133.285156 207.222656 135.847656 207.570312 C 138.507812 207.945312 141.570312 206.6875 144.210938 206.40625 C 151.535156 205.613281 159.0625 204.636719 166.484375 204.082031 C 177.515625 203.253906 188.371094 202.738281 199.007812 199.480469 C 204.066406 197.9375 209.03125 196.082031 214.195312 194.71875 C 219.5 193.339844 224.28125 191.847656 229.585938 190.46875 C 231.816406 189.898438 236.316406 188.308594 238.636719 188.402344 L 238.945312 188.140625 C 231.601562 185.445312 225.597656 183.242188 218.789062 180.910156 C 214.101562 179.300781 208.144531 175.855469 203.59375 174.097656 C 196.269531 171.257812 189.65625 165.765625 181.871094 162.28125 C 178.097656 160.597656 162.351562 163.816406 155.507812 165.753906 C 150.566406 167.15625 146.796875 167.640625 140.640625 168.746094 C 134.335938 169.882812 127.816406 169.851562 121.839844 170.710938 C 104.003906 173.265625 92.101562 173.113281 74.386719 175.09375 M 65.546875 191.234375 C 63.171875 192.976562 58.589844 193.472656 55.667969 194.367188 C 52.21875 195.445312 48.175781 196.449219 45.046875 197.898438 L 45.0625 197.613281 C 52.695312 200.046875 60.257812 202.535156 68.007812 204.78125 C 72.269531 206.015625 76.707031 207.03125 80.9375 208.386719 C 85.925781 209.976562 90.003906 211.90625 94.707031 214.222656 C 104.171875 218.910156 114.078125 221.234375 123.738281 225.019531 C 129.835938 227.410156 139.480469 232.328125 146.234375 232.164062 C 149.148438 232.09375 150.882812 231.648438 153.761719 230.75 C 157.226562 229.691406 160.761719 228.871094 164.226562 227.796875 C 169.511719 226.15625 174.726562 224.199219 180.050781 222.746094 C 186.425781 221.003906 212.527344 210.546875 218.503906 208.007812 M 148.980469 255.324219 C 148.980469 255.324219 162.203125 254.316406 178.511719 247.308594 C 193.03125 241.070312 202.546875 237.9375 202.546875 237.9375 L 221.730469 233.003906 L 224.007812 236.140625 C 218.039062 238.691406 191.855469 248.097656 185.492188 249.835938 C 181.800781 250.84375 176.230469 252.332031 169.179688 254.507812 C 165.71875 255.589844 162.144531 256.980469 158.671875 258.054688 C 155.789062 258.941406 153.707031 260.042969 150.78125 260.109375 C 144.878906 257.730469 133.644531 254.164062 127.554688 251.773438 C 117.882812 247.972656 108.460938 244.667969 98.363281 241.5625 C 92.289062 239.695312 89.816406 239.078125 84.828125 237.5 C 80.597656 236.144531 75.496094 233.707031 71.246094 232.472656 C 63.484375 230.214844 56.734375 226.179688 49.101562 223.71875 C 49.101562 223.71875 49.890625 222.707031 50.828125 221.339844 C 52.273438 223.675781 76.359375 232.59375 101.582031 239.867188 C 120.730469 245.386719 124.441406 246.898438 148.980469 255.324219"/></g></g></g><g clip-path="url(#aq)"><g clip-path="url(#ar)"><g clip-path="url(#as)"><path fill="#F3F0E7" d="M 133.710938 226.996094 C 134.148438 220.960938 135.203125 215.074219 135.632812 209.019531 M 133.867188 227.644531 C 125.179688 223.257812 117.6875 218.589844 108.792969 214.320312 C 104.972656 212.488281 101.183594 210.898438 97.226562 209.351562 C 93.679688 207.964844 89.882812 207.539062 86.398438 205.75 C 77.414062 201.132812 73.019531 199.640625 61.570312 193.03125 L 60.945312 192.691406 C 61.382812 186.527344 61.117188 179.984375 61.5625 173.8125 L 61.382812 173.804688 C 68.742188 174.355469 75.875 178.136719 82.269531 181.578125 C 90.769531 186.15625 99.867188 189.523438 108.335938 194.183594 C 114.601562 197.628906 120.660156 201.449219 127.027344 204.6875 C 129.523438 205.976562 132.566406 207.945312 135.382812 208.335938 C 138.3125 208.746094 141.683594 207.363281 144.597656 207.046875 C 152.660156 206.183594 160.945312 205.097656 169.109375 204.492188 C 181.25 203.574219 193.183594 203.003906 204.90625 199.421875 C 210.464844 197.714844 215.941406 195.675781 221.613281 194.195312 C 227.457031 192.652344 233.347656 191.308594 239.191406 189.78125 C 241.628906 189.15625 244.5625 187.636719 247.125 187.746094 L 246.183594 187.675781 C 245.546875 191.269531 246.589844 195.335938 246.308594 199.085938 C 246.183594 200.714844 245.933594 202.410156 246.289062 203.914062 L 245.363281 204.542969 C 243.15625 206.351562 241.738281 205.898438 239.136719 206.933594 C 235.847656 208.230469 232.398438 209.71875 228.867188 210.546875 C 225.011719 211.449219 221.378906 212.15625 217.644531 213.304688 C 209.683594 215.726562 201.472656 215.824219 192.882812 216.941406 C 181.179688 218.449219 169.757812 223.5625 158.03125 224.734375 C 152.964844 225.234375 147.339844 225.867188 142.851562 226.863281 C 139.863281 227.523438 135.898438 227.785156 132.5625 227.4375"/></g></g></g><g clip-path="url(#at)"><g clip-path="url(#au)"><g clip-path="url(#av)"><g clip-path="url(#aw)"><g clip-path="url(#ax)"><path fill="#D0B1A1" d="M 242.019531 205.367188 C 241.027344 205.652344 239.980469 205.945312 239.058594 206.308594 L 237.503906 206.9375 C 234.71875 208.042969 231.839844 209.203125 228.9375 209.886719 C 227.933594 210.113281 226.949219 210.328125 225.988281 210.554688 C 223.136719 211.1875 220.457031 211.796875 217.648438 212.65625 C 212.113281 214.339844 206.5 214.878906 200.554688 215.449219 C 198.066406 215.695312 195.578125 215.921875 193.035156 216.265625 C 187.386719 216.984375 181.734375 218.566406 176.269531 220.089844 C 170.375 221.730469 164.253906 223.433594 158.207031 224.050781 C 153.207031 224.546875 147.476562 225.191406 142.933594 226.195312 C 140.265625 226.78125 136.988281 227.003906 134.125 226.824219 C 130.4375 224.953125 126.910156 223.003906 123.496094 221.117188 C 119.046875 218.65625 114.445312 216.113281 109.472656 213.722656 C 105.972656 212.042969 102.285156 210.457031 97.851562 208.730469 C 96.332031 208.136719 94.773438 207.707031 93.257812 207.300781 C 91.101562 206.71875 89.058594 206.164062 87.101562 205.15625 C 84.855469 204.007812 82.566406 202.890625 80.285156 201.769531 C 74.035156 198.722656 67.605469 195.566406 61.839844 191.589844 C 62.039062 188.691406 62.179688 185.820312 62.3125 182.960938 C 62.425781 180.449219 62.558594 177.941406 62.714844 175.421875 C 68.167969 176.492188 76.042969 179.421875 82.09375 182.675781 C 86.242188 184.917969 90.601562 186.890625 94.808594 188.800781 C 99.238281 190.8125 103.824219 192.902344 108.148438 195.277344 C 110.648438 196.640625 113.113281 198.070312 115.570312 199.503906 C 119.222656 201.636719 123.015625 203.84375 126.863281 205.804688 C 127.402344 206.074219 127.960938 206.378906 128.535156 206.699219 C 130.699219 207.875 133.152344 209.207031 135.53125 209.539062 C 135.714844 209.566406 135.90625 209.582031 136.09375 209.597656 C 137.960938 209.730469 139.890625 209.289062 141.761719 208.867188 C 142.898438 208.609375 143.976562 208.355469 144.976562 208.25 C 147.289062 208 149.613281 207.738281 151.949219 207.46875 C 157.710938 206.804688 163.644531 206.132812 169.457031 205.699219 L 172.886719 205.449219 C 183.632812 204.667969 194.738281 203.863281 205.457031 200.59375 C 207.542969 199.960938 209.628906 199.257812 211.699219 198.582031 C 215.101562 197.460938 218.609375 196.285156 222.117188 195.371094 C 225.148438 194.574219 228.183594 193.839844 231.210938 193.09375 C 234.039062 192.402344 236.882812 191.703125 239.699219 190.976562 C 240.523438 190.765625 241.375 190.453125 242.261719 190.144531 C 243.296875 189.78125 244.347656 189.429688 245.355469 189.203125 C 245.230469 190.902344 245.359375 192.640625 245.492188 194.351562 C 245.621094 195.992188 245.757812 197.683594 245.636719 199.265625 L 245.574219 200.15625 C 245.445312 201.492188 245.335938 202.855469 245.609375 204.164062 C 244.515625 204.660156 243.265625 205.019531 242.019531 205.367188 Z M 95.039062 171.511719 C 103.253906 170.703125 111.609375 169.890625 120.347656 168.972656 C 127.605469 168.210938 134.128906 167.375 140.898438 166.359375 C 146.457031 165.515625 149.835938 164.925781 152.914062 164.394531 C 154.566406 164.09375 156.132812 163.808594 157.917969 163.515625 C 160.117188 163.152344 162.457031 162.539062 164.929688 161.882812 C 171.214844 160.203125 177.699219 158.449219 182.839844 160.746094 C 186.832031 162.523438 190.925781 164.894531 194.882812 167.179688 C 199.378906 169.769531 204.042969 172.457031 208.691406 174.382812 C 210.558594 175.152344 212.503906 176.046875 214.488281 176.957031 C 217.730469 178.449219 221.089844 179.992188 224.328125 181.097656 C 226.21875 181.746094 228.148438 182.414062 230.070312 183.078125 C 234.710938 184.6875 239.453125 186.324219 243.742188 187.65625 C 243.035156 187.863281 242.332031 188.101562 241.640625 188.347656 C 240.800781 188.640625 239.992188 188.933594 239.226562 189.132812 C 236.414062 189.859375 233.585938 190.554688 230.761719 191.242188 C 227.714844 191.992188 224.6875 192.734375 221.644531 193.53125 C 218.070312 194.46875 214.539062 195.640625 211.105469 196.777344 C 209.039062 197.457031 206.988281 198.136719 204.898438 198.777344 C 194.390625 201.992188 183.878906 202.742188 172.753906 203.550781 L 169.316406 203.800781 C 163.46875 204.234375 157.507812 204.917969 151.730469 205.570312 C 149.394531 205.839844 147.074219 206.105469 144.773438 206.363281 C 143.660156 206.476562 142.484375 206.738281 141.347656 207.003906 C 139.441406 207.429688 137.464844 207.859375 135.792969 207.65625 C 133.753906 207.375 131.472656 206.121094 129.441406 205.023438 C 128.863281 204.707031 128.28125 204.390625 127.734375 204.109375 C 123.929688 202.160156 120.164062 199.972656 116.519531 197.863281 C 114.050781 196.421875 111.570312 194.980469 109.074219 193.605469 C 104.675781 191.191406 100.058594 189.097656 95.601562 187.074219 C 91.410156 185.175781 87.089844 183.210938 82.988281 180.992188 C 78.023438 178.328125 71.808594 175.851562 66.628906 174.398438 C 76.0625 173.378906 85.332031 172.464844 95.039062 171.511719 Z M 247.40625 203.410156 C 247.292969 202.46875 247.371094 201.425781 247.464844 200.324219 L 247.535156 199.414062 C 247.667969 197.6875 247.53125 195.898438 247.394531 194.1875 C 247.238281 192.355469 247.125 190.617188 247.292969 188.96875 C 247.316406 188.972656 247.339844 188.964844 247.359375 188.964844 L 247.445312 187.0625 C 247.234375 187.050781 247.019531 187.082031 246.808594 187.089844 L 246.9375 186.644531 C 242.078125 185.234375 236.289062 183.214844 230.6875 181.285156 C 228.765625 180.605469 226.835938 179.949219 224.949219 179.296875 C 221.796875 178.210938 218.480469 176.695312 215.273438 175.222656 C 213.28125 174.308594 211.308594 173.402344 209.417969 172.625 C 204.886719 170.742188 200.285156 168.085938 195.84375 165.519531 C 191.832031 163.203125 187.691406 160.820312 183.613281 159.007812 C 177.851562 156.445312 170.722656 158.351562 164.429688 160.042969 C 162.015625 160.691406 159.71875 161.304688 157.613281 161.648438 C 155.832031 161.941406 154.253906 162.214844 152.578125 162.503906 C 149.523438 163.046875 146.15625 163.636719 140.613281 164.476562 C 133.878906 165.492188 127.371094 166.320312 120.152344 167.074219 C 111.425781 167.996094 103.058594 168.8125 94.855469 169.613281 C 83.3125 170.746094 72.417969 171.824219 61.097656 173.089844 L 61.121094 173.304688 L 60.953125 173.289062 C 60.71875 176.5 60.554688 179.683594 60.414062 182.863281 C 60.285156 185.710938 60.148438 188.554688 59.953125 191.425781 L 59.398438 192.191406 C 65.617188 196.726562 72.640625 200.160156 79.441406 203.476562 C 81.722656 204.59375 83.996094 205.710938 86.242188 206.847656 C 88.367188 207.949219 90.605469 208.5625 92.761719 209.140625 C 94.292969 209.558594 95.738281 209.957031 97.164062 210.507812 C 101.550781 212.207031 105.191406 213.777344 108.640625 215.4375 C 113.574219 217.800781 118.148438 220.328125 122.570312 222.789062 C 125.851562 224.601562 129.25 226.46875 132.78125 228.273438 L 132.746094 228.648438 C 133.03125 228.671875 133.335938 228.703125 133.632812 228.71875 C 133.65625 228.734375 133.6875 228.75 133.710938 228.761719 L 133.726562 228.726562 C 136.84375 228.945312 140.433594 228.699219 143.34375 228.046875 C 147.789062 227.070312 153.449219 226.429688 158.402344 225.9375 C 164.609375 225.316406 170.796875 223.585938 176.78125 221.917969 C 182.179688 220.417969 187.765625 218.859375 193.273438 218.140625 C 195.796875 217.824219 198.28125 217.578125 200.734375 217.339844 C 206.773438 216.769531 212.492188 216.222656 218.195312 214.46875 C 220.945312 213.640625 223.589844 213.039062 226.40625 212.410156 C 227.386719 212.191406 228.359375 211.96875 229.359375 211.730469 C 232.410156 211.011719 235.355469 209.832031 238.210938 208.691406 L 239.753906 208.078125 C 240.582031 207.742188 241.53125 207.480469 242.539062 207.203125 C 244.65625 206.617188 246.832031 206.015625 248.460938 204.667969 L 247.40625 203.410156"/></g></g></g></g></g><g clip-path="url(#ay)"><g clip-path="url(#az)"><g clip-path="url(#aA)"><path fill="#D0B1A1" d="M 198.855469 255.0625 C 204.824219 253.628906 210.984375 252.144531 216.800781 249.84375 L 216.449219 248.964844 C 210.691406 251.242188 204.5625 252.707031 198.632812 254.144531 C 191.773438 255.785156 184.683594 257.492188 178.101562 260.449219 L 178.488281 261.320312 C 184.988281 258.394531 192.042969 256.707031 198.855469 255.0625 Z M 202.363281 258.742188 C 211.347656 256.519531 220.625 254.222656 229.386719 250.667969 L 229.015625 249.785156 C 220.324219 253.324219 211.078125 255.609375 202.128906 257.824219 C 191.804688 260.367188 181.136719 263.019531 171.230469 267.59375 L 171.632812 268.453125 C 181.445312 263.914062 192.078125 261.296875 202.363281 258.742188 Z M 144.386719 271.539062 C 139.390625 270.898438 134.871094 269.632812 130.078125 268.28125 L 128.707031 267.902344 C 127.6875 267.617188 126.652344 267.339844 125.621094 267.054688 C 120.183594 265.578125 114.554688 264.050781 109.527344 261.632812 C 103.722656 258.839844 97.6875 256.746094 91.847656 254.734375 C 88.953125 253.726562 85.960938 252.695312 83.007812 251.585938 C 80.785156 250.742188 78.566406 249.882812 76.367188 249.035156 C 67.347656 245.542969 58.03125 241.9375 48.261719 239.773438 L 48.054688 240.703125 C 57.761719 242.847656 66.625 246.273438 76.027344 249.921875 C 78.234375 250.773438 80.445312 251.636719 82.671875 252.472656 C 85.628906 253.585938 88.636719 254.628906 91.53125 255.636719 C 97.355469 257.644531 103.371094 259.722656 109.117188 262.480469 C 114.234375 264.941406 119.886719 266.480469 125.367188 267.984375 C 126.402344 268.25 127.425781 268.535156 128.453125 268.820312 L 129.816406 269.203125 C 134.640625 270.558594 139.203125 271.835938 144.265625 272.480469 Z M 148.320312 265.457031 C 143.320312 264.820312 138.800781 263.558594 134.003906 262.207031 L 132.640625 261.820312 C 131.625 261.535156 130.59375 261.257812 129.542969 260.976562 C 124.113281 259.5 118.484375 257.96875 113.453125 255.542969 C 107.65625 252.761719 101.617188 250.667969 95.78125 248.652344 C 92.882812 247.652344 89.898438 246.613281 86.9375 245.5 C 84.714844 244.667969 82.5 243.808594 80.289062 242.945312 C 71.292969 239.460938 61.957031 235.859375 52.183594 233.6875 L 51.992188 234.609375 C 61.695312 236.777344 70.558594 240.203125 79.957031 243.839844 C 82.167969 244.691406 84.371094 245.550781 86.613281 246.394531 C 89.570312 247.511719 92.570312 248.550781 95.457031 249.554688 C 101.28125 251.566406 107.300781 253.640625 113.042969 256.402344 C 118.160156 258.867188 123.8125 260.40625 129.308594 261.898438 C 130.335938 262.167969 131.367188 262.457031 132.382812 262.738281 L 133.753906 263.117188 C 138.582031 264.476562 143.140625 265.757812 148.203125 266.40625 Z M 168.554688 245.882812 L 169.492188 245.550781 C 174.125 243.933594 178.78125 242.21875 183.292969 240.558594 C 187.449219 239.015625 191.753906 237.433594 196 235.9375 C 198.234375 235.152344 200.484375 234.398438 202.734375 233.636719 C 207.515625 232.03125 212.457031 230.363281 217.199219 228.457031 C 217.597656 228.292969 218.003906 228.128906 218.414062 227.953125 C 219.636719 227.414062 220.902344 226.859375 222.148438 226.738281 L 222.058594 225.785156 C 220.664062 225.921875 219.320312 226.511719 218.03125 227.070312 C 217.628906 227.246094 217.238281 227.414062 216.855469 227.574219 C 212.128906 229.464844 207.195312 231.125 202.429688 232.738281 C 200.167969 233.5 197.933594 234.253906 195.683594 235.050781 C 191.425781 236.535156 187.132812 238.128906 182.972656 239.671875 C 178.464844 241.316406 173.796875 243.046875 169.171875 244.644531 L 168.230469 244.984375 C 164.152344 246.414062 159.933594 247.886719 155.613281 247.816406 L 155.59375 248.765625 C 160.085938 248.839844 164.382812 247.339844 168.554688 245.882812 Z M 178.074219 235.042969 L 178.78125 234.792969 C 182.300781 233.554688 185.867188 232.234375 189.304688 230.953125 C 192.453125 229.765625 195.714844 228.570312 198.941406 227.425781 C 200.625 226.828125 202.320312 226.257812 204.007812 225.679688 C 207.667969 224.441406 211.4375 223.152344 215.0625 221.683594 C 215.355469 221.566406 215.664062 221.425781 215.964844 221.300781 C 216.902344 220.886719 217.859375 220.460938 218.78125 220.375 L 218.695312 219.433594 C 217.613281 219.535156 216.585938 219.984375 215.589844 220.425781 C 215.300781 220.550781 214.992188 220.691406 214.707031 220.800781 C 211.109375 222.261719 207.347656 223.535156 203.714844 224.777344 C 202.015625 225.351562 200.308594 225.929688 198.617188 226.527344 C 195.386719 227.671875 192.125 228.886719 188.976562 230.066406 C 185.535156 231.347656 181.984375 232.660156 178.460938 233.894531 L 177.757812 234.148438 C 174.667969 235.242188 171.453125 236.371094 168.195312 236.316406 L 168.175781 237.273438 C 171.613281 237.324219 174.902344 236.164062 178.074219 235.042969 Z M 108.898438 229.519531 C 106.066406 229.160156 103.117188 228.242188 100.28125 227.371094 C 98.875 226.9375 97.417969 226.492188 96.03125 226.117188 C 90.121094 224.546875 84.703125 221.859375 78.375 218.296875 C 77.296875 217.6875 76.214844 216.964844 75.167969 216.277344 C 73.796875 215.378906 72.386719 214.445312 70.9375 213.730469 L 70.515625 214.570312 C 71.910156 215.273438 73.292969 216.183594 74.632812 217.070312 C 75.699219 217.773438 76.800781 218.496094 77.902344 219.128906 C 84.304688 222.722656 89.792969 225.441406 95.78125 227.03125 C 97.160156 227.394531 98.597656 227.851562 99.984375 228.273438 C 102.871094 229.164062 105.867188 230.085938 108.78125 230.46875 Z M 126.46875 237.132812 C 121.179688 236.519531 115.707031 235.125 110.402344 233.769531 C 107.804688 233.101562 105.140625 232.414062 102.558594 231.847656 C 91.570312 229.402344 81.464844 225.367188 69.65625 220.054688 C 67.632812 219.125 65.59375 218.0625 63.632812 217.042969 C 61.097656 215.707031 58.496094 214.34375 55.832031 213.261719 L 55.492188 214.136719 C 58.09375 215.195312 60.679688 216.558594 63.1875 217.867188 C 65.160156 218.917969 67.210938 219.984375 69.265625 220.925781 C 81.117188 226.261719 91.28125 230.3125 102.359375 232.78125 C 104.914062 233.347656 107.589844 234.019531 110.160156 234.6875 C 115.5 236.054688 121.015625 237.460938 126.363281 238.082031 Z M 193.460938 212.859375 C 194.890625 212.757812 196.152344 212.664062 197.175781 212.597656 C 201.707031 212.261719 215.066406 210.03125 219.285156 207.363281 L 218.777344 206.566406 C 214.859375 209.027344 201.796875 211.304688 197.105469 211.644531 C 196.082031 211.71875 194.816406 211.804688 193.398438 211.898438 C 185.921875 212.425781 174.628906 213.203125 169.460938 214.082031 L 169.621094 215.015625 C 174.746094 214.136719 186.003906 213.371094 193.460938 212.859375 Z M 152.832031 212.550781 C 154.765625 212.550781 156.78125 212.527344 158.734375 212.441406 C 163.542969 212.234375 168.367188 211.445312 173.027344 210.6875 C 176.820312 210.066406 180.742188 209.425781 184.636719 209.101562 L 185.910156 208.996094 C 196.441406 208.125 202.800781 207.601562 216.070312 202.421875 C 217.890625 201.695312 220.574219 201.296875 223.40625 200.867188 C 227.492188 200.246094 231.726562 199.613281 234.269531 197.945312 L 233.742188 197.136719 C 231.375 198.707031 227.25 199.324219 223.269531 199.925781 C 220.375 200.367188 217.644531 200.769531 215.710938 201.527344 C 202.578125 206.667969 196.273438 207.1875 185.835938 208.046875 L 184.542969 208.160156 C 180.625 208.476562 176.6875 209.128906 172.863281 209.746094 C 168.238281 210.503906 163.449219 211.292969 158.699219 211.496094 C 156.757812 211.582031 154.757812 211.585938 152.816406 211.605469 C 148.996094 211.636719 145.050781 211.664062 141.242188 212.21875 L 141.371094 213.15625 C 145.125 212.613281 149.042969 212.582031 152.832031 212.550781 Z M 111.917969 201.519531 C 108.796875 200.707031 105.824219 199.207031 102.960938 197.765625 L 101.875 197.214844 C 98.386719 195.460938 94.816406 193.746094 91.351562 192.085938 C 88.929688 190.921875 86.507812 189.765625 84.105469 188.578125 L 83.683594 189.433594 C 86.097656 190.621094 88.519531 191.773438 90.941406 192.953125 C 94.394531 194.601562 97.964844 196.308594 101.453125 198.0625 L 102.535156 198.609375 C 105.441406 200.085938 108.457031 201.597656 111.683594 202.4375 Z M 127.53125 213.523438 C 119.363281 211.980469 111.386719 208.75 104.351562 205.890625 C 96.210938 202.578125 88.292969 198.039062 81.621094 194.023438 C 80.777344 193.523438 79.910156 192.984375 79.035156 192.433594 C 75.28125 190.109375 71.035156 187.464844 66.976562 186.273438 L 67.25 185.363281 C 71.433594 186.597656 75.738281 189.269531 79.539062 191.621094 C 80.40625 192.179688 81.269531 192.707031 82.109375 193.203125 C 88.757812 197.199219 96.628906 201.722656 104.710938 205.007812 C 111.703125 207.851562 119.625 211.0625 127.699219 212.59375 L 127.53125 213.523438"/></g></g></g></svg>