<svg xmlns="http://www.w3.org/2000/svg" xmlns:xlink="http://www.w3.org/1999/xlink" width="1440" viewBox="0 0 1440 810" height="810" version="1.0"><defs><clipPath id="b"><path d="M 0 594 L 298 594 L 298 716 L 0 716 Z M 0 594"/></clipPath><clipPath id="c"><path d="M 301.273438 709.664062 L 246.398438 790.257812 L -21.414062 607.910156 L 33.457031 527.316406 Z M 301.273438 709.664062"/></clipPath><clipPath id="d"><path d="M 301.273438 709.664062 L 246.398438 790.257812 L -21.414062 607.910156 L 33.457031 527.316406 Z M 301.273438 709.664062"/></clipPath><clipPath id="e"><path d="M 405 725 L 428.070312 725 L 428.070312 761 L 405 761 Z M 405 725"/></clipPath><clipPath id="f"><path d="M 391 737.414062 L 406 737.414062 L 406 769.292969 L 391 769.292969 Z M 391 737.414062"/></clipPath><clipPath id="g"><path d="M 210 633 L 428.070312 633 L 428.070312 747 L 210 747 Z M 210 633"/></clipPath><clipPath id="h"><path d="M 350 722.429688 L 391.292969 722.429688 L 391.292969 769.292969 L 350 769.292969 Z M 350 722.429688"/></clipPath><clipPath id="k"><path d="M 12 8 L 246 8 L 246 358 L 12 358 Z M 12 8"/></clipPath><clipPath id="l"><path d="M 360.816406 346.675781 L 24.203125 371.160156 L -1.148438 22.578125 L 335.464844 -1.902344 Z M 360.816406 346.675781"/></clipPath><clipPath id="m"><path d="M 360.816406 346.675781 L 24.203125 371.160156 L -1.148438 22.578125 L 335.464844 -1.902344 Z M 360.816406 346.675781"/></clipPath><clipPath id="j"><path d="M0 0H246V371H0z"/></clipPath><clipPath id="p"><path d="M 0 1 L 145.921875 1 L 145.921875 239 L 0 239 Z M 0 1"/></clipPath><clipPath id="o"><path d="M0 0H146V240H0z"/></clipPath><clipPath id="q"><path d="M 1121 0 L 1321 0 L 1321 248.636719 L 1121 248.636719 Z M 1121 0"/></clipPath><clipPath id="r"><path d="M 1299 283 L 1321 283 L 1321 336 L 1299 336 Z M 1299 283"/></clipPath><clipPath id="s"><path d="M 1318.660156 235.371094 L 1439.992188 332.226562 L 1352.496094 441.835938 L 1231.160156 344.980469 Z M 1318.660156 235.371094"/></clipPath><clipPath id="t"><path d="M 1318.660156 235.371094 L 1439.992188 332.226562 L 1352.496094 441.835938 L 1231.160156 344.980469 Z M 1318.660156 235.371094"/></clipPath><clipPath id="u"><path d="M 1324 309 L 1331 309 L 1331 316 L 1324 316 Z M 1324 309"/></clipPath><clipPath id="v"><path d="M 1318.660156 235.371094 L 1439.992188 332.226562 L 1352.496094 441.835938 L 1231.160156 344.980469 Z M 1318.660156 235.371094"/></clipPath><clipPath id="w"><path d="M 1318.660156 235.371094 L 1439.992188 332.226562 L 1352.496094 441.835938 L 1231.160156 344.980469 Z M 1318.660156 235.371094"/></clipPath><clipPath id="x"><path d="M 1323 310 L 1326 310 L 1326 316 L 1323 316 Z M 1323 310"/></clipPath><clipPath id="y"><path d="M 1318.660156 235.371094 L 1439.992188 332.226562 L 1352.496094 441.835938 L 1231.160156 344.980469 Z M 1318.660156 235.371094"/></clipPath><clipPath id="z"><path d="M 1318.660156 235.371094 L 1439.992188 332.226562 L 1352.496094 441.835938 L 1231.160156 344.980469 Z M 1318.660156 235.371094"/></clipPath><clipPath id="A"><path d="M 1272 244 L 1388 244 L 1388 414 L 1272 414 Z M 1272 244"/></clipPath><clipPath id="B"><path d="M 1318.660156 235.371094 L 1439.992188 332.226562 L 1352.496094 441.835938 L 1231.160156 344.980469 Z M 1318.660156 235.371094"/></clipPath><clipPath id="C"><path d="M 1318.660156 235.371094 L 1439.992188 332.226562 L 1352.496094 441.835938 L 1231.160156 344.980469 Z M 1318.660156 235.371094"/></clipPath><clipPath id="D"><path d="M 1343 330 L 1344 330 L 1344 334 L 1343 334 Z M 1343 330"/></clipPath><clipPath id="E"><path d="M 1318.660156 235.371094 L 1439.992188 332.226562 L 1352.496094 441.835938 L 1231.160156 344.980469 Z M 1318.660156 235.371094"/></clipPath><clipPath id="F"><path d="M 1318.660156 235.371094 L 1439.992188 332.226562 L 1352.496094 441.835938 L 1231.160156 344.980469 Z M 1318.660156 235.371094"/></clipPath><mask id="i"><g filter="url(#a)"><path fill-opacity=".176" d="M-144 -81H1584V891H-144z"/></g></mask><mask id="n"><g filter="url(#a)"><path fill-opacity=".42" d="M-144 -81H1584V891H-144z"/></g></mask><filter x="0%" y="0%" width="100%" xmlns:xlink="http://www.w3.org/1999/xlink" xlink:type="simple" xlink:actuate="onLoad" height="100%" id="a" xlink:show="other"><feColorMatrix values="0 0 0 0 1 0 0 0 0 1 0 0 0 0 1 0 0 0 1 0" color-interpolation-filters="sRGB"/></filter></defs><path fill="#FFF" d="M-144 -81H1584V891H-144z"/><path fill="#FFF" d="M-144 -81H1584V891H-144z"/><path fill="#E4D8FA" d="M-144 -81H1584V891H-144z"/><g clip-path="url(#b)"><g clip-path="url(#c)"><g clip-path="url(#d)"><path fill="#FFF" d="M 297.082031 715.277344 C 275.320312 692.140625 245.46875 674.246094 212.78125 675.550781 C 197.191406 676.203125 182.613281 682.492188 170.289062 691.769531 C 165.0625 695.707031 153.988281 704.933594 160.1875 712.097656 C 167.253906 720.285156 177.414062 712.890625 175.304688 703.777344 C 173.191406 694.664062 161.882812 692.992188 154.507812 696.296875 C 147.605469 699.449219 138.480469 713.023438 130.332031 708.179688 C 123.660156 704.207031 120.796875 693.011719 117.949219 686.382812 C 114.167969 676.890625 109.320312 667.984375 103.40625 659.65625 C 97.347656 651.601562 87.738281 643.097656 77.089844 643.328125 C 67.242188 643.59375 58.78125 654.183594 48.78125 648.433594 C 38.46875 642.511719 31.601562 629.316406 23.820312 620.625 C 14.109375 609.769531 0.875 600.898438 -11.980469 594.285156 C -12.101562 594.203125 -12.238281 594.402344 -12.109375 594.472656 C 7.066406 604.820312 21.597656 618.890625 35.113281 635.652344 C 42.761719 645.140625 49.933594 654.125 62.882812 649.339844 C 71.578125 646.132812 77.9375 642.257812 87.199219 646.933594 C 98.542969 652.691406 105.921875 664.53125 111.445312 675.472656 C 115.792969 684.089844 118.878906 693.296875 123.367188 701.847656 C 125.292969 705.515625 128.035156 709.367188 132.089844 710.652344 C 138.691406 712.773438 145.894531 704.035156 150.410156 700.648438 C 155.445312 696.875 160.976562 694.988281 167.132812 697.039062 C 172.886719 698.992188 177.050781 707.421875 172.25 712.515625 C 168.882812 716.113281 160.988281 712.585938 159.875 708.585938 C 159.15625 705.996094 161.363281 703.042969 162.761719 701.070312 C 172.28125 687.609375 191.355469 679.828125 206.964844 677.398438 C 225.382812 674.488281 244.140625 679.644531 260.433594 687.933594 C 274.117188 695.066406 286.226562 704.269531 296.757812 715.550781 C 296.972656 715.695312 297.257812 715.476562 297.070312 715.292969 Z M 297.082031 715.277344"/></g></g></g><path fill="#DAC6FF" d="M 294.394531 663.277344 L 294.328125 686.140625 C 294.34375 681.164062 291.054688 676.144531 284.421875 672.320312 C 271.511719 664.878906 250.601562 664.984375 237.953125 672.320312 C 231.539062 676.046875 228.304688 680.933594 228.289062 685.820312 L 228.355469 662.957031 C 228.367188 658.070312 231.601562 653.183594 238.019531 649.460938 C 250.664062 642.121094 271.574219 642.015625 284.484375 649.460938 C 291.117188 653.285156 294.40625 658.304688 294.394531 663.277344"/><path fill="#DAC6FF" d="M 312.308594 663.242188 L 312.246094 686.105469 C 312.230469 691.640625 309.523438 697.171875 304.070312 701.992188 L 304.136719 679.132812 C 309.585938 674.3125 312.292969 668.777344 312.308594 663.242188"/><path fill="#DAC6FF" d="M 210.304688 685.757812 L 210.371094 662.898438 C 210.347656 670.460938 215.351562 678.019531 225.34375 683.78125 C 242.738281 693.8125 269.375 695.15625 289.347656 687.710938 L 289.285156 710.574219 C 269.308594 718.015625 242.671875 716.671875 225.277344 706.644531 C 215.285156 700.882812 210.28125 693.324219 210.304688 685.757812"/><path fill="#DAC6FF" d="M 339.015625 716.347656 L 338.953125 739.210938 L 289.285156 710.574219 L 289.347656 687.710938 L 339.015625 716.347656"/><path fill="#DAC6FF" d="M 406.914062 712.832031 L 406.847656 735.691406 L 384.757812 748.511719 L 384.824219 725.652344 L 406.914062 712.832031"/><path fill="#DAC6FF" d="M 328.042969 735.574219 L 327.976562 758.4375 L 316.863281 752.027344 L 316.925781 729.167969 L 328.042969 735.574219"/><path fill="#DAC6FF" d="M 350.132812 722.757812 L 350.066406 745.617188 L 327.976562 758.4375 L 328.042969 735.574219 L 350.132812 722.757812"/><g clip-path="url(#e)"><path fill="#DAC6FF" d="M 428.070312 725.03125 L 428.003906 747.894531 L 405.917969 760.710938 L 405.980469 737.851562 L 428.070312 725.03125"/></g><g clip-path="url(#f)"><path fill="#DAC6FF" d="M 405.980469 737.851562 L 405.917969 760.710938 L 391.128906 769.292969 L 391.195312 746.433594 L 405.980469 737.851562"/></g><g clip-path="url(#g)"><path fill="#E4D8FA" d="M 237.992188 676.441406 C 251.082031 683.988281 272.167969 683.988281 284.996094 676.546875 C 297.644531 669.207031 297.574219 657.007812 284.484375 649.460938 C 271.574219 642.015625 250.664062 642.121094 238.019531 649.460938 C 225.191406 656.902344 225.082031 669 237.992188 676.441406 Z M 416.953125 718.621094 L 428.070312 725.03125 L 405.980469 737.851562 L 391.195312 746.433594 L 350.132812 722.757812 L 328.042969 735.574219 L 316.925781 729.167969 L 339.015625 716.347656 L 289.347656 687.710938 C 269.375 695.15625 242.738281 693.8125 225.34375 683.78125 C 205.441406 672.308594 205.335938 653.699219 225.289062 642.121094 C 245.058594 630.644531 277.230469 630.644531 297.136719 642.121094 C 314.527344 652.148438 317.117188 667.65625 304.136719 679.132812 L 373.707031 719.242188 L 395.796875 706.421875 L 406.914062 712.832031 L 384.824219 725.652344 L 394.863281 731.441406 L 416.953125 718.621094"/></g><g clip-path="url(#h)"><path fill="#DAC6FF" d="M 391.195312 746.433594 L 391.128906 769.292969 L 350.066406 745.617188 L 350.132812 722.757812 L 391.195312 746.433594"/></g><g mask="url(#i)"><g><g clip-path="url(#j)" transform="translate(1194 132)"><g clip-path="url(#k)"><g clip-path="url(#l)"><g clip-path="url(#m)"><path fill="#FFF" d="M 16.171875 204.863281 C 25.320312 239.132812 46.84375 268.230469 70.90625 293.714844 C 92.15625 316.183594 116.851562 335.882812 145.785156 347.429688 C 159.785156 353.0625 175.488281 358.011719 190.671875 357.746094 C 205.785156 357.488281 220.761719 353.386719 234.121094 346.324219 C 247.6875 339.246094 259.753906 328.847656 268.4375 316.316406 C 278.339844 302.152344 283.230469 285.625 288.417969 269.285156 C 300.152344 232.167969 319.824219 198.25 331.835938 161.113281 C 342.476562 128.273438 346.175781 91.457031 330.535156 59.410156 C 315.5625 28.855469 284.695312 12.898438 251.773438 9.128906 C 214.125 4.9375 176.273438 15.25 142.742188 32.042969 C 125.90625 40.40625 109.964844 50.457031 94.488281 61.175781 C 79.21875 71.808594 63.894531 82.652344 49.78125 94.742188 C 36.984375 105.683594 25.992188 118.316406 19.640625 134.039062 C 13.578125 148.972656 11.339844 165.378906 12.371094 181.476562 C 12.882812 189.488281 14.292969 197.296875 16.171875 204.863281"/></g></g></g></g></g></g><path fill="#DAC6FF" d="M 1427.058594 106.183594 C 1423.296875 86.371094 1412.328125 68.976562 1399.777344 53.53125 C 1388.6875 39.914062 1375.542969 27.722656 1359.664062 19.980469 C 1351.984375 16.207031 1343.3125 12.753906 1334.71875 12.277344 C 1326.167969 11.800781 1317.535156 13.507812 1309.695312 16.960938 C 1301.734375 20.414062 1294.488281 25.816406 1289.066406 32.566406 C 1282.886719 40.191406 1279.441406 49.363281 1275.839844 58.417969 C 1267.683594 78.984375 1255.171875 97.410156 1246.855469 117.976562 C 1239.492188 136.164062 1235.886719 156.890625 1243.410156 175.714844 C 1250.617188 193.660156 1267.40625 203.984375 1285.859375 207.480469 C 1306.960938 211.410156 1328.78125 207.121094 1348.417969 198.980469 C 1358.277344 194.933594 1367.703125 189.890625 1376.890625 184.449219 C 1385.957031 179.046875 1395.0625 173.527344 1403.539062 167.253906 C 1411.21875 161.578125 1417.949219 154.867188 1422.1875 146.210938 C 1426.226562 137.992188 1428.167969 128.777344 1428.246094 119.605469 C 1428.285156 115.039062 1427.808594 110.550781 1427.058594 106.183594"/><g mask="url(#n)"><g><g clip-path="url(#o)" transform="translate(0 527)"><g clip-path="url(#p)"><path fill="#DAC6FF" d="M 143.925781 114.609375 C 139.367188 90.683594 126.078125 69.679688 110.867188 51.027344 C 97.429688 34.578125 81.5 19.859375 62.261719 10.507812 C 52.953125 5.953125 42.445312 1.78125 32.03125 1.207031 C 21.667969 0.632812 11.207031 2.691406 1.707031 6.863281 C -7.9375 11.035156 -16.714844 17.558594 -23.289062 25.710938 C -30.773438 34.914062 -34.949219 45.992188 -39.316406 56.925781 C -49.199219 81.761719 -64.363281 104.011719 -74.4375 128.851562 C -83.363281 150.8125 -87.730469 175.839844 -78.613281 198.570312 C -69.878906 220.242188 -49.535156 232.710938 -27.175781 236.929688 C -1.601562 241.675781 24.835938 236.5 48.632812 226.667969 C 60.582031 221.777344 72 215.6875 83.132812 209.121094 C 94.121094 202.597656 105.15625 195.933594 115.425781 188.355469 C 124.734375 181.5 132.890625 173.394531 138.023438 162.941406 C 142.917969 153.015625 145.269531 141.894531 145.363281 130.816406 C 145.414062 125.300781 144.835938 119.882812 143.925781 114.609375"/></g></g></g></g><g clip-path="url(#q)"><path fill="#FFF" d="M 1318.347656 248.652344 L 1317.082031 248.0625 C 1322.757812 235.894531 1317.5625 220.632812 1301.644531 202.695312 C 1295.761719 196.066406 1289.667969 188.96875 1285.5 181.480469 C 1284.730469 180.097656 1284.046875 178.734375 1283.441406 177.390625 C 1280.335938 179.59375 1277.085938 181.5625 1273.6875 183.285156 C 1264.21875 188.078125 1254.4375 190.566406 1244.613281 190.671875 C 1239.492188 190.699219 1234.457031 190.054688 1229.507812 188.738281 C 1224.5625 187.421875 1219.871094 185.484375 1215.441406 182.917969 C 1206.234375 177.566406 1199.210938 170.027344 1195.132812 161.125 C 1193.683594 157.863281 1192.507812 154.503906 1191.601562 151.054688 C 1189.042969 151.820312 1186.4375 152.386719 1183.789062 152.746094 C 1173.042969 154.207031 1158.761719 152.039062 1150.894531 141.585938 C 1146.960938 136.359375 1145.734375 128.667969 1147.765625 121.984375 C 1149.472656 116.375 1153.101562 112.34375 1157.988281 110.636719 C 1163.226562 108.804688 1169.125 109.789062 1174.589844 113.40625 C 1179.4375 116.613281 1183.644531 121.664062 1186.132812 127.253906 C 1188.492188 132.550781 1189.875 138.269531 1191.210938 143.800781 C 1191.652344 145.617188 1192.09375 147.457031 1192.574219 149.289062 C 1201.710938 146.28125 1210.246094 140.671875 1217.226562 132.980469 C 1226.296875 122.984375 1231.964844 110.421875 1233.183594 97.601562 C 1235.585938 72.253906 1221.722656 45.433594 1198.675781 30.867188 C 1190.96875 25.996094 1182.300781 22.363281 1173.917969 18.851562 C 1161.972656 13.851562 1149.625 8.675781 1139.902344 -0.167969 C 1130.042969 -9.136719 1123.695312 -21.929688 1122.019531 -36.1875 C 1120.347656 -50.449219 1123.570312 -64.359375 1131.085938 -75.363281 L 1132.238281 -74.574219 C 1124.910156 -63.851562 1121.773438 -50.277344 1123.40625 -36.351562 C 1125.042969 -22.425781 1131.234375 -9.941406 1140.84375 -1.199219 C 1150.386719 7.484375 1162.625 12.609375 1174.460938 17.566406 C 1182.894531 21.101562 1191.617188 24.753906 1199.425781 29.691406 C 1222.902344 44.53125 1237.023438 71.875 1234.570312 97.734375 C 1233.324219 110.851562 1227.53125 123.703125 1218.257812 133.917969 C 1211.09375 141.808594 1202.324219 147.558594 1192.933594 150.636719 C 1193.820312 154.035156 1194.976562 157.335938 1196.402344 160.542969 C 1200.359375 169.183594 1207.1875 176.503906 1216.144531 181.714844 C 1220.464844 184.21875 1225.035156 186.113281 1229.863281 187.394531 C 1234.6875 188.679688 1239.601562 189.308594 1244.59375 189.277344 C 1254.203125 189.171875 1263.777344 186.738281 1273.054688 182.042969 C 1276.480469 180.304688 1279.753906 178.316406 1282.878906 176.078125 C 1280.109375 169.355469 1279.445312 163.0625 1280.84375 156.972656 C 1282.070312 151.632812 1284.992188 147.429688 1288.863281 145.441406 C 1293.027344 143.296875 1299.460938 144.074219 1302.035156 148.613281 C 1303.449219 151.101562 1304.742188 156.496094 1297.542969 164.6875 C 1293.652344 169.113281 1289.335938 173.070312 1284.589844 176.5625 C 1288.757812 186.078125 1296.425781 194.714844 1302.6875 201.773438 C 1319.007812 220.164062 1324.277344 235.933594 1318.347656 248.652344 Z M 1293.761719 145.640625 C 1292.257812 145.644531 1290.835938 145.988281 1289.5 146.679688 C 1286 148.480469 1283.339844 152.34375 1282.207031 157.28125 C 1280.785156 163.464844 1281.746094 169.5 1284.035156 175.234375 C 1288.59375 171.851562 1292.746094 168.027344 1296.492188 163.769531 C 1303.125 156.222656 1302.050781 151.464844 1300.824219 149.296875 C 1299.617188 147.171875 1296.835938 145.640625 1293.761719 145.640625 Z M 1163.375 111.109375 C 1161.683594 111.109375 1160.039062 111.390625 1158.441406 111.953125 C 1153.992188 113.507812 1150.671875 117.214844 1149.097656 122.390625 C 1147.191406 128.660156 1148.332031 135.863281 1152.007812 140.746094 C 1159.511719 150.71875 1173.246094 152.769531 1183.597656 151.363281 C 1186.1875 151.011719 1188.734375 150.457031 1191.238281 149.707031 C 1190.746094 147.839844 1190.296875 145.972656 1189.851562 144.128906 C 1188.527344 138.65625 1187.164062 133 1184.855469 127.820312 C 1182.46875 122.464844 1178.445312 117.632812 1173.816406 114.570312 C 1171.203125 112.839844 1167.542969 111.109375 1163.375 111.109375 Z M 1163.375 111.109375"/></g><g clip-path="url(#r)"><g clip-path="url(#s)"><g clip-path="url(#t)"><path fill="#DAC6FF" d="M 1300.550781 283.316406 C 1301.96875 284.550781 1301.964844 286.160156 1301.792969 287.882812 C 1301.542969 290.378906 1301.96875 289.359375 1303.140625 290.40625 C 1304.039062 296.65625 1304.453125 302.617188 1306.761719 308.503906 C 1310.492188 318.019531 1315.175781 326.359375 1320.234375 335.058594 C 1316.585938 334.882812 1315.558594 330.726562 1313.789062 328.730469 C 1310.390625 324.886719 1308.6875 321.15625 1306.714844 316.335938 C 1304.871094 311.820312 1300.964844 304.605469 1301.34375 299.796875 C 1301.667969 295.664062 1297.691406 286.898438 1300.550781 283.316406 C 1302.941406 285.398438 1300.261719 283.679688 1300.550781 283.316406" fill-rule="evenodd"/></g></g></g><g clip-path="url(#u)"><g clip-path="url(#v)"><g clip-path="url(#w)"><path fill="#DAC6FF" d="M 1328.296875 311.667969 C 1329.324219 312.78125 1328.867188 314.097656 1330.457031 314.871094 C 1329.441406 315.195312 1328.726562 314.753906 1328.117188 315.957031 C 1326.035156 314.089844 1325.746094 312.144531 1324.445312 309.484375 C 1325.65625 309.035156 1327.277344 313.09375 1327.867188 313.6875 C 1328.453125 312.941406 1327.417969 312.386719 1328.296875 311.667969 C 1329.257812 312.710938 1327.359375 312.433594 1328.296875 311.667969" fill-rule="evenodd"/></g></g></g><g clip-path="url(#x)"><g clip-path="url(#y)"><g clip-path="url(#z)"><path fill="#DAC6FF" d="M 1323.402344 310.421875 C 1324.835938 310.789062 1325.964844 314.59375 1325.417969 315.28125 C 1323.765625 313.984375 1324.667969 311.878906 1323.402344 310.421875 C 1325.625 310.992188 1324.742188 311.964844 1323.402344 310.421875" fill-rule="evenodd"/></g></g></g><g clip-path="url(#A)"><g clip-path="url(#B)"><g clip-path="url(#C)"><path fill="#DAC6FF" d="M 1282.6875 382.460938 C 1283.121094 382.027344 1282.910156 381.667969 1282.398438 381.347656 C 1281.738281 381.871094 1282.070312 382.542969 1282.6875 382.460938 Z M 1303.992188 398.582031 C 1304.792969 397.234375 1305.671875 395.878906 1304.714844 394.726562 C 1303.914062 396.078125 1303.039062 397.433594 1303.992188 398.582031 Z M 1287.042969 383.277344 C 1288.148438 384.160156 1288.519531 383.253906 1288.738281 382.648438 C 1289.632812 380.195312 1286.988281 381.726562 1287.042969 383.277344 C 1287.28125 383.472656 1287.019531 382.625 1287.042969 383.277344 Z M 1321.019531 407.152344 C 1320.992188 407.773438 1322.382812 408.707031 1322.710938 407.617188 C 1322.140625 407.417969 1321.5 406.578125 1321.019531 407.152344 Z M 1305.433594 393.828125 C 1306.179688 393.160156 1306.847656 392.296875 1306.007812 391.628906 C 1305.160156 392.230469 1304.964844 392.964844 1305.433594 393.828125 C 1306.140625 393.199219 1304.800781 393.1875 1305.433594 393.828125 Z M 1289.851562 380.5 C 1290.089844 380.691406 1290.332031 380.882812 1290.570312 381.074219 C 1291.25 380.34375 1291.179688 379.691406 1290.355469 379.128906 C 1289.867188 379.671875 1290.632812 380 1289.851562 380.5 C 1290.089844 380.691406 1290.683594 379.96875 1289.851562 380.5 Z M 1328.578125 408.753906 C 1328.335938 409.058594 1328.097656 409.359375 1327.859375 409.65625 C 1328.816406 410.171875 1329.835938 410.492188 1330.917969 410.621094 C 1330.734375 409.570312 1329.140625 409.519531 1328.578125 408.753906 C 1328.335938 409.058594 1329.292969 409.722656 1328.578125 408.753906 Z M 1326.886719 408.292969 C 1327.386719 407.46875 1327.78125 406.660156 1326.957031 405.984375 C 1326.285156 406.828125 1325.894531 407.640625 1326.886719 408.292969 Z M 1306.191406 390.296875 C 1306.390625 390.660156 1306.691406 390.902344 1307.089844 391.015625 C 1307.5625 390.414062 1307.503906 389.875 1306.910156 389.394531 C 1306.671875 389.695312 1306.429688 389.996094 1306.191406 390.296875 C 1306.644531 390.863281 1306.429688 389.996094 1306.191406 390.296875 Z M 1285.066406 372.839844 C 1284.898438 373.664062 1284.933594 374.484375 1285.171875 375.289062 C 1285.726562 375.148438 1284.894531 371.761719 1284.742188 371.402344 C 1284.015625 371.960938 1284.808594 372.363281 1285.066406 372.839844 C 1284.621094 373.710938 1284.816406 372.375 1285.066406 372.839844 Z M 1309.324219 391.910156 C 1309.421875 391.296875 1309.601562 390.675781 1308.960938 390.144531 C 1308.417969 390.808594 1308.875 391.359375 1309.324219 391.910156 Z M 1291.972656 378.949219 C 1293.640625 379.261719 1293.046875 376.875 1292.191406 376.460938 C 1291.441406 377.25 1291.371094 378.082031 1291.972656 378.949219 C 1292.421875 379.03125 1291.492188 378.179688 1291.972656 378.949219 Z M 1280.421875 367.953125 C 1280.285156 367.421875 1280.453125 366.855469 1279.917969 366.371094 C 1279.945312 366.816406 1279.621094 368.136719 1280.421875 367.953125 Z M 1317.78125 398.660156 C 1317.257812 398.523438 1316.9375 397.414062 1316.449219 398.484375 C 1318.398438 399.082031 1322.351562 401.613281 1324.617188 401.167969 C 1322.5625 399.757812 1320.140625 399.285156 1317.78125 398.660156 C 1317.390625 398.558594 1319.902344 399.21875 1317.78125 398.660156 Z M 1309.429688 388.453125 C 1309.285156 388.632812 1309.140625 388.8125 1309 388.992188 C 1309.40625 389.222656 1309.816406 389.445312 1310.222656 389.675781 C 1310.464844 388.949219 1310.203125 388.539062 1309.429688 388.453125 C 1309.285156 388.632812 1309.957031 388.386719 1309.429688 388.453125 Z M 1286.21875 371.398438 C 1286.21875 370.796875 1286.804688 370.128906 1286.179688 369.597656 C 1285.671875 370.257812 1285.984375 370.824219 1286.21875 371.398438 Z M 1279.738281 366.226562 C 1280.292969 365.664062 1280.015625 364.347656 1279.378906 364.460938 C 1280.285156 364.960938 1278.582031 365.753906 1279.738281 366.226562 Z M 1323.359375 401.636719 C 1322.765625 402.46875 1322.644531 403.359375 1323 404.300781 C 1323.746094 404.425781 1324.003906 403.5 1324.652344 404.441406 C 1325.578125 406.542969 1322.359375 404.910156 1321.667969 405.601562 C 1323.015625 410.003906 1325 404.382812 1325.507812 403.890625 C 1326.84375 402.609375 1330.722656 406.710938 1331.890625 407.558594 C 1330.9375 408.222656 1329.890625 407.523438 1329.1875 406.882812 C 1327.578125 408.148438 1332.195312 410.597656 1333.542969 406.222656 C 1330.28125 404.371094 1326.488281 403.765625 1323.359375 401.636719 C 1322.726562 402.582031 1326.847656 404.007812 1323.359375 401.636719 Z M 1324.976562 401.453125 C 1327.464844 402.171875 1330.078125 404.070312 1332.464844 403.886719 C 1329.894531 402.402344 1327.394531 401.558594 1324.976562 401.453125 Z M 1309.972656 387.40625 C 1311.425781 388.980469 1311.882812 385.011719 1309.972656 387.40625 C 1310.726562 388.226562 1310.210938 387.105469 1309.972656 387.40625 Z M 1294.027344 376.746094 C 1294.796875 376.058594 1295.457031 374.34375 1294.675781 373.71875 C 1293.90625 374.605469 1293.691406 375.613281 1294.027344 376.746094 C 1295.082031 375.804688 1293.894531 375.773438 1294.027344 376.746094 Z M 1319.003906 396.390625 C 1320.21875 395.828125 1325.066406 399.371094 1324.222656 396.125 C 1322.34375 395.660156 1320.710938 394.566406 1318.898438 393.941406 C 1318.085938 394.949219 1317.960938 396.257812 1317.132812 397.257812 C 1321.613281 399.140625 1326.421875 400.9375 1331.242188 401.726562 C 1327.453125 399.28125 1322.789062 398.796875 1319.003906 396.390625 C 1320.511719 395.691406 1322.472656 398.597656 1319.003906 396.390625 Z M 1310.871094 385.171875 C 1311.109375 385.363281 1311.351562 385.554688 1311.589844 385.746094 C 1312.078125 385.339844 1312.140625 384.894531 1311.769531 384.414062 C 1311.433594 384.625 1311.136719 384.875 1310.871094 385.171875 C 1311.109375 385.363281 1311.128906 384.542969 1310.871094 385.171875 Z M 1320.226562 391.164062 C 1319.566406 391.996094 1318.566406 393.117188 1320.191406 393.792969 C 1320.957031 393.246094 1319.828125 393.050781 1320.046875 392.496094 C 1321.671875 392.539062 1323.25 394.027344 1324.90625 393.421875 C 1323.449219 392.425781 1321.667969 392.199219 1320.226562 391.164062 C 1319.894531 391.585938 1321.832031 392.3125 1320.226562 391.164062 Z M 1325.589844 398.101562 C 1328.59375 399.707031 1332.035156 400.164062 1335.019531 401.789062 C 1334.390625 402.652344 1333.972656 404.035156 1332.644531 404.027344 C 1334.394531 406.261719 1335.339844 402.46875 1335.453125 401.25 C 1332.359375 399.585938 1328.9375 399.011719 1325.589844 398.101562 C 1329.09375 399.96875 1328.859375 398.992188 1325.589844 398.101562 Z M 1282.078125 359.234375 C 1281.355469 358.882812 1282.417969 358.3125 1281.613281 357.972656 C 1281.296875 358.367188 1281.5 359.644531 1282.078125 359.234375 C 1281.355469 358.878906 1281.503906 359.640625 1282.078125 359.234375 Z M 1333.074219 410.871094 C 1334.558594 413.148438 1339.898438 403.914062 1337.683594 402.144531 C 1336.242188 405.078125 1334.203125 407.789062 1333.074219 410.871094 C 1333.667969 411.78125 1333.902344 408.613281 1333.074219 410.871094 Z M 1312.308594 383.367188 C 1312.511719 383.550781 1313.554688 382.886719 1312.671875 382.179688 C 1312.53125 382.472656 1311.554688 383.070312 1312.308594 383.367188 C 1312.675781 383.707031 1311.558594 383.070312 1312.308594 383.367188 Z M 1310.402344 382.433594 C 1310.785156 383.121094 1312.164062 381.394531 1311.410156 381.171875 C 1311.074219 381.59375 1310.738281 382.015625 1310.402344 382.433594 Z M 1327.679688 393.273438 C 1325.863281 393.40625 1326.523438 395.382812 1325.699219 396.121094 C 1327.515625 395.628906 1327.617188 398.703125 1328.929688 396.003906 C 1329.445312 394.945312 1329.722656 393.273438 1327.679688 393.273438 C 1327.136719 393.3125 1328.394531 393.273438 1327.679688 393.273438 Z M 1320.410156 389.832031 C 1321.84375 391.398438 1324.667969 392.71875 1326.636719 391.257812 C 1325.179688 390.152344 1322.84375 390.457031 1321.632812 389.039062 C 1321.875 388.128906 1322.316406 389.445312 1322.605469 388.925781 C 1321.859375 388.417969 1323.121094 388.453125 1321.957031 387.523438 C 1321.515625 388.34375 1321 389.113281 1320.410156 389.832031 C 1322.015625 391.585938 1321.25 389.023438 1320.410156 389.832031 Z M 1311.914062 381.28125 C 1312.023438 380.773438 1312.148438 380.269531 1312.238281 379.765625 C 1311.902344 380.296875 1310.917969 380.902344 1311.914062 381.28125 Z M 1313.066406 381.3125 C 1314.03125 382.082031 1313.902344 381.292969 1313.640625 380.589844 C 1313.453125 380.832031 1313.257812 381.070312 1313.066406 381.3125 C 1313.246094 381.457031 1313.257812 381.070312 1313.066406 381.3125 Z M 1286 369.453125 C 1286.09375 367.90625 1285.648438 357.273438 1283.988281 357.214844 C 1284.621094 361.300781 1285.316406 365.375 1286 369.453125 C 1286.203125 366.039062 1285.316406 365.375 1286 369.453125 Z M 1299.136719 368.128906 C 1299.378906 368.320312 1299.617188 368.511719 1299.859375 368.703125 C 1300.828125 367.964844 1299.648438 367.160156 1299.136719 368.128906 Z M 1314.363281 379.691406 C 1315.132812 379.21875 1315.140625 378.835938 1314.398438 378.539062 C 1313.796875 378.9375 1313.789062 379.316406 1314.363281 379.691406 C 1314.554688 379.449219 1313.617188 379.390625 1314.363281 379.691406 Z M 1298.203125 365.609375 C 1298.699219 366.144531 1299.132812 366.09375 1299.5 365.460938 C 1298.972656 364.648438 1298.539062 364.695312 1298.203125 365.609375 C 1298.699219 366.144531 1298.394531 365.367188 1298.203125 365.609375 Z M 1288.234375 361.488281 C 1286.972656 359.863281 1288.390625 355.507812 1285.679688 354.726562 C 1283.941406 355.945312 1288.089844 369.605469 1288.878906 371.75 C 1289.183594 368.300781 1287.84375 364.941406 1288.234375 361.488281 C 1287.53125 360.585938 1287.839844 364.980469 1288.234375 361.488281 Z M 1301.441406 366.71875 C 1301.304688 366.902344 1301.453125 368.792969 1301.515625 368.839844 C 1301.851562 368.652344 1302.214844 368.554688 1302.605469 368.542969 C 1301.96875 368.695312 1302.074219 366.933594 1301.441406 366.71875 C 1300.992188 367.316406 1302.550781 367.09375 1301.441406 366.71875 Z M 1290.140625 366.851562 C 1290.257812 363.175781 1289.84375 359.558594 1288.773438 356.015625 C 1289.164062 359.632812 1289.292969 363.28125 1290.140625 366.851562 Z M 1312.453125 378.757812 C 1313.765625 379.496094 1314.1875 376.335938 1314.144531 376.269531 C 1313.558594 377.101562 1313.320312 377.894531 1312.453125 378.757812 Z M 1303.496094 367.46875 C 1303.792969 366.832031 1303.710938 366.242188 1303.132812 365.707031 C 1303.03125 366.320312 1302.855469 366.941406 1303.496094 367.46875 Z M 1332.609375 391.894531 C 1329.425781 392.140625 1326.675781 388.097656 1323.464844 389.320312 C 1328.992188 391.316406 1334.644531 393.054688 1339.230469 396.882812 C 1341.070312 393.007812 1334.394531 393.609375 1332.609375 391.894531 C 1329.683594 392.117188 1334.90625 394.097656 1332.609375 391.894531 Z M 1339.738281 392.5625 C 1334.632812 391.863281 1330.378906 387.335938 1325.089844 387.660156 C 1327.757812 389.535156 1330.886719 390.570312 1333.917969 391.691406 C 1334.621094 391.949219 1341.542969 395.441406 1339.738281 392.5625 C 1334.960938 391.90625 1340.125 393.183594 1339.738281 392.5625 Z M 1295.898438 361.113281 C 1295.226562 359.710938 1295.800781 357.296875 1294.246094 356.542969 C 1294.828125 357.863281 1294.355469 360.988281 1295.898438 361.113281 Z M 1291.542969 361.769531 C 1291.585938 361.097656 1291.851562 360.519531 1292.335938 360.039062 C 1291.601562 358.859375 1290.96875 357.515625 1291.078125 356.082031 C 1293.652344 358.140625 1294.160156 365.121094 1294.75 368.460938 C 1297.089844 365.527344 1291.457031 358.191406 1293.488281 355.644531 C 1289.164062 350.933594 1291.03125 359.972656 1291.542969 361.769531 C 1291.65625 361.210938 1291.046875 360.035156 1291.542969 361.769531 Z M 1304.933594 365.667969 C 1305.191406 364.980469 1305.121094 364.332031 1304.71875 363.722656 C 1304.289062 364.425781 1304.359375 365.074219 1304.933594 365.667969 Z M 1297.375 362.585938 C 1297.480469 360.824219 1297.765625 359.039062 1296.800781 357.402344 C 1295.214844 358.699219 1297.257812 360.941406 1297.375 362.585938 Z M 1298.5625 359.988281 C 1299.117188 359.160156 1298.820312 358.429688 1298.3125 357.722656 C 1297.996094 358.523438 1298.363281 359.25 1298.5625 359.988281 Z M 1336.710938 387.492188 C 1332.90625 387.035156 1329.21875 383.886719 1325.269531 384.851562 C 1325.589844 385.136719 1325.5625 385.414062 1325.195312 385.679688 C 1328.707031 386.390625 1332.011719 387.90625 1335.25 389.382812 C 1336.933594 390.148438 1338.613281 390.929688 1340.324219 391.636719 C 1343.378906 392.902344 1340.753906 394.128906 1341.03125 396.84375 C 1343.1875 395.589844 1342.65625 393.679688 1342.457031 391.632812 C 1342.222656 389.128906 1338.609375 388.796875 1336.710938 387.492188 C 1332.945312 387.042969 1338.667969 388.835938 1336.710938 387.492188 Z M 1307.273438 361.628906 C 1307.683594 361.089844 1308.019531 360.558594 1307.273438 360.152344 C 1307.132812 360.660156 1306.421875 361.230469 1307.273438 361.628906 Z M 1318.609375 369.199219 C 1319.367188 368.570312 1319.171875 368.042969 1319.078125 367.507812 C 1318.609375 368.109375 1317.984375 368.726562 1318.609375 369.199219 Z M 1300.613281 365.171875 C 1300.980469 364.394531 1301.652344 365.089844 1301.980469 364.195312 C 1300.289062 362.84375 1301.332031 355.117188 1300.507812 352.386719 C 1298.503906 356.632812 1300.8125 360.820312 1300.613281 365.171875 C 1301.011719 364.328125 1300.8125 360.882812 1300.613281 365.171875 Z M 1319.976562 366.75 C 1320.0625 366.300781 1320.757812 365.785156 1320.15625 365.417969 C 1319.78125 365.898438 1319.089844 366.410156 1319.976562 366.75 Z M 1303.0625 353.246094 C 1302.636719 351.871094 1303.1875 350.390625 1302.273438 349.070312 C 1301.824219 350.4375 1302.1875 352.578125 1303.0625 353.246094 Z M 1310.371094 355.535156 C 1310.5625 356.011719 1310.777344 356.480469 1311.015625 356.9375 C 1311.53125 356.292969 1311.648438 355.945312 1311.160156 355.28125 C 1310.941406 355.511719 1310.675781 355.597656 1310.371094 355.535156 C 1310.746094 355.984375 1310.632812 355.445312 1310.371094 355.535156 Z M 1361.367188 395.359375 C 1361.378906 396.082031 1360.6875 396.765625 1361.582031 397.304688 C 1363.097656 395.242188 1362.097656 396.304688 1361.367188 395.359375 C 1361.375 396.015625 1361.8125 395.9375 1361.367188 395.359375 Z M 1321.34375 362.820312 C 1321.945312 363.292969 1322.484375 363.230469 1322.964844 362.636719 C 1322.367188 362.164062 1321.828125 362.226562 1321.34375 362.820312 Z M 1363.203125 395.644531 C 1363.65625 395.683594 1364.890625 395.234375 1364.714844 394.488281 C 1364.164062 394.363281 1362.652344 394.816406 1363.203125 395.644531 Z M 1310.117188 353.265625 C 1310.691406 352.023438 1311.410156 353.21875 1312.167969 352.542969 C 1311.066406 352.015625 1311.074219 350.941406 1310.117188 350.3125 C 1309.496094 351.308594 1309.941406 352.246094 1310.117188 353.265625 C 1310.691406 352.027344 1309.949219 352.300781 1310.117188 353.265625 Z M 1319.582031 358.753906 C 1320.480469 359.1875 1319.792969 359.984375 1320.589844 360.445312 C 1320.890625 360.070312 1322.171875 358.195312 1320.953125 357.78125 C 1320.582031 358.558594 1319.914062 357.863281 1319.582031 358.753906 C 1320.597656 359.242188 1319.960938 357.738281 1319.582031 358.753906 Z M 1317.0625 356.746094 C 1318.597656 357.96875 1319.671875 356.628906 1318.433594 355.769531 C 1318.167969 356.398438 1317.714844 356.722656 1317.0625 356.746094 C 1317.425781 357.03125 1317.574219 356.902344 1317.0625 356.746094 Z M 1322.066406 357.488281 C 1323.167969 357.957031 1321.648438 358.753906 1322.75 359.214844 C 1323.367188 358.542969 1323.816406 355.296875 1322.066406 357.488281 C 1323.1875 357.964844 1322.308594 357.1875 1322.066406 357.488281 Z M 1328.652344 362.15625 C 1327.441406 363.957031 1325.898438 360.914062 1324.515625 361.804688 C 1325.339844 362.648438 1327.011719 363.230469 1327.429688 364.429688 C 1325.714844 364.761719 1325.058594 362.863281 1323.503906 363.070312 C 1323.699219 364.667969 1326.304688 364.171875 1326.742188 365.65625 C 1325.449219 367.148438 1323.957031 364.011719 1322.570312 364.980469 C 1323.960938 366.015625 1326.128906 366.195312 1327.140625 367.742188 C 1325.71875 368.574219 1324.359375 366.566406 1322.929688 366.742188 C 1323.773438 367.167969 1324.492188 367.742188 1325.089844 368.464844 C 1323.976562 369.609375 1322.777344 367.285156 1321.597656 368.042969 C 1322.753906 369.0625 1324.425781 369.058594 1324.367188 370.847656 C 1322.207031 371.066406 1321.367188 367.222656 1319.617188 369.414062 C 1320.03125 370.835938 1324.1875 370.902344 1323.109375 372.792969 C 1321.476562 371.40625 1319.957031 370.46875 1318.609375 372.152344 C 1319.757812 373.003906 1322.488281 373.316406 1322.855469 374.953125 C 1321.125 374.398438 1318.90625 372.519531 1317.820312 373.882812 C 1318.5625 374.925781 1321.882812 374.769531 1320.910156 376.652344 C 1319.386719 375.457031 1317.476562 374.3125 1316.234375 375.867188 C 1317.8125 377.070312 1320.265625 376.789062 1321.453125 378.558594 C 1319.714844 380.0625 1317.8125 375.941406 1316.089844 377.523438 C 1317.152344 379.40625 1319.464844 378.6875 1320.949219 379.929688 C 1319.308594 381.980469 1317.039062 377.699219 1315.226562 380.082031 C 1316.4375 381.183594 1321.023438 381 1320.515625 383.421875 C 1318.269531 382.671875 1316.339844 380.480469 1314.46875 382.140625 C 1315.996094 382.601562 1317.292969 383.578125 1318.789062 384.109375 C 1317.730469 385.433594 1315.507812 383.90625 1314.074219 383.003906 C 1312.359375 384.382812 1315.683594 385.546875 1316.269531 385.050781 C 1315.742188 385.359375 1317.15625 386.757812 1315.507812 386.175781 C 1314.558594 385.835938 1313.375 384.546875 1312.597656 385.957031 C 1313.382812 386.851562 1315.097656 386.992188 1315.476562 388.257812 C 1314.171875 389.386719 1312.585938 385.707031 1311.519531 388.050781 C 1312.332031 388.894531 1313.949219 388.324219 1314.328125 389.699219 C 1313.25 391.4375 1312.460938 387.980469 1310.761719 390.105469 C 1311.519531 390.542969 1312.132812 391.128906 1312.597656 391.867188 C 1311.972656 392.859375 1310.820312 391.222656 1310.367188 390.96875 C 1308.640625 393.128906 1311.1875 392.914062 1312.667969 393.992188 C 1311.929688 395.515625 1310.546875 394.296875 1309.648438 393.347656 C 1305.792969 393.910156 1310.476562 396.542969 1310.761719 397.488281 C 1309.277344 399.066406 1309.085938 394.789062 1307.125 397.242188 C 1308.523438 397.875 1310.457031 398.308594 1311.335938 399.71875 C 1308.953125 400.457031 1308.078125 397.15625 1306.226562 399.476562 C 1307.726562 400.5 1310.261719 400.808594 1311.011719 402.710938 C 1312.546875 404.4375 1314.230469 400.003906 1314.613281 399.265625 C 1315.722656 397.113281 1316.113281 394.089844 1317.746094 392.429688 C 1317.960938 391.253906 1318.597656 388.171875 1319.832031 387.601562 C 1320.539062 384.914062 1322.367188 383.289062 1323.886719 381.097656 C 1325.480469 378.808594 1326.339844 375.949219 1327.699219 373.503906 C 1329.085938 371.007812 1330.835938 368.476562 1330.992188 365.5 C 1333.972656 363.667969 1330.558594 363.066406 1328.652344 362.15625 C 1327.480469 363.902344 1329.894531 362.75 1328.652344 362.15625 Z M 1325.738281 359.535156 C 1326.132812 360.441406 1327.105469 359.285156 1326.816406 358.921875 C 1326.507812 359.582031 1326.023438 358.644531 1325.738281 359.535156 Z M 1324.585938 358.023438 C 1325.570312 357.570312 1324.898438 356.070312 1324.769531 355.214844 C 1323.714844 356.265625 1324.246094 357.132812 1324.585938 358.023438 Z M 1320.375 355.546875 C 1321.59375 355.246094 1321.066406 350.894531 1320.304688 350.472656 C 1320.339844 352.164062 1320.246094 353.859375 1320.375 355.546875 C 1322.523438 355.015625 1320.246094 353.871094 1320.375 355.546875 Z M 1335.742188 365.457031 C 1335.882812 365.015625 1338.019531 363.851562 1336.101562 362.789062 C 1335.265625 363.703125 1336.171875 364.484375 1335.742188 365.457031 C 1335.988281 364.691406 1336.148438 364.53125 1335.742188 365.457031 Z M 1332.324219 361.246094 C 1332.910156 361.761719 1333.5625 362.179688 1334.269531 362.503906 C 1334.496094 361.671875 1334.207031 361.046875 1333.402344 360.632812 C 1333.179688 361.109375 1332.820312 361.3125 1332.324219 361.246094 C 1333.003906 361.964844 1332.703125 361.191406 1332.324219 361.246094 Z M 1325.992188 354.421875 C 1326.121094 355.117188 1326.253906 355.8125 1326.386719 356.507812 C 1326.601562 356.136719 1326.914062 355.992188 1327.320312 356.074219 C 1326.519531 355.457031 1327.414062 354.6875 1326.925781 353.988281 C 1326.683594 354.742188 1326.230469 353.664062 1325.992188 354.421875 C 1326.164062 355.113281 1326.234375 353.660156 1325.992188 354.421875 Z M 1315.445312 353.976562 C 1314.414062 355.265625 1315.816406 355.757812 1316.882812 356.601562 C 1317.9375 355.890625 1315.960938 353.261719 1315.855469 352.453125 C 1315.308594 348.269531 1315.214844 343.949219 1313.25 340.117188 C 1314 344.734375 1313.96875 349.496094 1315.445312 353.976562 C 1315.253906 354.214844 1313.949219 349.441406 1315.445312 353.976562 Z M 1333.765625 356.492188 C 1333.453125 357.320312 1332.851562 356.460938 1332.539062 357.289062 C 1333.359375 358.140625 1334.039062 357.414062 1334.808594 357.03125 C 1334.433594 356.902344 1334.085938 356.722656 1333.765625 356.492188 C 1333.425781 357.390625 1334.152344 357.046875 1333.765625 356.492188 Z M 1327.828125 353.226562 C 1328.707031 353.90625 1327.566406 354.710938 1328.867188 355.242188 C 1329.472656 354.199219 1329.152344 353.152344 1328.691406 352.144531 C 1328.402344 352.507812 1328.113281 352.867188 1327.828125 353.226562 C 1328.632812 353.847656 1328.113281 352.867188 1327.828125 353.226562 Z M 1304.289062 333.257812 C 1304.898438 334.703125 1302.691406 333.515625 1303.589844 336.222656 C 1304.324219 338.425781 1304.699219 340.722656 1305 343.019531 C 1305.664062 348.027344 1307.066406 353.179688 1306.734375 358.242188 C 1309.003906 355.398438 1307.554688 354.179688 1307.21875 350.707031 C 1307.097656 349.484375 1307.328125 345 1306.332031 344.207031 C 1305.753906 343.75 1305.574219 339.5 1305.304688 338.4375 C 1305.128906 337.761719 1304.78125 336.410156 1305.941406 336.351562 C 1305.628906 335.203125 1304.710938 334.085938 1305.226562 332.824219 C 1304.984375 333.578125 1304.53125 332.503906 1304.289062 333.257812 C 1304.769531 334.398438 1304.53125 332.496094 1304.289062 333.257812 Z M 1334.195312 355.949219 C 1335.339844 356.867188 1337.332031 357.644531 1337.6875 356.375 C 1336.5625 356.589844 1335.285156 355.433594 1334.195312 355.949219 Z M 1342.871094 361.695312 C 1343.839844 362.558594 1344.699219 362.398438 1345.535156 362.046875 C 1344.609375 361.574219 1343.773438 361.9375 1342.871094 361.695312 Z M 1335.382812 359.261719 C 1335.234375 360.074219 1335.472656 360.757812 1336.101562 361.3125 C 1337.683594 359.546875 1339.839844 359.445312 1341.863281 358.527344 C 1339.667969 358.023438 1337.417969 358.320312 1335.382812 359.261719 C 1334.976562 360.019531 1337.460938 358.296875 1335.382812 359.261719 Z M 1306.953125 332.132812 C 1305.953125 331.734375 1307.058594 331.003906 1306.125 330.589844 C 1305.226562 332.152344 1305.480469 334.644531 1307.023438 335.734375 C 1306.472656 335.472656 1306.597656 332.949219 1307.660156 336.277344 C 1308.152344 337.820312 1307.992188 339.441406 1308.101562 341.027344 C 1308.703125 342.65625 1308.8125 344.390625 1308.976562 346.097656 C 1309.234375 348.804688 1309.453125 347.230469 1310.765625 348.765625 C 1312.234375 347.335938 1309.371094 331.84375 1307.527344 331.414062 C 1307.628906 331.886719 1307.4375 332.125 1306.953125 332.132812 C 1305.890625 331.710938 1307.140625 332.5 1306.953125 332.132812 Z M 1329.949219 353.152344 C 1330.449219 353.558594 1330.9375 353.558594 1331.425781 353.148438 C 1331.140625 352.828125 1329.289062 350.851562 1331.316406 350.699219 C 1331.699219 351.09375 1331.574219 352.410156 1332.46875 352.207031 C 1332.425781 351.320312 1332.222656 350.46875 1331.855469 349.65625 C 1331.203125 350.257812 1330.027344 350.894531 1329.820312 351.851562 C 1329.628906 352.742188 1330.699219 352.542969 1329.949219 353.152344 C 1330.496094 353.648438 1330.300781 352.867188 1329.949219 353.152344 Z M 1346.183594 361.972656 C 1347.160156 362.925781 1348.085938 363.363281 1348.882812 362.652344 C 1348.226562 361.734375 1347.121094 361.46875 1346.183594 361.972656 Z M 1319.332031 341.722656 C 1317.8125 341.882812 1316.25 341.347656 1314.761719 341.914062 C 1315.21875 342.6875 1315.496094 341.683594 1315.949219 342.269531 C 1315.902344 343.574219 1316.605469 344.722656 1316.757812 345.992188 C 1316.976562 347.875 1317.144531 352.285156 1318.539062 353.789062 C 1318.375 351.074219 1317.609375 348.390625 1317.964844 345.652344 C 1318.78125 346.683594 1318.964844 348.75 1319.117188 350.113281 C 1318.886719 349.210938 1318.625 342.230469 1319.371094 342.046875 C 1319.769531 344.734375 1319.875 347.457031 1320.265625 350.148438 C 1322.167969 349.246094 1320.03125 344.273438 1320.234375 342.441406 C 1322.152344 346.191406 1321.714844 350.476562 1322.714844 354.464844 C 1323.1875 353.96875 1323.75 353.628906 1324.40625 353.453125 C 1322.570312 351.988281 1323.558594 349.121094 1323.382812 346.84375 C 1323.289062 345.574219 1323.113281 344.316406 1322.851562 343.074219 C 1322.253906 340.230469 1321.679688 341.476562 1319.332031 341.722656 C 1317.796875 341.882812 1320.363281 341.613281 1319.332031 341.722656 Z M 1372.703125 382.265625 C 1372.929688 381.734375 1372.453125 380.445312 1371.699219 380.574219 C 1372.46875 381.085938 1371.964844 381.746094 1372.703125 382.265625 Z M 1371.195312 381.941406 C 1371.269531 381.054688 1370.851562 379.363281 1369.898438 379.136719 C 1369.570312 380.050781 1369.953125 381.75 1371.195312 381.941406 Z M 1319.945312 338.371094 C 1317.460938 337.722656 1316.632812 335.519531 1314.367188 333.917969 C 1311.953125 336.839844 1318.132812 340.144531 1319.945312 338.371094 Z M 1333.511719 351.273438 C 1334.363281 350.296875 1333.746094 349.496094 1333.226562 348.679688 C 1332.953125 349.585938 1332.925781 350.464844 1333.511719 351.273438 Z M 1366.082031 375.796875 C 1368.324219 379.203125 1368.492188 383.449219 1370.511719 386.960938 C 1372.175781 389.855469 1372.195312 395.632812 1375.296875 398.210938 C 1372.902344 395.03125 1373.089844 390.457031 1371.527344 386.917969 C 1369.851562 383.132812 1369.476562 378.152344 1366.625 374.75 C 1366.394531 375.074219 1366.214844 375.421875 1366.082031 375.796875 C 1368.757812 379.867188 1366.503906 375.417969 1366.082031 375.796875 Z M 1371.230469 379.3125 C 1371.980469 378.886719 1371.101562 377.816406 1370.761719 378.054688 C 1370.6875 378.5 1371.011719 378.898438 1371.230469 379.3125 Z M 1350.25 361.675781 C 1349.566406 362.320312 1350.71875 362.65625 1350.429688 363.296875 C 1350.996094 363.078125 1351.582031 362.953125 1352.191406 362.933594 C 1351.644531 362.351562 1351 361.933594 1350.25 361.675781 C 1349.589844 362.296875 1350.84375 361.628906 1350.25 361.675781 Z M 1309.003906 329.933594 C 1309.160156 330.488281 1308.992188 330.949219 1308.5 331.304688 C 1309.1875 333.042969 1309.757812 334.824219 1310.25 336.628906 C 1311.222656 340.179688 1311.898438 343.808594 1312.746094 347.390625 C 1313.570312 344.171875 1312.316406 341.03125 1311.335938 338.011719 C 1310.773438 336.289062 1310.277344 334.507812 1310.308594 332.675781 C 1310.335938 331.167969 1311.582031 328.761719 1309.003906 329.933594 C 1309.171875 330.351562 1309.574219 329.675781 1309.003906 329.933594 Z M 1295.21875 337.238281 C 1297.667969 339.609375 1299.289062 342.847656 1302.128906 344.820312 C 1302.289062 344.070312 1301.089844 342.4375 1302.308594 342.011719 C 1303.253906 348.242188 1304.34375 354.464844 1304.714844 360.769531 C 1307.003906 357.90625 1304.472656 349.667969 1304.070312 346.078125 C 1303.742188 343.125 1304.332031 336.4375 1301.011719 334.777344 C 1299.988281 336.015625 1301.03125 335.765625 1299.394531 336.4375 C 1299.601562 335.109375 1299.78125 333.777344 1299.933594 332.4375 C 1300.757812 332.332031 1301.367188 331.902344 1301.761719 331.148438 C 1302.128906 330.480469 1302.613281 329.910156 1303.207031 329.441406 C 1303.203125 328.761719 1302.117188 328.273438 1302.671875 327.535156 C 1302.957031 327.019531 1303.398438 328.332031 1303.640625 327.425781 C 1303.636719 326.171875 1304.15625 324.882812 1303.714844 323.640625 C 1300.300781 327.839844 1297.902344 332.578125 1295.21875 337.238281 C 1297.699219 339.636719 1298.011719 332.386719 1295.21875 337.238281 Z M 1334.378906 348.710938 C 1334.6875 349.058594 1335 349.40625 1335.3125 349.753906 C 1335.867188 348.925781 1335.78125 348.171875 1335.058594 347.488281 C 1334.832031 347.894531 1334.605469 348.300781 1334.378906 348.710938 C 1335.03125 349.019531 1334.945312 348.265625 1334.378906 348.710938 Z M 1326.820312 351.535156 C 1328.390625 349.875 1329.257812 351.046875 1328.621094 348.132812 C 1328.007812 345.328125 1328.039062 342.378906 1326.820312 339.726562 C 1324.921875 342.058594 1322.863281 339.300781 1323.671875 343.253906 C 1324.347656 346.539062 1324.632812 349.894531 1324.875 353.234375 C 1326.300781 351.449219 1325.453125 344.660156 1324.804688 342.25 C 1326.140625 345.183594 1325.964844 348.476562 1326.820312 351.535156 C 1327.550781 350.765625 1325.960938 348.464844 1326.820312 351.535156 Z M 1369.609375 375.070312 C 1370.738281 374.394531 1370.785156 373.839844 1369.753906 373.410156 C 1368.976562 373.945312 1368.929688 374.496094 1369.609375 375.070312 C 1369.898438 374.707031 1368.714844 374.621094 1369.609375 375.070312 Z M 1353.992188 361.417969 C 1353.582031 361.683594 1353.175781 361.945312 1352.765625 362.210938 C 1353.449219 362.859375 1354.253906 363.207031 1355.179688 363.253906 C 1356.265625 361.847656 1354.757812 362.125 1353.992188 361.417969 C 1353.578125 361.640625 1354.90625 362.257812 1353.992188 361.417969 Z M 1338.910156 352.628906 C 1338.21875 353.664062 1336.988281 353.597656 1336.355469 354.722656 C 1338.113281 355.695312 1340.351562 356.875 1342.402344 356.003906 C 1341.441406 355.113281 1339.464844 355.417969 1338.765625 354.285156 C 1341.464844 354.410156 1344.1875 355.992188 1346.902344 355.167969 C 1344.519531 353.691406 1341.542969 353.4375 1338.910156 352.628906 C 1338.113281 353.820312 1341.464844 353.414062 1338.910156 352.628906 Z M 1337.078125 347.914062 C 1337.554688 347.367188 1337.109375 346.925781 1336.753906 346.472656 C 1336.363281 347.007812 1336.292969 347.507812 1337.078125 347.914062 Z M 1375.296875 380.492188 C 1373.976562 379.714844 1371.839844 372.089844 1370.90625 373.441406 C 1372.210938 375.527344 1372.511719 377.980469 1373.460938 380.207031 C 1372.460938 381.460938 1374.972656 383.226562 1373.210938 383.84375 C 1374.175781 384.683594 1374.179688 388.054688 1374.691406 389.582031 C 1375.675781 392.503906 1376.609375 395.449219 1377.925781 398.238281 C 1379.4375 395.636719 1374.648438 391.921875 1375.765625 389.132812 C 1377.84375 390.792969 1377.746094 395.289062 1378.960938 397.796875 C 1379.515625 398.949219 1379.066406 401.613281 1380.988281 400.730469 C 1383.664062 399.496094 1379.511719 397.992188 1381.308594 396.214844 C 1382.375 396.71875 1381.640625 398.480469 1383.035156 398.484375 C 1381.097656 394.328125 1380.335938 389.730469 1378.261719 385.632812 C 1377.261719 383.65625 1376.773438 382.421875 1375.996094 380.769531 C 1375.042969 378.738281 1375.375 376.375 1373.824219 374.589844 C 1373.679688 376.675781 1374.832031 378.527344 1375.296875 380.492188 C 1372.566406 378.886719 1374.832031 378.523438 1375.296875 380.492188 Z M 1356.476562 361.628906 C 1357.21875 362.398438 1358.144531 362.679688 1358.957031 361.839844 C 1358.0625 361.503906 1358.042969 361.488281 1357.519531 360.691406 C 1357.171875 361 1356.824219 361.3125 1356.476562 361.628906 C 1357.402344 362.589844 1356.785156 360.972656 1356.476562 361.628906 Z M 1343.230469 350.167969 C 1343.953125 350.777344 1344.601562 350.726562 1345.246094 350.597656 C 1344.535156 350.117188 1343.785156 349.265625 1343.230469 350.167969 Z M 1338.375 346.289062 C 1338.777344 346.375 1339.089844 346.226562 1339.308594 345.855469 C 1338.820312 345.464844 1337.910156 345.707031 1338.375 346.289062 C 1338.675781 346.066406 1338.171875 346.039062 1338.375 346.289062 Z M 1341.648438 350.675781 C 1341.222656 351.019531 1340.828125 351.394531 1340.457031 351.796875 C 1342 352.617188 1349.03125 356.242188 1349.886719 354.007812 C 1347.414062 352.144531 1344.34375 352.027344 1341.648438 350.675781 C 1341.28125 351.316406 1344.425781 352.070312 1341.648438 350.675781 Z M 1361.65625 363.992188 C 1361.9375 363.980469 1362.214844 364.007812 1362.484375 364.066406 C 1362.570312 363.65625 1362.425781 363.34375 1362.054688 363.128906 C 1361.765625 363.351562 1361.632812 363.640625 1361.65625 363.992188 C 1361.898438 363.699219 1361.457031 363.742188 1361.65625 363.992188 Z M 1364.464844 365.644531 C 1365.269531 365.996094 1365.609375 367.472656 1366.625 367.367188 C 1365.878906 366.515625 1366.222656 365.445312 1365.183594 364.742188 C 1364.945312 365.042969 1364.703125 365.34375 1364.464844 365.644531 C 1365.472656 366.082031 1364.707031 365.339844 1364.464844 365.644531 Z M 1363.207031 363.164062 C 1363.960938 363.792969 1363.484375 364.660156 1364.535156 364.816406 C 1365.261719 364.265625 1363.085938 362.578125 1363.207031 363.164062 Z M 1374.253906 372.574219 C 1376.324219 376.511719 1376.964844 380.882812 1378.878906 384.875 C 1380.9375 389.167969 1382.019531 393.835938 1383.824219 398.226562 C 1386.125 396.335938 1381.558594 388.273438 1380.726562 385.78125 C 1379.933594 383.402344 1379.105469 381.03125 1378.042969 378.757812 C 1376.996094 376.515625 1376.417969 373.882812 1375.152344 371.8125 C 1374.816406 372.023438 1374.519531 372.273438 1374.253906 372.574219 C 1375.800781 375.515625 1374.511719 371.941406 1374.253906 372.574219 Z M 1350.863281 352.421875 C 1350.195312 353.167969 1351.683594 353.472656 1351.90625 352.957031 C 1351.535156 352.566406 1351.191406 352.433594 1350.863281 352.421875 Z M 1361.441406 360.570312 C 1360.972656 361.042969 1359.109375 360.882812 1359.964844 362.054688 C 1360.847656 361.726562 1361.75 361.457031 1362.667969 361.253906 C 1362.257812 361.027344 1361.851562 360.796875 1361.441406 360.570312 C 1360.851562 361.167969 1361.886719 361.144531 1361.441406 360.570312 Z M 1340.496094 344.738281 C 1340.78125 344.535156 1342.316406 344.242188 1341.503906 343.476562 C 1341.210938 343.492188 1340.203125 344.316406 1340.496094 344.738281 Z M 1327.789062 339.617188 C 1328.308594 342.628906 1328.609375 346.40625 1329.84375 349.226562 C 1332.703125 346.679688 1329.1875 342.925781 1331.140625 340.21875 C 1331.824219 342.539062 1331.476562 345.011719 1332.253906 347.3125 C 1333.195312 345.347656 1333.097656 345.433594 1332.757812 342.800781 C 1332.390625 339.941406 1332.304688 337 1331.136719 334.316406 C 1330.523438 336.308594 1329 337.972656 1327.789062 339.617188 C 1328.042969 341.0625 1329.105469 337.828125 1327.789062 339.617188 Z M 1362.847656 359.921875 C 1363.414062 360.121094 1364.054688 360.960938 1364.539062 360.386719 C 1364.519531 359.351562 1363.292969 359.910156 1362.847656 359.921875 Z M 1347.875 349.148438 C 1348.351562 348.648438 1348.921875 349.933594 1349.347656 349.148438 C 1348.480469 347.386719 1345.347656 347.570312 1344.238281 348.90625 C 1346.261719 349.765625 1352.828125 352.910156 1354.027344 351.40625 C 1352.210938 350.085938 1349.445312 350.824219 1347.875 349.148438 C 1348.316406 348.6875 1349.367188 350.738281 1347.875 349.148438 Z M 1367.164062 361.894531 C 1369.035156 363.222656 1368.992188 365.105469 1369.863281 367 C 1370.28125 365.789062 1373.171875 365.730469 1372.347656 364.257812 C 1370.082031 367.578125 1369.699219 360.5 1369.433594 360.15625 C 1368.789062 361.085938 1367.722656 360.796875 1367.164062 361.894531 C 1369.355469 363.449219 1367.839844 360.566406 1367.164062 361.894531 Z M 1365.507812 358.796875 C 1365.96875 359.492188 1367.671875 358.933594 1366.914062 358.148438 C 1366.480469 358.707031 1365.917969 358.0625 1365.507812 358.796875 Z M 1365.472656 370.289062 C 1364.789062 370.691406 1365.941406 370.894531 1365.253906 371.296875 C 1364.421875 370.328125 1362.539062 370.957031 1362.398438 372.210938 C 1362.152344 374.433594 1367.769531 372.652344 1368.734375 372.335938 C 1370.90625 371.632812 1374.449219 371.5 1375.914062 369.773438 C 1377.175781 368.285156 1377.285156 363.605469 1375.046875 366.414062 C 1376.738281 367.761719 1375.097656 368.761719 1373.515625 369.449219 C 1371.414062 370.363281 1367.066406 373.175781 1366.050781 371.042969 C 1369.09375 370.238281 1373.433594 369.660156 1375.046875 366.414062 C 1371.632812 367.109375 1368.867188 369.523438 1365.472656 370.289062 C 1364.785156 370.691406 1368.726562 369.554688 1365.472656 370.289062 Z M 1347.1875 347.425781 C 1348.816406 348.046875 1355.199219 351.144531 1356.441406 349.492188 C 1354.039062 348.4375 1349.800781 345.363281 1347.1875 347.425781 C 1349.1875 348.191406 1349.507812 345.59375 1347.1875 347.425781 Z M 1344.636719 342.136719 C 1344.941406 341.703125 1346.894531 341.175781 1345.105469 340.441406 C 1344.554688 340.917969 1344.398438 341.480469 1344.636719 342.136719 C 1345.011719 341.597656 1344.539062 341.597656 1344.636719 342.136719 Z M 1367.632812 358.722656 C 1368.128906 359.253906 1368.5625 359.207031 1368.929688 358.574219 C 1368.429688 358.042969 1368 358.089844 1367.632812 358.722656 Z M 1322.898438 322.125 C 1322.121094 323.039062 1323.527344 323.613281 1323.976562 322.988281 C 1323.835938 322.433594 1323.476562 322.144531 1322.898438 322.125 C 1322.691406 322.367188 1323.136719 322.082031 1322.898438 322.125 Z M 1329.734375 327.585938 C 1328.65625 325.726562 1326.277344 323.894531 1324.011719 324.757812 C 1320.207031 326.207031 1326.355469 331.246094 1327.757812 333.386719 C 1328.710938 331.59375 1329.582031 329.640625 1329.734375 327.585938 C 1328.058594 324.6875 1329.597656 329.457031 1329.734375 327.585938 Z M 1325.09375 322.695312 C 1325.5 323.089844 1325.945312 323.148438 1326.425781 322.875 C 1326.011719 322.171875 1325.566406 322.113281 1325.09375 322.695312 C 1325.542969 322.78125 1325.304688 322.625 1325.09375 322.695312 Z M 1346.328125 339.644531 C 1346.570312 339.839844 1346.808594 340.027344 1347.046875 340.21875 C 1347.542969 339.785156 1347.652344 339.277344 1347.371094 338.710938 C 1346.960938 338.949219 1346.613281 339.265625 1346.328125 339.644531 C 1346.566406 339.835938 1346.636719 338.992188 1346.328125 339.644531 Z M 1353.488281 345.070312 C 1353.007812 344.761719 1351.800781 343.175781 1351.078125 344.03125 C 1351.90625 346.535156 1355.75 345.097656 1357.015625 347.292969 C 1355.683594 347.785156 1350.257812 344.332031 1349.492188 346.015625 C 1352.074219 346.742188 1354.660156 347.445312 1357.015625 348.769531 C 1357.0625 348.621094 1358.34375 346.730469 1358.5625 346.464844 C 1357.066406 345.6875 1355.261719 344.699219 1353.488281 345.070312 C 1352.664062 344.546875 1355.09375 344.738281 1353.488281 345.070312 Z M 1371.59375 357.453125 C 1371.785156 357.046875 1372.703125 356.5625 1371.953125 356.261719 C 1371.503906 356.609375 1371.007812 356.882812 1371.59375 357.453125 Z M 1352.230469 342.585938 C 1354.605469 343.808594 1356.96875 344.914062 1359.175781 344.585938 C 1356.847656 343.8125 1354.429688 342.21875 1352.230469 342.585938 Z M 1319.371094 313.992188 C 1319.230469 312.96875 1319.367188 311.917969 1318.867188 310.933594 C 1318.363281 312.03125 1319.089844 312.988281 1319.371094 313.992188 Z M 1348.992188 335.570312 C 1349.394531 336.140625 1349.683594 336.765625 1349.855469 337.441406 C 1350.691406 336.410156 1349.96875 335.488281 1349.527344 334.527344 C 1349.402344 334.902344 1349.222656 335.25 1348.992188 335.570312 C 1349.84375 336.132812 1349.546875 335.183594 1348.992188 335.570312 Z M 1320.089844 311.617188 C 1319.542969 311.335938 1320.320312 310.078125 1319.296875 310.394531 C 1319.328125 310.433594 1319.457031 312.0625 1320.089844 311.617188 C 1319.542969 311.335938 1319.515625 312.023438 1320.089844 311.617188 Z M 1373.824219 353.921875 C 1371.726562 356.546875 1374.464844 354.980469 1375.550781 354.707031 C 1374.976562 354.445312 1374.402344 354.179688 1373.824219 353.921875 C 1373.535156 354.28125 1374.445312 354.609375 1373.824219 353.921875 Z M 1353.847656 337.976562 C 1354.785156 338.738281 1355.09375 338.375 1354.785156 337.539062 C 1354.542969 338.300781 1354.09375 337.214844 1353.847656 337.976562 Z M 1346.292969 334.894531 C 1348.597656 333.464844 1346.820312 330.253906 1345.5 329.242188 C 1345.992188 331.101562 1345.8125 333.035156 1346.292969 334.894531 Z M 1355.21875 338.476562 C 1356.351562 339.160156 1359.234375 339.125 1359.570312 340.773438 C 1357.617188 341.746094 1355.835938 338.765625 1353.886719 339.773438 C 1355.777344 340.878906 1358 341.125 1359.894531 342.210938 C 1362.304688 339.371094 1357.210938 338.566406 1355.21875 338.476562 C 1356.511719 339.261719 1356.976562 338.558594 1355.21875 338.476562 Z M 1354.820312 336.386719 C 1356.382812 337.382812 1358.589844 338.128906 1360.796875 338.5 C 1359.367188 336.976562 1356.621094 336.332031 1354.820312 336.386719 Z M 1375.804688 352.546875 C 1376.882812 353.925781 1378.191406 352.441406 1378.792969 351.386719 C 1377.558594 350.292969 1376.484375 351.636719 1375.804688 352.546875 C 1376.25 353.117188 1376.710938 351.339844 1375.804688 352.546875 Z M 1353.382812 333.761719 C 1355.082031 335.917969 1357.808594 335.730469 1360.222656 336.269531 C 1360.433594 335.757812 1354.511719 333.136719 1353.382812 333.761719 C 1355.164062 336.027344 1355.390625 332.648438 1353.382812 333.761719 Z M 1353.132812 331.492188 C 1353.171875 333.34375 1356.570312 333.664062 1357.953125 333.570312 C 1356.910156 332.085938 1354.691406 332.746094 1353.132812 331.492188 Z M 1344.636719 339.183594 C 1346.089844 338.003906 1345.023438 335.371094 1345.183594 333.746094 C 1345.300781 332.570312 1344.511719 327.683594 1345.535156 328.089844 C 1343.390625 324.421875 1341.160156 320.800781 1338.914062 317.191406 C 1337.511719 317.125 1335.804688 314.949219 1334.597656 313.746094 C 1334.339844 315.101562 1334.445312 316.394531 1335.496094 317.414062 C 1335.988281 320.207031 1336.539062 322.988281 1337.097656 325.765625 C 1338.222656 331.316406 1339.390625 336.867188 1340.242188 342.46875 C 1341.6875 340.140625 1341.226562 334.726562 1340.558594 332.316406 C 1340.242188 331.167969 1338.367188 323.496094 1339.273438 323.382812 C 1340.640625 329.117188 1341.433594 334.972656 1342.835938 340.699219 C 1343.453125 338.351562 1342.6875 335.886719 1343.519531 333.566406 C 1344.328125 335.386719 1343.296875 337.511719 1344.636719 339.183594 C 1345.496094 338.484375 1343.230469 337.429688 1344.636719 339.183594 Z M 1323.007812 314.238281 C 1322.574219 313.894531 1321.21875 311.167969 1320.703125 311.21875 C 1321.140625 312.714844 1321.882812 314.109375 1322.179688 315.644531 C 1320.746094 314.691406 1320.96875 313.445312 1320.308594 312.082031 C 1319.042969 313.109375 1321.066406 315.035156 1320.773438 316.296875 C 1319.019531 314.898438 1320.402344 316.507812 1320.199219 317.019531 C 1318.613281 317 1320.0625 318.679688 1318.257812 317.238281 C 1317.421875 317.675781 1318.804688 317.8125 1318.363281 318.210938 C 1316.925781 316.34375 1316.8125 314.085938 1316.347656 311.875 C 1317.480469 313.492188 1317.230469 315.578125 1318.257812 317.238281 C 1319.308594 315.925781 1317.144531 314.988281 1317.859375 313.675781 C 1318.550781 314.179688 1318.203125 315.921875 1319.261719 315.976562 C 1318.921875 313.742188 1317.261719 312.625 1315.628906 311.300781 C 1314.75 314.128906 1317.636719 319.46875 1319.550781 321.519531 C 1323.070312 318.730469 1327.839844 320.402344 1329.84375 324.125 C 1329.8125 321.675781 1329.203125 319.273438 1329.199219 316.816406 C 1329.976562 319.023438 1330.199219 321.363281 1330.472656 323.671875 C 1330.738281 325.960938 1332 327.507812 1332.316406 329.589844 C 1332.652344 331.769531 1332.324219 333.746094 1332.777344 336.097656 C 1333.394531 339.304688 1333.785156 342.546875 1334.378906 345.757812 C 1334.902344 346.074219 1335.140625 344.960938 1335.671875 345.613281 C 1336.332031 336.847656 1334.105469 326.789062 1332.003906 318.464844 C 1333.507812 322.597656 1334.164062 327.078125 1335.160156 331.351562 C 1335.984375 334.890625 1335.324219 341.496094 1337.507812 344.421875 C 1339.324219 343.574219 1339.339844 337.570312 1337.976562 336.820312 C 1338.214844 331.226562 1336.667969 325.792969 1335.351562 320.421875 C 1334.765625 318.027344 1334.210938 315.617188 1333.878906 313.167969 C 1331.167969 311.480469 1328.394531 309.859375 1325.464844 308.574219 C 1322.886719 307.449219 1320.144531 306.558594 1317.320312 306.386719 C 1315.785156 306.292969 1313.019531 308.703125 1314.078125 310.660156 C 1315.851562 310.519531 1316.109375 308.582031 1317.984375 308.378906 C 1318.890625 308.175781 1319.710938 308.367188 1320.449219 308.949219 C 1320.800781 308.59375 1321.207031 308.332031 1321.675781 308.15625 C 1322.808594 308.835938 1324.4375 313.804688 1324.445312 315.386719 C 1323.660156 315.015625 1323.765625 313.277344 1322.898438 313.269531 C 1322.933594 313.589844 1322.96875 313.914062 1323.007812 314.238281 C 1322.527344 313.855469 1322.976562 313.914062 1323.007812 314.238281 Z M 1378.539062 349.121094 C 1378.742188 349.480469 1378.949219 349.839844 1379.152344 350.199219 C 1379.65625 350.105469 1379.898438 349.800781 1379.871094 349.296875 C 1379.496094 349.828125 1378.871094 348.128906 1378.539062 349.121094 C 1378.476562 349.511719 1378.867188 348.140625 1378.539062 349.121094 Z M 1351.90625 329.335938 C 1351.992188 330.949219 1356.9375 332.613281 1357.652344 331.96875 C 1357.652344 331.972656 1352.457031 329.660156 1351.90625 329.335938 C 1352.042969 331.859375 1354.425781 330.820312 1351.90625 329.335938 Z M 1351.871094 327.535156 C 1351.632812 327.835938 1351.394531 328.132812 1351.152344 328.4375 C 1353.089844 328.660156 1355.40625 331.25 1357.378906 329.863281 C 1355.390625 329.492188 1353.527344 328.695312 1351.871094 327.535156 C 1351.632812 327.835938 1353.769531 328.863281 1351.871094 327.535156 Z M 1350.71875 326.023438 C 1352.953125 326.929688 1355.238281 328.308594 1357.378906 328.386719 C 1355.035156 326.492188 1352.902344 326.480469 1350.71875 326.023438 Z M 1349.316406 323.722656 C 1350.597656 325.402344 1353.082031 325.171875 1354.859375 326.375 C 1354.605469 324.183594 1350.988281 324.566406 1349.316406 323.722656 Z M 1379.402344 348.039062 C 1380.785156 349.363281 1384.007812 343.777344 1379.402344 348.039062 C 1380.015625 348.625 1380.324219 347.183594 1379.402344 348.039062 Z M 1347.949219 321.746094 C 1349.332031 322.691406 1352.390625 323.601562 1352.554688 323.355469 C 1351.28125 322.570312 1349.804688 321.203125 1347.949219 321.746094 Z M 1361.40625 344.007812 C 1359.085938 350.972656 1352.09375 356.972656 1344.742188 357.871094 C 1353.304688 356.238281 1360.746094 354.191406 1364.007812 345.300781 C 1365.476562 341.296875 1364.226562 337.273438 1363.3125 333.320312 C 1362.742188 330.863281 1359.882812 325.707031 1356.585938 325.6875 C 1359.128906 327.78125 1360.082031 330.589844 1361.300781 333.519531 C 1362.109375 335.480469 1362.714844 335.605469 1362.214844 337.746094 C 1361.730469 339.804688 1361.625 341.914062 1361.40625 344.007812 C 1358.757812 351.964844 1361.675781 341.40625 1361.40625 344.007812 Z M 1356.550781 322.410156 C 1356.4375 322.730469 1357.824219 324.144531 1358.132812 323.382812 C 1358.246094 323.0625 1356.859375 321.648438 1356.550781 322.410156 Z M 1351.367188 318.570312 C 1351.789062 318.125 1350.789062 317.011719 1350.394531 317.203125 C 1350.238281 317.714844 1350.726562 318.148438 1351.367188 318.570312 Z M 1346.6875 314.835938 C 1346.605469 315.410156 1347.9375 316.347656 1348.203125 315.15625 C 1347.660156 314.730469 1347.117188 314.261719 1346.6875 314.835938 Z M 1381.707031 345.152344 C 1382.007812 345.390625 1382.308594 345.628906 1382.605469 345.871094 C 1382.996094 344.832031 1383.488281 343.847656 1384.082031 342.914062 C 1382.492188 341.5625 1382.148438 344.246094 1381.707031 345.152344 C 1382.007812 345.390625 1382.125 344.292969 1381.707031 345.152344 Z M 1359.464844 323.558594 C 1358.242188 325.929688 1361.355469 327.464844 1362.957031 325.457031 C 1361.933594 324.464844 1360.589844 324.363281 1359.464844 323.558594 C 1359.195312 324.078125 1360.652344 324.410156 1359.464844 323.558594 Z M 1348.453125 314.472656 C 1350.007812 314.042969 1351.253906 317.449219 1352.773438 316.441406 C 1351.96875 314.957031 1350.320312 312.695312 1348.453125 314.472656 C 1349.78125 314.105469 1349.242188 313.71875 1348.453125 314.472656 Z M 1359.644531 322.226562 C 1360.175781 323.421875 1361.820312 323.804688 1362.957031 323.980469 C 1362.550781 323.707031 1360.746094 320.96875 1359.644531 322.226562 C 1360.164062 323.398438 1360.375 321.390625 1359.644531 322.226562 Z M 1352.050781 314.390625 C 1352.351562 314.628906 1352.652344 314.867188 1352.953125 315.109375 C 1353.414062 314.515625 1353.304688 314.039062 1352.628906 313.667969 C 1352.433594 313.910156 1352.242188 314.152344 1352.050781 314.390625 C 1352.351562 314.628906 1352.246094 314.148438 1352.050781 314.390625 Z M 1354.425781 313.628906 C 1353.410156 314.714844 1355.050781 317.128906 1356.335938 316.039062 C 1355.808594 315.195312 1355.804688 313.882812 1354.425781 313.628906 Z M 1371.054688 348.164062 C 1375.550781 344.027344 1375.683594 340.363281 1375.300781 334.722656 C 1375.066406 331.214844 1371.726562 325.125 1367.710938 323.933594 C 1366.191406 326.484375 1366.335938 329.847656 1364.179688 332.046875 C 1364.789062 334.675781 1365.722656 337.234375 1366.085938 339.914062 C 1366.433594 342.472656 1366.199219 345.378906 1364.789062 347.613281 C 1363.742188 349.277344 1361 351.484375 1361.335938 353.695312 C 1364.882812 352.375 1368.238281 350.75 1371.054688 348.164062 C 1373.046875 346.328125 1368.027344 350.945312 1371.054688 348.164062 Z M 1357.054688 313.660156 C 1356.039062 314.929688 1357.371094 316.203125 1358.710938 316.75 C 1358.820312 315.601562 1358.347656 313.988281 1357.054688 313.660156 C 1356.863281 313.898438 1358.382812 314 1357.054688 313.660156 Z M 1371.308594 323.855469 C 1369.296875 321.707031 1354.964844 315.820312 1353.273438 319.503906 C 1357.914062 319.335938 1362.496094 320.40625 1366.953125 321.5625 C 1370.410156 323.367188 1372.902344 326.445312 1375.664062 329.101562 C 1375.589844 326.777344 1372.957031 325.066406 1371.308594 323.855469 C 1367.078125 319.335938 1373.566406 325.515625 1371.308594 323.855469 Z M 1358.890625 313.945312 C 1359.265625 314.875 1359.589844 315.820312 1359.863281 316.785156 C 1361.9375 316.902344 1360.578125 314.402344 1360.476562 313.4375 C 1360.03125 314.28125 1359.335938 313.097656 1358.890625 313.945312 C 1359.484375 314.859375 1359.34375 313.089844 1358.890625 313.945312 Z M 1374.867188 347.074219 C 1370.621094 350.214844 1367.476562 354.175781 1362.109375 355.316406 C 1359.097656 355.957031 1357.488281 357.859375 1354.503906 357.140625 C 1354.6875 357.183594 1356.355469 358.542969 1357.917969 358.3125 C 1359.75 358.042969 1361.433594 357.183594 1363.152344 356.542969 C 1365.183594 355.789062 1364.539062 356.910156 1366.441406 355.597656 C 1368.109375 354.445312 1370.003906 353.695312 1371.765625 352.714844 C 1373.53125 351.726562 1375.128906 350.453125 1376.019531 348.585938 C 1377.527344 348.058594 1379.941406 346.675781 1379.691406 344.722656 C 1380.078125 344.476562 1380.414062 344.546875 1380.699219 344.9375 C 1381.335938 344.003906 1381.710938 342.976562 1381.828125 341.855469 C 1382.039062 338.628906 1382.601562 340.648438 1383.757812 341.472656 C 1383.980469 341.242188 1384.242188 341.160156 1384.550781 341.21875 C 1383.796875 340.921875 1384.773438 340.324219 1384.910156 340.03125 C 1384.011719 338.929688 1383.402344 339.972656 1382.390625 339.496094 C 1381.75 337.882812 1387.097656 339.15625 1385.089844 337.222656 C 1382.730469 337.269531 1379.878906 337.550781 1378.039062 335.722656 C 1381.113281 335.667969 1382.703125 336.566406 1385.0625 335.417969 C 1386.402344 334.769531 1385.179688 333.957031 1383.875 334.65625 C 1382.621094 335.328125 1380.238281 335.351562 1379.621094 333.742188 C 1381.546875 334.753906 1385.742188 333.78125 1384.550781 330.886719 C 1383.246094 331.71875 1381.738281 331.867188 1380.234375 331.855469 C 1379.25 331.816406 1378.265625 331.820312 1377.28125 331.875 C 1377.074219 331.140625 1376.679688 330.527344 1376.09375 330.039062 C 1378.117188 335.761719 1377.859375 341.71875 1374.867188 347.074219 C 1372.105469 349.117188 1378.222656 341.0625 1374.867188 347.074219 Z M 1360.1875 312.320312 C 1360.824219 311.8125 1360.652344 311.394531 1360.367188 310.988281 C 1359.917969 311.476562 1359.558594 311.953125 1360.1875 312.320312 Z M 1380.664062 325.417969 C 1380.722656 327.277344 1377.878906 327.476562 1376.632812 327.519531 C 1377.367188 327.960938 1376.867188 328.664062 1377.785156 329.027344 C 1379.15625 328.484375 1380.46875 328.128906 1381.492188 326.964844 C 1383.089844 328.242188 1379.183594 330.222656 1378.003906 329.496094 C 1376.9375 332.003906 1381.097656 331.230469 1382.417969 330.878906 C 1385.316406 330.109375 1383.117188 325.984375 1381.457031 325.164062 C 1381.238281 325.394531 1380.972656 325.480469 1380.664062 325.417969 C 1380.722656 327.191406 1380.929688 325.328125 1380.664062 325.417969 Z M 1364.433594 313.644531 C 1364.203125 314.367188 1364.800781 316.378906 1363.425781 316.382812 C 1363.09375 315.105469 1364.046875 312.402344 1361.480469 313.648438 C 1361.15625 317.148438 1363.65625 316.992188 1365.921875 318.148438 C 1368.539062 319.480469 1370.601562 321.746094 1373.464844 322.625 C 1373.082031 325.03125 1376.296875 323.703125 1377.101562 324.347656 C 1374.144531 328.753906 1379.230469 324.957031 1380.917969 324.734375 C 1376.988281 319.898438 1370.714844 314.828125 1364.433594 313.644531 C 1364.152344 314.53125 1369.519531 314.601562 1364.433594 313.644531 Z M 1362.492188 310.910156 C 1363.203125 311.402344 1363.847656 311.332031 1364.433594 310.691406 C 1363.628906 310.046875 1363.058594 309.710938 1362.492188 310.910156 C 1363.210938 311.480469 1362.800781 310.253906 1362.492188 310.910156 Z M 1360.292969 308.863281 C 1360.132812 309.242188 1360.121094 309.628906 1360.257812 310.015625 C 1361.136719 310.027344 1361.925781 309.773438 1362.636719 309.253906 C 1362.019531 308.761719 1361.117188 308.863281 1360.292969 308.863281 C 1359.902344 309.289062 1360.894531 308.863281 1360.292969 308.863281 Z M 1360.332031 306.234375 C 1360.019531 306.957031 1360.042969 307.664062 1360.402344 308.359375 C 1360.769531 307.28125 1361.441406 308.785156 1361.804688 307.707031 C 1361.460938 307.5625 1361.109375 307.429688 1360.757812 307.304688 C 1360.445312 305.847656 1361.476562 307.289062 1360.332031 306.234375 C 1360.019531 306.980469 1360.636719 306.515625 1360.332031 306.234375 Z M 1359.683594 304.832031 C 1360.574219 305.246094 1359.414062 307.011719 1361.015625 305.007812 C 1360.601562 304.691406 1360.15625 304.632812 1359.683594 304.832031 C 1360.347656 305.136719 1360.128906 304.90625 1359.683594 304.832031 Z M 1362.671875 308.101562 C 1363.273438 308.257812 1363.875 308.246094 1364.46875 308.0625 C 1364.878906 305.410156 1362.53125 307.984375 1362.671875 308.101562 C 1363.253906 307.933594 1362.453125 307.921875 1362.671875 308.101562 Z M 1361.195312 305.152344 C 1361.738281 306.066406 1364.027344 305.34375 1364.398438 304.460938 C 1363.761719 303.953125 1361.871094 304.476562 1361.195312 305.152344 C 1361.867188 306.28125 1362.03125 304.3125 1361.195312 305.152344 Z M 1317.828125 255.765625 C 1318.6875 256.589844 1319.386719 256.027344 1320.058594 255.1875 C 1319.230469 254.589844 1318.488281 254.824219 1317.828125 255.765625 Z M 1321.210938 252.269531 C 1320.863281 253.496094 1320.609375 254.714844 1321.75 255.652344 C 1322.265625 255.007812 1322.953125 252.359375 1321.210938 252.269531 C 1320.875 253.453125 1322.699219 252.347656 1321.210938 252.269531 Z M 1354.394531 289.679688 C 1348.683594 280.320312 1344.25 270.859375 1335.859375 263.480469 C 1330.289062 258.585938 1320.847656 253.0625 1313.964844 259.109375 C 1308.34375 264.050781 1305.226562 273.777344 1306.375 281.160156 C 1306.6875 283.164062 1308.6875 293.464844 1307.53125 294.503906 C 1308.59375 296.835938 1309.226562 299.324219 1309.957031 301.773438 C 1310.3125 303.007812 1310.726562 304.214844 1311.203125 305.40625 C 1311.816406 305.390625 1313.085938 305.804688 1312.820312 306.699219 C 1316.660156 301.886719 1326.003906 306.484375 1330.726562 308.808594 C 1331.726562 309.296875 1335.242188 310.664062 1336.503906 310.246094 C 1338.621094 312.335938 1341.175781 312.292969 1343.742188 313.386719 C 1345.882812 314.304688 1348.542969 312.679688 1351.058594 312.496094 C 1353.765625 312.296875 1358.796875 313.34375 1358.925781 310.066406 C 1359.203125 302.988281 1357.511719 296.007812 1354.394531 289.679688 C 1350.398438 283.136719 1357.917969 296.828125 1354.394531 289.679688 Z M 1322.96875 333.109375 C 1312.636719 319.621094 1307.449219 305.117188 1305.035156 288.402344 C 1303.707031 279.21875 1303.324219 271.183594 1307.746094 262.792969 C 1308.851562 260.699219 1310.996094 256.140625 1312.644531 254.878906 C 1313.953125 253.804688 1320.648438 252.449219 1319.84375 250.289062 C 1318.957031 251.523438 1318.421875 248.613281 1317.894531 251.042969 C 1317.820312 251.371094 1317.4375 251.785156 1317.039062 251.59375 C 1316.714844 250.421875 1318.1875 249.554688 1317.828125 248.386719 C 1316.691406 248.691406 1316.738281 250.171875 1316.277344 250.988281 C 1315.101562 253.089844 1315.234375 250.199219 1315.058594 250.011719 C 1314.238281 251.355469 1313.484375 254.769531 1311.53125 253.691406 C 1311.703125 254.15625 1309.078125 258.425781 1308.46875 258.632812 C 1307.648438 257.84375 1309.707031 256.902344 1308.6875 256.148438 C 1307.542969 256.949219 1307.667969 258.96875 1307.109375 260.113281 C 1306.800781 260.824219 1306.257812 261.210938 1305.480469 261.269531 C 1305.125 262.769531 1304.628906 264.234375 1304.132812 265.691406 C 1303.695312 266.976562 1300.628906 277.507812 1300.730469 277.558594 C 1299.40625 271.773438 1301.304688 264.84375 1304.050781 259.671875 C 1304.886719 258.101562 1305.785156 256.570312 1306.679688 255.035156 C 1307.894531 252.933594 1308.03125 254.15625 1309.261719 252.472656 C 1309.757812 252.824219 1314.261719 247.984375 1314.878906 246.914062 C 1310.375 249.597656 1307.667969 251.65625 1304.519531 255.855469 C 1301.441406 259.957031 1299.761719 264.960938 1298.808594 269.964844 C 1297.042969 279.230469 1298.539062 289.304688 1300.261719 298.441406 C 1299.351562 300.351562 1301.535156 304.015625 1301.546875 306.042969 C 1301.578125 309.90625 1303.992188 313.703125 1305.613281 317.148438 C 1307.507812 321.175781 1309.523438 325.175781 1312.195312 328.753906 C 1313.597656 330.625 1315.167969 332.367188 1316.925781 333.914062 C 1319.015625 335.75 1321.898438 339.03125 1322.644531 334.621094 C 1322.4375 335.105469 1322.089844 335.417969 1321.601562 335.558594 C 1320.3125 334.59375 1321.902344 333.15625 1322.96875 333.109375 C 1318.230469 326.921875 1322.039062 333.148438 1322.96875 333.109375 Z M 1322.539062 333.648438 C 1322.632812 333.929688 1322.546875 334.160156 1322.285156 334.335938 C 1322.757812 334.699219 1323.128906 334.601562 1323.402344 334.042969 C 1323.175781 333.753906 1322.886719 333.625 1322.539062 333.648438 C 1322.722656 333.847656 1322.785156 333.453125 1322.539062 333.648438 Z M 1323.046875 252.550781 C 1323.816406 253.667969 1323.03125 254.957031 1324.414062 256.003906 C 1326.511719 255.238281 1325.179688 249.894531 1323.046875 252.550781 Z M 1320.382812 250.722656 C 1322.171875 253.558594 1322.015625 246.472656 1320.382812 250.722656 C 1321.152344 251.941406 1320.609375 250.132812 1320.382812 250.722656 Z M 1339.421875 265.625 C 1340.023438 266.101562 1340.621094 266.582031 1341.222656 267.058594 C 1342.265625 265.421875 1340.546875 263.964844 1339.460938 262.996094 C 1339.195312 264.003906 1340.335938 264.660156 1339.421875 265.625 C 1340.023438 266.101562 1340.351562 264.644531 1339.421875 265.625 Z M 1325.855469 252.726562 C 1326.757812 254.058594 1326.234375 255.777344 1327.476562 256.972656 C 1328.546875 255.535156 1327.667969 253.601562 1326.753906 251.964844 C 1326.417969 252.175781 1326.117188 252.429688 1325.855469 252.726562 C 1326.785156 254.097656 1326.113281 252.09375 1325.855469 252.726562 Z M 1329.707031 257.867188 C 1330.09375 257.820312 1330.476562 257.832031 1330.855469 257.898438 C 1330.996094 256.226562 1329.90625 253.597656 1328.804688 252.71875 C 1328.316406 254.511719 1329.308594 256.175781 1329.707031 257.867188 C 1330.0625 257.648438 1329.308594 256.164062 1329.707031 257.867188 Z M 1331.972656 259.085938 C 1332.460938 259.324219 1332.929688 259.601562 1333.375 259.910156 C 1334.023438 258 1332.710938 254.65625 1331.359375 253.578125 C 1329.996094 255.078125 1332.121094 257.417969 1331.972656 259.085938 C 1332.46875 259.628906 1332.132812 257.277344 1331.972656 259.085938 Z M 1335.535156 261.632812 C 1335.65625 259.695312 1334.472656 256.191406 1333.699219 255.445312 C 1334.023438 257.539062 1334.574219 259.613281 1335.535156 261.632812 Z M 1318.117188 246.546875 C 1319.03125 246.386719 1320.875 246.820312 1321.070312 245.066406 C 1320.179688 245.449219 1318.339844 245.0625 1318.117188 246.546875 Z M 1336.652344 262.820312 C 1337.070312 263.15625 1337.492188 263.492188 1337.910156 263.828125 C 1339.292969 262.28125 1336.148438 258.054688 1335.753906 256.199219 C 1334.949219 258.515625 1337.289062 260.503906 1336.652344 262.820312 C 1337.070312 263.15625 1337.289062 260.507812 1336.652344 262.820312 Z M 1338.34375 257.378906 C 1336.820312 258.8125 1338.613281 260.734375 1340.25 261.265625 C 1339.90625 259.800781 1340.417969 258.214844 1338.34375 257.378906 Z M 1323.585938 245.601562 C 1323.839844 245.953125 1326.539062 247.875 1327.257812 246.167969 C 1326.011719 247.027344 1324.816406 244.625 1323.585938 245.601562 C 1323.695312 245.753906 1324.695312 244.722656 1323.585938 245.601562 Z M 1329.347656 247.246094 C 1330.277344 247.753906 1331.285156 248.964844 1332.117188 248.570312 C 1331.867188 248.3125 1330.101562 247.085938 1329.347656 247.246094 Z M 1333.917969 250.007812 C 1334.507812 251.324219 1337.320312 252.148438 1337.804688 252.519531 C 1336.527344 251.855469 1335.074219 249.601562 1333.917969 250.007812 Z M 1338.054688 253.3125 C 1342.621094 258.359375 1349.621094 263.25 1351.40625 270.171875 C 1349.742188 267.5 1347.199219 265.933594 1345.109375 263.667969 C 1344.417969 264.203125 1345.410156 264.933594 1343.921875 264.785156 C 1342.789062 262.257812 1343.148438 261.550781 1341.222656 259.679688 C 1341.097656 263.121094 1344.460938 265.886719 1346.683594 268.042969 C 1348 269.324219 1349.351562 270.609375 1350.421875 272.113281 C 1351.613281 273.789062 1350.382812 274.808594 1352.414062 276.289062 C 1354.070312 279.628906 1356.105469 282.199219 1357.328125 285.640625 C 1357.988281 287.488281 1357.234375 288.082031 1358.671875 289.796875 C 1359.632812 290.957031 1360.714844 292.363281 1359.613281 293.847656 C 1359.105469 293.523438 1357.125 289.628906 1357.632812 289.316406 C 1355.316406 287.335938 1356.117188 286.9375 1354.972656 285.269531 C 1354.285156 284.277344 1353.589844 283.273438 1352.972656 281.75 C 1351.863281 279 1350.441406 276.480469 1348.496094 273.75 C 1346.789062 271.34375 1346.265625 267.90625 1343.023438 267.019531 C 1341.574219 268.800781 1345.503906 273.34375 1346.867188 275.191406 C 1349.253906 278.4375 1350.789062 281.59375 1352.558594 284.96875 C 1353.859375 287.449219 1355.363281 289.398438 1356.617188 292.121094 C 1357.34375 293.695312 1357.527344 295.46875 1358.351562 297.003906 C 1360.085938 300.238281 1360.496094 297.746094 1362.707031 298.089844 C 1362.164062 299.667969 1363.828125 299.574219 1361.925781 300.390625 C 1360.664062 300.933594 1358.996094 299.53125 1359.363281 301.890625 C 1359.707031 304.113281 1362.703125 304.851562 1363.894531 302.878906 C 1363.605469 302.644531 1358.933594 302.832031 1360.296875 301.480469 C 1365.015625 303.707031 1364.128906 298.882812 1363.285156 295.894531 C 1361.78125 298.015625 1358.804688 295.851562 1360.367188 294.746094 C 1365.136719 298.246094 1361.339844 287.402344 1360.730469 285.609375 C 1359.015625 280.585938 1356.503906 274.78125 1353.625 270.519531 C 1351.339844 267.136719 1349.894531 263.335938 1347.015625 260.167969 C 1345.984375 259.035156 1338.390625 252.3125 1338.054688 253.3125 C 1343.082031 258.863281 1338.386719 252.328125 1338.054688 253.3125 Z M 1376.492188 317.363281 C 1377.359375 319.429688 1379.253906 320.855469 1380.882812 322.289062 C 1383.179688 324.3125 1383.929688 326.121094 1385.1875 328.742188 C 1387.589844 333.742188 1387.183594 338.242188 1385.808594 343.703125 C 1382.835938 348.015625 1381.425781 352.605469 1376.675781 355.449219 C 1372.367188 358.035156 1371.730469 362.53125 1377.230469 364.140625 C 1379.292969 364.746094 1379.09375 366.722656 1378.371094 368.644531 C 1377.992188 369.632812 1377.449219 370.519531 1376.738281 371.304688 C 1377.25 372.941406 1377.949219 374.507812 1378.644531 376.074219 C 1379.777344 378.632812 1380.980469 381.257812 1381.269531 384.082031 C 1382.828125 386.570312 1383.925781 389.300781 1384.703125 392.128906 C 1385.214844 393.988281 1385.253906 395.96875 1387.136719 397.03125 C 1386.078125 399.742188 1383.09375 400.988281 1380.796875 402.40625 C 1377.328125 404.550781 1372.898438 400.882812 1370.148438 405.027344 C 1368.445312 403.804688 1369.660156 401.234375 1367.5 400.863281 C 1364.453125 400.335938 1364.425781 404.253906 1365.867188 406.332031 C 1363.710938 406.699219 1360.242188 408.914062 1358.878906 406.902344 C 1357.683594 405.140625 1357.707031 403.003906 1357.015625 401.0625 C 1356.402344 399.324219 1354.371094 397.207031 1356.113281 395.300781 C 1359.027344 394.714844 1361.878906 393.839844 1364.644531 392.746094 C 1365.78125 392.292969 1366.902344 391.8125 1368.007812 391.292969 C 1371.261719 389.769531 1368.402344 390.296875 1369.753906 388.175781 C 1368.082031 386.039062 1367.5625 383.445312 1366.753906 380.925781 C 1366.191406 379.152344 1365.242188 376.929688 1364.433594 375.546875 C 1363.746094 374.367188 1361.175781 374.796875 1360.207031 372.667969 C 1359.351562 370.785156 1361.304688 369.761719 1362.304688 368.347656 C 1361.78125 366.070312 1359.316406 364.082031 1357.113281 364.339844 C 1352.066406 364.925781 1346.804688 365.597656 1342.03125 363.398438 C 1340.164062 362.535156 1337.234375 360.164062 1338.292969 364.179688 C 1339.230469 367.734375 1336.519531 366.441406 1334.125 367.113281 C 1330.507812 371.855469 1328.550781 377.40625 1325.84375 382.652344 C 1330.070312 384.183594 1334.394531 385.421875 1338.621094 386.945312 C 1342.734375 389.621094 1346.097656 389.632812 1344.011719 395.382812 C 1342.933594 398.351562 1340.828125 400.066406 1337.964844 398.023438 C 1336.207031 396.769531 1334.242188 395.507812 1332.066406 395.144531 C 1329.449219 394.707031 1331.023438 396.296875 1329.800781 397.625 C 1332.679688 398.855469 1341.675781 399.546875 1339.800781 404.09375 C 1338.578125 407.058594 1337.09375 409.929688 1336.097656 412.988281 C 1334.320312 414.246094 1333.636719 411.976562 1331.851562 413.140625 C 1330.242188 412.78125 1325.472656 412.183594 1326.058594 409.699219 C 1323.519531 410.128906 1321.050781 409.796875 1318.859375 408.382812 C 1319.222656 408.105469 1320.390625 405 1320.796875 404.101562 C 1321.898438 401.683594 1317.785156 401.003906 1315.835938 400.355469 C 1315.695312 401.972656 1314.410156 403.574219 1313.289062 404.648438 C 1311.824219 406.058594 1307.996094 403.613281 1306.359375 402.78125 C 1304.53125 401.847656 1301.378906 400.671875 1301.808594 398.34375 C 1302.324219 395.558594 1303.648438 392.914062 1304.945312 390.425781 C 1309.835938 381.019531 1314.320312 371.257812 1320.160156 362.464844 C 1317.289062 362.417969 1315.734375 356.984375 1312.703125 358.074219 C 1309.8125 359.117188 1307.980469 364.769531 1305.761719 367.210938 C 1305.078125 370.769531 1300.902344 370.066406 1298.871094 372.234375 C 1297.515625 373.679688 1296.683594 376.164062 1295.382812 377.851562 C 1293.171875 380.714844 1290.855469 383.488281 1288.339844 386.085938 C 1285.027344 385.554688 1281.578125 385.25 1278.894531 383.03125 C 1274.789062 379.640625 1274.683594 377.808594 1277.464844 373.535156 C 1280.464844 368.9375 1273.03125 367.507812 1272.429688 363.660156 C 1272.078125 361.382812 1274.589844 359.328125 1275.882812 357.589844 C 1277.699219 355.160156 1279.660156 351.691406 1282.476562 353.9375 C 1283.273438 353.417969 1282.445312 352.921875 1283.121094 352.390625 C 1283.421875 352.710938 1283.515625 353.085938 1283.410156 353.503906 C 1285.222656 352.371094 1286.910156 352.023438 1288.523438 353.746094 C 1289.75 352.222656 1291.480469 351.253906 1293.300781 352.472656 C 1296.703125 354.746094 1301.027344 346.648438 1298.660156 343.628906 C 1296.679688 341.105469 1291.984375 338.90625 1293.691406 335.632812 C 1295.628906 331.90625 1300.222656 327.882812 1300.941406 323.792969 C 1304.714844 320.308594 1303.195312 316.90625 1301.132812 313.035156 C 1299.277344 309.558594 1297.484375 303.214844 1297.207031 299.324219 C 1296.480469 289.105469 1293.082031 279.296875 1296.085938 268.757812 C 1297.351562 264.316406 1299.300781 260.5625 1301.9375 256.898438 C 1303.949219 254.09375 1305.996094 251.292969 1308.378906 248.78125 C 1310.550781 246.492188 1314.320312 245.671875 1317.21875 244.351562 C 1318.171875 244.730469 1319.117188 244.710938 1320.054688 244.285156 C 1321.898438 243.667969 1323.242188 244.304688 1325.074219 244.804688 C 1328.136719 245.640625 1330.484375 246.09375 1333.089844 247.917969 C 1337.722656 251.167969 1342.53125 254.441406 1346.402344 258.613281 C 1353.667969 266.445312 1361.136719 276.410156 1364.117188 286.632812 C 1365.882812 292.6875 1367.253906 298.882812 1367.824219 305.179688 C 1368.085938 308.078125 1367.089844 312.117188 1369.632812 313.707031 C 1371.835938 315.082031 1374.09375 316.355469 1376.492188 317.363281 C 1377.917969 320.765625 1373.640625 316.164062 1376.492188 317.363281" fill-rule="evenodd"/></g></g></g><g clip-path="url(#D)"><g clip-path="url(#E)"><g clip-path="url(#F)"><path fill="#DAC6FF" d="M 1343.519531 330.613281 C 1343.621094 331.53125 1344.054688 332.414062 1343.664062 333.386719 C 1342.835938 332.550781 1343.550781 331.539062 1343.519531 330.613281" fill-rule="evenodd"/></g></g></g></svg>