<svg xmlns="http://www.w3.org/2000/svg" width="1440" viewBox="0 0 1440 810" height="810" version="1.0"><defs><clipPath id="a"><path d="M 15 240.214844 L 1425 240.214844 L 1425 461 L 15 461 Z M 15 240.214844"/></clipPath></defs><g clip-path="url(#a)"><path fill="#FF1F1F" d="M 125.570312 240.214844 L 1314.28125 240.214844 C 1374.894531 240.214844 1424.488281 289.757812 1424.488281 350.320312 C 1424.488281 410.875 1374.871094 460.421875 1314.28125 460.421875 L 125.570312 460.421875 C 64.976562 460.421875 15.359375 410.875 15.359375 350.320312 C 15.359375 289.757812 64.953125 240.214844 125.570312 240.214844 Z M 125.570312 240.214844" fill-rule="evenodd"/></g><path fill="#FFF" d="M 128.980469 260.300781 L 1275.925781 260.300781 C 1242.3125 276.335938 1219.082031 310.617188 1219.082031 350.320312 C 1219.082031 390.015625 1242.308594 424.296875 1275.925781 440.335938 L 128.980469 440.335938 C 79.433594 440.335938 38.875 399.828125 38.875 350.320312 C 38.875 300.808594 79.421875 260.300781 128.980469 260.300781 Z M 128.980469 260.300781" fill-rule="evenodd"/><path fill="#FFF" d="M 1329.878906 364.433594 L 1359.019531 396.773438 C 1361.320312 399.328125 1365.382812 399.363281 1367.875 397.058594 C 1370.449219 394.679688 1370.484375 390.660156 1368.164062 388.089844 L 1339.183594 355.921875 L 1341.628906 351.878906 C 1350.398438 337.375 1348.492188 318.703125 1336.957031 306.242188 C 1322.652344 290.789062 1298.4375 289.835938 1282.964844 304.128906 C 1267.496094 318.421875 1266.542969 342.613281 1280.851562 358.070312 C 1292.253906 370.390625 1310.472656 373.824219 1325.5625 366.519531 Z M 1329.878906 364.433594" fill-rule="evenodd"/><path fill="#FF1F1F" d="M 1336.28125 332.15625 C 1336.28125 333.050781 1336.238281 333.945312 1336.148438 334.835938 C 1336.0625 335.726562 1335.929688 336.613281 1335.753906 337.492188 C 1335.578125 338.371094 1335.363281 339.238281 1335.101562 340.09375 C 1334.839844 340.953125 1334.539062 341.792969 1334.195312 342.621094 C 1333.855469 343.449219 1333.472656 344.257812 1333.046875 345.046875 C 1332.625 345.835938 1332.164062 346.605469 1331.667969 347.347656 C 1331.167969 348.09375 1330.636719 348.8125 1330.066406 349.503906 C 1329.5 350.195312 1328.898438 350.859375 1328.261719 351.492188 C 1327.628906 352.125 1326.964844 352.726562 1326.273438 353.292969 C 1325.578125 353.863281 1324.859375 354.394531 1324.113281 354.894531 C 1323.371094 355.390625 1322.601562 355.851562 1321.8125 356.273438 C 1321.019531 356.695312 1320.210938 357.078125 1319.382812 357.421875 C 1318.554688 357.761719 1317.710938 358.066406 1316.855469 358.324219 C 1315.996094 358.585938 1315.128906 358.800781 1314.25 358.976562 C 1313.367188 359.152344 1312.484375 359.28125 1311.589844 359.371094 C 1310.699219 359.457031 1309.804688 359.503906 1308.910156 359.503906 C 1308.011719 359.503906 1307.117188 359.457031 1306.226562 359.371094 C 1305.332031 359.28125 1304.449219 359.152344 1303.566406 358.976562 C 1302.6875 358.800781 1301.820312 358.585938 1300.960938 358.324219 C 1300.105469 358.066406 1299.261719 357.761719 1298.433594 357.421875 C 1297.605469 357.078125 1296.796875 356.695312 1296.003906 356.273438 C 1295.214844 355.851562 1294.445312 355.390625 1293.699219 354.894531 C 1292.957031 354.394531 1292.238281 353.863281 1291.542969 353.292969 C 1290.851562 352.726562 1290.1875 352.125 1289.554688 351.492188 C 1288.917969 350.859375 1288.316406 350.195312 1287.75 349.503906 C 1287.179688 348.8125 1286.648438 348.09375 1286.148438 347.347656 C 1285.652344 346.605469 1285.191406 345.835938 1284.769531 345.046875 C 1284.34375 344.257812 1283.960938 343.449219 1283.621094 342.621094 C 1283.277344 341.792969 1282.976562 340.953125 1282.714844 340.09375 C 1282.453125 339.238281 1282.238281 338.371094 1282.0625 337.492188 C 1281.886719 336.613281 1281.753906 335.726562 1281.667969 334.835938 C 1281.578125 333.945312 1281.535156 333.050781 1281.535156 332.15625 C 1281.535156 331.261719 1281.578125 330.367188 1281.667969 329.476562 C 1281.753906 328.585938 1281.886719 327.699219 1282.0625 326.820312 C 1282.238281 325.941406 1282.453125 325.074219 1282.714844 324.21875 C 1282.976562 323.359375 1283.277344 322.519531 1283.621094 321.691406 C 1283.960938 320.863281 1284.34375 320.054688 1284.769531 319.265625 C 1285.191406 318.476562 1285.652344 317.707031 1286.148438 316.964844 C 1286.648438 316.21875 1287.179688 315.5 1287.75 314.808594 C 1288.316406 314.117188 1288.917969 313.453125 1289.554688 312.820312 C 1290.1875 312.1875 1290.851562 311.585938 1291.542969 311.015625 C 1292.238281 310.449219 1292.957031 309.917969 1293.699219 309.417969 C 1294.445312 308.921875 1295.214844 308.460938 1296.003906 308.039062 C 1296.796875 307.617188 1297.605469 307.234375 1298.433594 306.890625 C 1299.261719 306.550781 1300.105469 306.246094 1300.960938 305.988281 C 1301.820312 305.726562 1302.6875 305.511719 1303.566406 305.335938 C 1304.449219 305.160156 1305.332031 305.03125 1306.226562 304.941406 C 1307.117188 304.855469 1308.011719 304.808594 1308.910156 304.808594 C 1309.804688 304.808594 1310.699219 304.855469 1311.589844 304.941406 C 1312.484375 305.03125 1313.367188 305.160156 1314.25 305.335938 C 1315.128906 305.511719 1315.996094 305.726562 1316.855469 305.988281 C 1317.710938 306.246094 1318.554688 306.550781 1319.382812 306.890625 C 1320.210938 307.234375 1321.019531 307.617188 1321.8125 308.039062 C 1322.601562 308.460938 1323.371094 308.921875 1324.113281 309.417969 C 1324.859375 309.917969 1325.578125 310.449219 1326.273438 311.015625 C 1326.964844 311.585938 1327.628906 312.1875 1328.261719 312.820312 C 1328.898438 313.453125 1329.5 314.117188 1330.066406 314.808594 C 1330.636719 315.5 1331.167969 316.21875 1331.667969 316.964844 C 1332.164062 317.707031 1332.625 318.476562 1333.046875 319.265625 C 1333.472656 320.054688 1333.855469 320.863281 1334.195312 321.691406 C 1334.539062 322.519531 1334.839844 323.359375 1335.101562 324.21875 C 1335.363281 325.074219 1335.578125 325.941406 1335.753906 326.820312 C 1335.929688 327.699219 1336.0625 328.585938 1336.148438 329.476562 C 1336.238281 330.367188 1336.28125 331.261719 1336.28125 332.15625 Z M 1336.28125 332.15625"/><path d="M 209.761719 493.121094 L 252.21875 549.074219 C 256.03125 554.078125 254.453125 561.542969 249.019531 565.441406 C 243.582031 569.339844 236.007812 568.445312 232.472656 563.25 L 192.992188 505.261719 C 164.234375 529.355469 173.261719 541.242188 164.851562 512.671875 L 142.707031 437.519531 C 133.382812 405.824219 128.464844 405.453125 157.574219 424.515625 L 220.316406 465.605469 C 249.292969 484.589844 245.683594 470.347656 209.761719 493.121094 Z M 209.761719 493.121094" fill-rule="evenodd"/></svg>