<svg xmlns="http://www.w3.org/2000/svg" width="502" height="502" viewBox="0 0 502 502"><g fill="none" fill-rule="evenodd" stroke="#dac6ff" stroke-width="4"><path d="M251.003015,123.495477 C286.066699,123.495477 317.942724,137.837387 341.052309,160.946971 C364.1629,184.057563 378.504523,215.934839 378.504523,250.996985 C378.504523,286.061431 364.1635,317.938068 341.0538,341.047769 C317.944099,364.157469 286.067462,378.498492 251.003015,378.498492 L251.003015,378.498492 L151.55468,378.498492 C143.840469,378.498492 136.826238,375.344988 131.741248,370.261175 C126.655614,365.176718 123.501508,358.163265 123.501508,350.451351 L123.501508,350.451351 L123.501508,151.548649 C123.501508,143.834027 126.655336,136.81946 131.740413,131.734383 C136.825491,126.649305 143.840058,123.495477 151.55468,123.495477 L151.55468,123.495477 Z"/><path d="M449.899686,2 C463.676397,2 476.200553,7.63798493 485.281203,16.7175846 C494.361241,25.7965708 500,38.3184941 500,52.0942827 L500,52.0942827 L500,449.899686 C500,463.675968 494.36086,476.199743 485.280302,485.280302 C476.199743,494.36086 463.675968,500 449.899686,500 L449.899686,500 L251.003015,500 C182.527186,500 120.277706,471.985007 75.1463493,426.853651 C30.0149926,381.722294 2,319.472814 2,250.996985 C2,182.521586 30.0146447,120.273954 75.1455125,75.1441707 C120.276941,30.0138268 182.526769,2 251.003015,2 L251.003015,2 Z"/></g></svg>