<svg xmlns="http://www.w3.org/2000/svg" width="94" height="32" viewBox="0 0 94 32"><g fill="#031F32" fill-rule="evenodd" transform="translate(2 2)"><path d="M34.5546487 13.9973426C34.5546487 10.4646716 37.1612634 7.77227982 40.8308413 7.77227982 43.9178078 7.77227982 46.0783815 9.67585867 46.6956403 12.2481625L44.2262689 12.2481625C43.7805644 10.8592463 42.4770889 9.95034539 40.8308413 9.95034539 38.567335 9.95034539 36.9210875 11.68237 36.9210875 13.9973426 36.9210875 16.346626 38.567335 18.0443398 40.8308413 18.0443398 42.4599334 18.0443398 43.7805644 17.1525943 44.2605798 15.7808335L46.7642619 15.7808335C46.181314 18.3702928 43.9006523 20.2224054 40.8136859 20.2224054 37.1441079 20.2224054 34.5546487 17.5643244 34.5546487 13.9973426M55.1156549 15.489225C55.1156549 13.9287546 54.0523553 12.7796778 52.5776619 12.7796778 51.0858131 12.7796778 50.0396689 13.9287546 50.0396689 15.489225 50.0396689 17.0840063 51.1029686 18.1987722 52.5776619 18.1987722 54.0523553 18.1987722 55.1156549 17.0668509 55.1156549 15.489225M47.7761626 15.489225C47.7761626 12.8139886 49.7308713 10.7563474 52.5776619 10.7563474 55.4072971 10.7563474 57.3791612 12.8139886 57.3791612 15.489225 57.3791612 18.1644614 55.3901416 20.222439 52.5776619 20.222439 49.7480268 20.222439 47.7761626 18.1816168 47.7761626 15.489225"/><polygon points="59.379 16 67.379 16 67.379 13.997 59.379 13.997"/><path d="M73.3403285 18.0100962C75.4497723 18.0100962 77.1814606 16.7752424 77.1814606 13.963099 77.1814606 11.2707072 75.4669278 9.98472351 73.3403285 9.98472351L71.6597701 9.98472351 71.6597701 18.0100962 73.3403285 18.0100962ZM69.3791084 7.99536756 73.4261056 7.99536756C77.2500823 7.99536756 79.5482358 10.4647389 79.5482358 13.963099 79.5482358 17.6841433 77.2500823 19.9994522 73.4261056 19.9994522L69.3791084 19.9994522 69.3791084 7.99536756ZM87.4536215 14.5632023C87.350689 13.3458403 86.4074773 12.5398719 85.1043381 12.5398719 83.8523288 12.5398719 82.8919617 13.431281 82.7547183 14.5632023L87.4536215 14.5632023ZM80.5598337 15.5407249C80.5598337 12.6939343 82.4634126 10.756381 85.1043381 10.756381 88.0022586 10.756381 89.5802208 12.8997994 89.5802208 15.4377924L89.5802208 16.1408282 82.7207439 16.1408282C82.7893656 17.5129254 83.7322409 18.4386453 85.1729598 18.4386453 86.2702339 18.4386453 87.1105131 17.9243191 87.4193107 17.1869725L89.4944437 17.1869725C89.0484028 19.0219296 87.4364661 20.2221363 85.1043381 20.2221363 82.4462572 20.2221363 80.5598337 18.2331167 80.5598337 15.5407249L80.5598337 15.5407249ZM14.0001682 20.9999159 8.45324908 20.9999159C7.65400834 20.9999159 7.0000841 20.3459917 7.0000841 19.5470873L7.0000841 8.4529127C7.0000841 7.65367196 7.65400834 6.99974771 8.45324908 6.99974771L14.0001682 6.99974771C17.8503826 6.99974771 21.0002523 10.1499537 21.0002523 13.9998318 21.0002523 17.8500463 17.8503826 20.9999159 14.0001682 20.9999159M25.0940064 0 14.0001682 0C6.30007569 0 0 6.2997393 0 13.9998318 0 21.6999243 6.30007569 28 14.0001682 28L25.0940064 28C26.6921515 28 28 26.6921515 28 25.0940064L28 2.9056572C28 1.3075121 26.6921515 0 25.0940064 0"/></g></svg>