<svg xmlns="http://www.w3.org/2000/svg" width="32" height="32" viewBox="0 0 32 32"><path fill="#dac6ff" fill-rule="evenodd" d="M16.0001682,22.9999159 L10.4532491,22.9999159 C9.65400834,22.9999159 9.0000841,22.3459917 9.0000841,21.5470873 L9.0000841,10.4529127 C9.0000841,9.65367196 9.65400834,8.99974771 10.4532491,8.99974771 L16.0001682,8.99974771 C19.8503826,8.99974771 23.0002523,12.1499537 23.0002523,15.9998318 C23.0002523,19.8500463 19.8503826,22.9999159 16.0001682,22.9999159 M27.0940064,2 L16.0001682,2 C8.30007569,2 2,8.2997393 2,15.9998318 C2,23.6999243 8.30007569,30 16.0001682,30 L27.0940064,30 C28.6921515,30 30,28.6921515 30,27.0940064 L30,4.9056572 C30,3.3075121 28.6921515,2 27.0940064,2"/></svg>