<svg xmlns="http://www.w3.org/2000/svg" xmlns:xlink="http://www.w3.org/1999/xlink" width="1440" viewBox="0 0 1440 810" height="810" version="1.0"><defs><clipPath id="d"><path d="M 2.007812 1.574219 L 476.007812 1.574219 L 476.007812 475.574219 L 2.007812 475.574219 Z M 2.007812 1.574219"/></clipPath><clipPath id="c"><path d="M0 0H478V478H0z"/></clipPath><clipPath id="e"><path d="M 206.863281 163.941406 L 653.113281 163.941406 L 653.113281 610.191406 L 206.863281 610.191406 Z M 206.863281 163.941406"/></clipPath><clipPath id="f"><path d="M 450 114 L 498 114 L 498 160 L 450 160 Z M 450 114"/></clipPath><clipPath id="g"><path d="M 444.929688 128.074219 L 492.183594 108.886719 L 508.832031 149.886719 L 461.578125 169.074219 Z M 444.929688 128.074219"/></clipPath><clipPath id="h"><path d="M 444.929688 128.074219 L 492.183594 108.886719 L 508.832031 149.886719 L 461.578125 169.074219 Z M 444.929688 128.074219"/></clipPath><clipPath id="i"><path d="M 617 254 L 671 254 L 671 309 L 617 309 Z M 617 254"/></clipPath><clipPath id="j"><path d="M 613.746094 258.242188 L 666.585938 251.664062 L 672.886719 302.273438 L 620.046875 308.851562 Z M 613.746094 258.242188"/></clipPath><clipPath id="k"><path d="M 613.746094 258.242188 L 666.585938 251.664062 L 672.886719 302.273438 L 620.046875 308.851562 Z M 613.746094 258.242188"/></clipPath><clipPath id="l"><path d="M 615 132 L 653.164062 132 L 653.164062 170.3125 L 615 170.3125 Z M 615 132"/></clipPath><filter x="0%" y="0%" width="100%" xmlns:xlink="http://www.w3.org/1999/xlink" xlink:type="simple" xlink:actuate="onLoad" height="100%" id="a" xlink:show="other"><feColorMatrix values="0 0 0 0 1 0 0 0 0 1 0 0 0 0 1 0 0 0 1 0" color-interpolation-filters="sRGB"/></filter><mask id="b"><g filter="url(#a)"><path fill-opacity=".427" d="M-144 -81H1584V891H-144z"/></g></mask></defs><path fill="#FFF" d="M-144 -81H1584V891H-144z"/><path fill="#FFF" d="M-144 -81H1584V891H-144z"/><path fill="#FFF" d="M-144 -81H1584V891H-144z"/><g mask="url(#b)"><g><g clip-path="url(#c)" transform="translate(191 149)"><g clip-path="url(#d)"><path fill="#F5E9FF" d="M 411.820312 81.832031 C 409.941406 79.753906 408.003906 77.679688 406.054688 75.679688 L 408.699219 73.097656 C 410.679688 75.144531 412.648438 77.25 414.554688 79.339844 Z M 392.96875 63.242188 L 395.398438 60.476562 C 397.519531 62.335938 399.65625 64.289062 401.734375 66.242188 L 399.195312 68.929688 C 397.152344 66.992188 395.058594 65.085938 392.96875 63.242188 Z M 423.425781 95.667969 C 421.703125 93.4375 419.921875 91.238281 418.136719 89.085938 L 420.964844 86.734375 C 422.796875 88.902344 424.59375 91.148438 426.347656 93.40625 Z M 378.949219 51.867188 L 381.160156 48.914062 C 383.4375 50.621094 385.695312 52.386719 387.910156 54.171875 L 385.605469 57.046875 C 383.421875 55.277344 381.191406 53.542969 378.949219 51.867188 Z M 433.910156 110.351562 C 432.375 108.027344 430.773438 105.675781 429.160156 103.402344 L 432.175781 101.265625 C 433.820312 103.570312 435.433594 105.953125 437.003906 108.320312 Z M 364.082031 41.617188 L 366.0625 38.5 C 368.460938 40.027344 370.875 41.609375 373.210938 43.214844 L 371.121094 46.253906 C 368.816406 44.679688 366.449219 43.117188 364.082031 41.617188 Z M 443.246094 125.800781 C 441.890625 123.359375 440.476562 120.898438 439.03125 118.515625 L 442.199219 116.609375 C 443.660156 119.039062 445.105469 121.527344 446.472656 124.019531 Z M 348.476562 32.554688 L 350.195312 29.292969 C 352.703125 30.621094 355.222656 32.015625 357.683594 33.4375 L 355.855469 36.632812 C 353.425781 35.230469 350.933594 33.855469 348.476562 32.554688 Z M 451.363281 141.929688 C 450.207031 139.378906 448.980469 136.824219 447.734375 134.320312 L 451.039062 132.675781 C 452.300781 135.210938 453.546875 137.808594 454.714844 140.394531 Z M 332.207031 24.726562 L 333.667969 21.347656 C 336.265625 22.476562 338.894531 23.664062 341.464844 24.898438 L 339.863281 28.222656 C 337.34375 27.015625 334.761719 25.839844 332.207031 24.726562 Z M 458.21875 158.613281 C 457.25 155.984375 456.234375 153.351562 455.175781 150.769531 L 458.589844 149.371094 C 459.664062 152 460.695312 154.675781 461.679688 157.351562 Z M 315.375 18.1875 L 316.574219 14.699219 C 319.261719 15.628906 321.96875 16.621094 324.613281 17.636719 L 323.292969 21.082031 C 320.675781 20.074219 318.019531 19.101562 315.375 18.1875 Z M 463.753906 175.777344 C 463 173.085938 462.1875 170.367188 461.324219 167.707031 L 464.84375 166.582031 C 465.707031 169.289062 466.535156 172.042969 467.304688 174.777344 Z M 298.09375 12.945312 L 299.015625 9.378906 C 300.8125 9.847656 302.613281 10.339844 304.394531 10.847656 C 305.363281 11.125 306.316406 11.402344 307.269531 11.691406 L 306.210938 15.226562 C 305.273438 14.945312 304.320312 14.667969 303.382812 14.398438 C 301.613281 13.894531 299.859375 13.40625 298.09375 12.945312 Z M 467.949219 193.320312 C 467.414062 190.566406 466.8125 187.800781 466.167969 185.09375 L 469.765625 184.234375 C 470.410156 187 471.027344 189.800781 471.578125 192.597656 Z M 280.472656 9.039062 L 281.117188 5.414062 C 283.917969 5.917969 286.746094 6.480469 289.511719 7.089844 L 288.730469 10.691406 C 285.992188 10.097656 283.210938 9.539062 280.472656 9.039062 Z M 470.78125 211.125 C 470.457031 208.339844 470.058594 205.542969 469.640625 202.789062 L 473.285156 202.207031 C 473.714844 205.019531 474.117188 207.863281 474.453125 210.679688 Z M 262.609375 6.503906 L 262.976562 2.832031 C 265.804688 3.121094 268.648438 3.464844 271.480469 3.855469 L 270.957031 7.511719 C 268.1875 7.125 265.375 6.785156 262.609375 6.503906 Z M 472.226562 229.082031 C 472.101562 226.28125 471.933594 223.46875 471.71875 220.6875 L 475.390625 220.394531 C 475.625 223.222656 475.792969 226.097656 475.898438 228.925781 Z M 244.605469 5.363281 L 244.695312 1.675781 C 247.539062 1.742188 250.398438 1.867188 253.230469 2.035156 L 253 5.726562 C 250.230469 5.558594 247.402344 5.429688 244.605469 5.363281 Z M 472.257812 247.101562 C 472.347656 244.300781 472.410156 241.472656 472.410156 238.691406 L 476.101562 238.691406 C 476.101562 241.519531 476.039062 244.394531 475.929688 247.238281 Z M 226.601562 5.625 L 226.398438 1.941406 C 229.230469 1.789062 232.105469 1.6875 234.933594 1.640625 L 234.996094 5.328125 C 232.210938 5.375 229.382812 5.476562 226.601562 5.625 Z M 470.886719 265.089844 C 471.195312 262.304688 471.472656 259.476562 471.6875 256.710938 L 475.378906 256.984375 C 475.148438 259.816406 474.871094 262.675781 474.546875 265.503906 Z M 208.65625 7.285156 L 208.164062 3.628906 C 210.980469 3.257812 213.824219 2.933594 216.652344 2.664062 L 217.007812 6.332031 C 214.222656 6.601562 211.410156 6.921875 208.65625 7.285156 Z M 468.121094 282.921875 C 468.660156 280.1875 469.152344 277.386719 469.582031 274.621094 L 473.226562 275.207031 C 472.777344 278.003906 472.285156 280.847656 471.734375 283.628906 Z M 190.886719 10.347656 L 190.117188 6.738281 C 192.882812 6.148438 195.710938 5.601562 198.511719 5.113281 L 199.140625 8.75 C 196.390625 9.230469 193.605469 9.769531 190.886719 10.347656 Z M 464 300.496094 C 464.738281 297.789062 465.445312 295.054688 466.089844 292.332031 L 469.671875 293.179688 C 469.027344 295.945312 468.304688 298.726562 467.550781 301.464844 Z M 173.402344 14.757812 L 172.359375 11.214844 C 175.078125 10.417969 177.863281 9.652344 180.597656 8.949219 L 181.507812 12.523438 C 178.816406 13.214844 176.078125 13.964844 173.402344 14.757812 Z M 458.542969 317.699219 C 459.496094 315.070312 460.402344 312.382812 461.246094 309.722656 L 464.769531 310.84375 C 463.90625 313.550781 462.96875 316.285156 462.015625 318.945312 Z M 156.308594 20.523438 L 154.984375 17.078125 C 157.644531 16.066406 160.351562 15.089844 163.042969 14.175781 L 164.226562 17.671875 C 161.582031 18.570312 158.921875 19.527344 156.308594 20.523438 Z M 451.792969 334.460938 C 452.929688 331.90625 454.050781 329.292969 455.097656 326.695312 L 458.527344 328.09375 C 457.449219 330.722656 456.328125 333.382812 455.160156 335.964844 Z M 139.703125 27.582031 L 138.132812 24.25 C 140.6875 23.042969 143.316406 21.855469 145.929688 20.742188 L 147.375 24.128906 C 144.808594 25.230469 142.222656 26.398438 139.703125 27.582031 Z M 443.765625 350.617188 C 445.105469 348.15625 446.425781 345.652344 447.65625 343.160156 L 450.960938 344.804688 C 449.703125 347.34375 448.363281 349.894531 446.996094 352.386719 Z M 123.683594 35.898438 L 121.851562 32.691406 C 124.328125 31.285156 126.847656 29.90625 129.371094 28.597656 L 131.078125 31.863281 C 128.601562 33.160156 126.113281 34.515625 123.683594 35.898438 Z M 434.511719 366.117188 C 436.035156 363.777344 437.523438 361.378906 438.96875 358.980469 L 442.136719 360.871094 C 440.675781 363.316406 439.140625 365.761719 437.585938 368.128906 Z M 108.355469 45.414062 L 106.277344 42.359375 C 108.644531 40.769531 111.058594 39.199219 113.457031 37.699219 L 115.410156 40.828125 C 113.042969 42.304688 110.675781 43.847656 108.355469 45.414062 Z M 424.058594 380.84375 C 425.777344 378.628906 427.453125 376.339844 429.070312 374.078125 L 432.082031 376.214844 C 430.4375 378.523438 428.730469 380.828125 426.976562 383.089844 Z M 93.792969 56.101562 L 91.488281 53.210938 C 93.71875 51.457031 95.992188 49.707031 98.300781 48.015625 L 100.480469 50.980469 C 98.222656 52.640625 95.960938 54.363281 93.792969 56.101562 Z M 412.511719 394.710938 C 414.386719 392.636719 416.246094 390.484375 418.03125 388.347656 L 420.859375 390.714844 C 419.042969 392.898438 417.152344 395.066406 415.246094 397.1875 Z M 80.09375 67.878906 L 77.589844 65.171875 C 79.664062 63.234375 81.800781 61.3125 83.96875 59.453125 L 86.382812 62.25 C 84.261719 64.082031 82.140625 65.972656 80.09375 67.878906 Z M 402.441406 410.316406 L 399.902344 407.640625 C 401.363281 406.273438 402.792969 404.875 404.207031 403.460938 C 404.777344 402.875 405.34375 402.308594 405.914062 401.722656 L 408.542969 404.304688 C 407.976562 404.90625 407.390625 405.488281 406.820312 406.058594 C 405.375 407.503906 403.914062 408.917969 402.441406 410.316406 Z M 64.644531 78.164062 C 66.566406 76.089844 68.550781 73.996094 70.5625 71.984375 L 73.175781 74.582031 C 71.207031 76.566406 69.257812 78.609375 67.351562 80.671875 Z M 388.664062 422.433594 L 386.34375 419.574219 C 388.511719 417.804688 390.679688 415.976562 392.785156 414.128906 L 395.214844 416.914062 C 393.078125 418.773438 390.878906 420.632812 388.664062 422.433594 Z M 52.742188 92.125 C 54.511719 89.894531 56.324219 87.664062 58.15625 85.496094 L 60.984375 87.878906 C 59.171875 90.019531 57.386719 92.214844 55.648438 94.414062 Z M 373.996094 433.441406 L 371.90625 430.398438 C 374.210938 428.796875 376.503906 427.152344 378.746094 425.476562 L 380.945312 428.445312 C 378.6875 430.136719 376.332031 431.8125 373.996094 433.441406 Z M 41.980469 106.976562 C 43.554688 104.609375 45.199219 102.257812 46.863281 99.949219 L 49.851562 102.101562 C 48.222656 104.363281 46.601562 106.699219 45.050781 109.019531 Z M 358.53125 443.28125 L 356.667969 440.082031 C 359.082031 438.683594 361.511719 437.207031 363.863281 435.714844 L 365.847656 438.835938 C 363.449219 440.359375 360.988281 441.835938 358.53125 443.28125 Z M 32.402344 122.613281 C 33.792969 120.136719 35.246094 117.644531 36.722656 115.21875 L 39.867188 117.140625 C 38.414062 119.523438 36.984375 121.964844 35.621094 124.410156 Z M 342.355469 451.90625 L 340.742188 448.585938 C 343.261719 447.355469 345.785156 446.078125 348.257812 444.773438 L 349.980469 448.03125 C 347.476562 449.355469 344.90625 450.660156 342.355469 451.90625 Z M 24.070312 138.957031 C 25.261719 136.371094 26.515625 133.773438 27.800781 131.238281 L 31.089844 132.914062 C 29.824219 135.402344 28.59375 137.957031 27.421875 140.492188 Z M 325.566406 459.253906 L 324.214844 455.8125 C 326.828125 454.796875 329.441406 453.71875 331.992188 452.597656 L 333.46875 455.980469 C 330.871094 457.117188 328.210938 458.210938 325.566406 459.253906 Z M 17.027344 155.882812 C 18.019531 153.222656 19.070312 150.53125 20.152344 147.902344 L 23.5625 149.316406 C 22.5 151.902344 21.460938 154.546875 20.488281 157.175781 Z M 308.269531 465.296875 L 307.179688 461.761719 C 309.871094 460.945312 312.558594 460.070312 315.1875 459.148438 L 316.402344 462.636719 C 313.714844 463.558594 310.992188 464.46875 308.269531 465.296875 Z M 10.25 177.101562 C 10.589844 175.839844 10.945312 174.5625 11.304688 173.300781 C 12.089844 170.582031 12.933594 167.8125 13.8125 165.121094 L 17.316406 166.261719 C 16.453125 168.921875 15.625 171.625 14.855469 174.316406 C 14.496094 175.5625 14.152344 176.824219 13.816406 178.054688 Z M 290.558594 469.972656 L 289.742188 466.375 C 292.464844 465.773438 295.21875 465.097656 297.921875 464.390625 L 298.859375 467.957031 C 296.109375 468.679688 293.3125 469.355469 290.558594 469.972656 Z M 6.160156 194.964844 C 6.6875 192.183594 7.269531 189.367188 7.894531 186.585938 L 11.492188 187.402344 C 10.878906 190.136719 10.300781 192.90625 9.785156 195.65625 Z M 272.539062 473.277344 L 272.015625 469.617188 C 274.785156 469.21875 277.582031 468.773438 280.320312 468.28125 L 280.980469 471.910156 C 278.183594 472.414062 275.351562 472.878906 272.539062 473.277344 Z M 3.453125 213.105469 C 3.765625 210.277344 4.132812 207.433594 4.539062 204.621094 L 8.191406 205.144531 C 7.789062 207.925781 7.429688 210.722656 7.121094 213.507812 Z M 254.320312 475.167969 L 254.089844 471.476562 C 256.871094 471.292969 259.703125 471.0625 262.46875 470.785156 L 262.839844 474.460938 C 260.023438 474.738281 257.164062 474.96875 254.320312 475.167969 Z M 2.175781 231.371094 C 2.265625 228.527344 2.410156 225.667969 2.605469 222.839844 L 6.285156 223.101562 C 6.097656 225.867188 5.953125 228.695312 5.871094 231.480469 Z M 236.023438 475.628906 L 236.070312 471.9375 C 238.871094 471.96875 241.699219 471.953125 244.480469 471.894531 L 244.574219 475.582031 C 241.730469 475.660156 238.855469 475.660156 236.023438 475.628906 Z M 2.316406 249.667969 C 2.183594 246.839844 2.105469 243.964844 2.074219 241.136719 L 5.761719 241.089844 C 5.792969 243.886719 5.875 246.714844 6.003906 249.5 Z M 217.730469 474.675781 L 218.082031 470.984375 C 220.867188 471.246094 223.695312 471.460938 226.476562 471.601562 L 226.261719 475.289062 C 223.449219 475.136719 220.574219 474.921875 217.730469 474.675781 Z M 3.882812 267.917969 C 3.527344 265.089844 3.222656 262.230469 2.976562 259.414062 L 6.652344 259.09375 C 6.898438 261.875 7.191406 264.671875 7.539062 267.457031 Z M 199.554688 472.292969 L 200.1875 468.648438 C 202.921875 469.125 205.722656 469.539062 208.503906 469.910156 L 208.011719 473.570312 C 205.199219 473.199219 202.355469 472.769531 199.554688 472.292969 Z M 6.851562 285.984375 C 6.28125 283.199219 5.757812 280.371094 5.289062 277.574219 L 8.929688 276.972656 C 9.386719 279.726562 9.910156 282.507812 10.464844 285.246094 Z M 181.613281 468.527344 L 182.519531 464.945312 C 185.242188 465.621094 188.011719 466.265625 190.730469 466.835938 L 189.960938 470.449219 C 187.195312 469.863281 184.398438 469.203125 181.613281 468.527344 Z M 11.21875 303.769531 C 10.4375 301.050781 9.691406 298.265625 9.007812 295.515625 L 12.59375 294.625 C 13.265625 297.328125 13.992188 300.066406 14.765625 302.757812 Z M 164.011719 463.390625 L 165.179688 459.886719 C 167.839844 460.777344 170.546875 461.621094 173.222656 462.40625 L 172.175781 465.941406 C 169.46875 465.144531 166.71875 464.28125 164.011719 463.390625 Z M 16.945312 321.175781 C 15.957031 318.515625 15 315.792969 14.105469 313.105469 L 17.605469 311.949219 C 18.492188 314.59375 19.425781 317.269531 20.40625 319.882812 Z M 146.855469 456.933594 L 148.285156 453.535156 C 150.851562 454.613281 153.496094 455.65625 156.109375 456.65625 L 154.800781 460.101562 C 152.140625 459.101562 149.46875 458.023438 146.851562 456.933594 Z M 24.003906 338.085938 C 22.8125 335.519531 21.648438 332.890625 20.550781 330.261719 L 23.949219 328.832031 C 25.035156 331.414062 26.179688 334.011719 27.347656 336.550781 Z M 130.234375 449.152344 L 131.925781 445.878906 C 134.414062 447.15625 136.953125 448.414062 139.488281 449.601562 L 137.921875 452.953125 C 135.339844 451.738281 132.753906 450.460938 130.234375 449.152344 Z M 32.339844 354.414062 C 30.953125 351.941406 29.589844 349.402344 28.292969 346.882812 L 31.574219 345.191406 C 32.847656 347.679688 34.1875 350.171875 35.558594 352.617188 Z M 114.273438 440.128906 L 116.210938 436.992188 C 118.59375 438.453125 121.023438 439.914062 123.453125 441.28125 L 121.640625 444.496094 C 119.164062 443.097656 116.6875 441.621094 114.273438 440.128906 Z M 41.90625 370.066406 C 40.332031 367.699219 38.785156 365.269531 37.292969 362.855469 L 40.433594 360.917969 C 41.898438 363.300781 43.429688 365.699219 44.976562 368.007812 Z M 99.070312 429.875 L 101.253906 426.90625 C 103.511719 428.550781 105.820312 430.195312 108.125 431.75 L 106.066406 434.808594 C 103.710938 433.210938 101.359375 431.566406 99.070312 429.875 Z M 52.652344 384.917969 C 50.902344 382.6875 49.164062 380.398438 47.488281 378.09375 L 50.46875 375.925781 C 52.128906 378.183594 53.835938 380.445312 55.558594 382.644531 Z M 84.710938 418.464844 L 87.109375 415.667969 C 89.246094 417.511719 91.414062 419.3125 93.597656 421.050781 L 91.289062 423.941406 C 89.074219 422.171875 86.863281 420.328125 84.710938 418.464844 Z M 64.507812 398.910156 C 62.601562 396.820312 60.695312 394.667969 58.847656 392.5 L 61.648438 390.101562 C 63.460938 392.238281 65.351562 394.375 67.226562 396.417969 Z M 71.640625 406.367188 L 71.273438 405.980469 L 73.886719 403.382812 L 74.253906 403.753906 C 76.113281 405.613281 78.019531 407.457031 79.929688 409.242188 L 77.421875 411.949219 C 75.46875 410.132812 73.53125 408.257812 71.640625 406.367188"/></g></g></g></g><g clip-path="url(#e)"><path fill="#F5E9FF" d="M 653.113281 387.066406 C 653.113281 390.714844 653.023438 394.367188 652.84375 398.011719 C 652.667969 401.660156 652.398438 405.300781 652.039062 408.933594 C 651.683594 412.570312 651.234375 416.191406 650.699219 419.804688 C 650.164062 423.417969 649.539062 427.011719 648.828125 430.59375 C 648.113281 434.175781 647.316406 437.738281 646.425781 441.28125 C 645.539062 444.820312 644.566406 448.339844 643.507812 451.835938 C 642.445312 455.328125 641.300781 458.796875 640.070312 462.234375 C 638.839844 465.671875 637.527344 469.078125 636.128906 472.449219 C 634.730469 475.824219 633.253906 479.160156 631.691406 482.464844 C 630.128906 485.765625 628.488281 489.023438 626.769531 492.246094 C 625.046875 495.464844 623.246094 498.640625 621.371094 501.773438 C 619.492188 504.90625 617.539062 507.988281 615.511719 511.027344 C 613.480469 514.0625 611.378906 517.046875 609.203125 519.980469 C 607.03125 522.914062 604.785156 525.789062 602.46875 528.613281 C 600.152344 531.4375 597.765625 534.199219 595.3125 536.90625 C 592.863281 539.613281 590.34375 542.253906 587.761719 544.839844 C 585.179688 547.421875 582.535156 549.9375 579.832031 552.390625 C 577.125 554.839844 574.359375 557.226562 571.539062 559.542969 C 568.714844 561.859375 565.835938 564.105469 562.90625 566.28125 C 559.972656 568.457031 556.988281 570.558594 553.949219 572.585938 C 550.914062 574.613281 547.832031 576.566406 544.699219 578.445312 C 541.566406 580.324219 538.390625 582.121094 535.167969 583.84375 C 531.949219 585.566406 528.6875 587.207031 525.386719 588.765625 C 522.085938 590.328125 518.75 591.808594 515.375 593.207031 C 512 594.601562 508.597656 595.917969 505.15625 597.148438 C 501.71875 598.375 498.253906 599.523438 494.757812 600.582031 C 491.265625 601.640625 487.746094 602.617188 484.203125 603.503906 C 480.660156 604.390625 477.101562 605.191406 473.519531 605.902344 C 469.9375 606.613281 466.339844 607.238281 462.726562 607.773438 C 459.117188 608.308594 455.492188 608.757812 451.859375 609.117188 C 448.226562 609.472656 444.585938 609.742188 440.9375 609.921875 C 437.289062 610.101562 433.640625 610.191406 429.988281 610.191406 C 426.335938 610.191406 422.6875 610.101562 419.039062 609.921875 C 415.394531 609.742188 411.753906 609.472656 408.117188 609.117188 C 404.484375 608.757812 400.863281 608.308594 397.25 607.773438 C 393.636719 607.238281 390.039062 606.613281 386.460938 605.902344 C 382.878906 605.191406 379.316406 604.390625 375.773438 603.503906 C 372.230469 602.617188 368.714844 601.640625 365.21875 600.582031 C 361.726562 599.523438 358.257812 598.375 354.820312 597.148438 C 351.382812 595.917969 347.976562 594.601562 344.601562 593.207031 C 341.230469 591.808594 337.890625 590.328125 334.589844 588.765625 C 331.289062 587.207031 328.027344 585.566406 324.808594 583.84375 C 321.589844 582.121094 318.410156 580.324219 315.28125 578.445312 C 312.148438 576.566406 309.0625 574.613281 306.027344 572.585938 C 302.992188 570.558594 300.007812 568.457031 297.074219 566.28125 C 294.140625 564.105469 291.261719 561.859375 288.441406 559.542969 C 285.617188 557.226562 282.851562 554.839844 280.148438 552.390625 C 277.441406 549.9375 274.796875 547.421875 272.214844 544.839844 C 269.632812 542.253906 267.117188 539.613281 264.664062 536.90625 C 262.210938 534.199219 259.828125 531.4375 257.511719 528.613281 C 255.195312 525.789062 252.949219 522.914062 250.773438 519.980469 C 248.597656 517.046875 246.496094 514.0625 244.46875 511.027344 C 242.4375 507.988281 240.484375 504.90625 238.609375 501.773438 C 236.730469 498.640625 234.933594 495.464844 233.210938 492.246094 C 231.488281 489.023438 229.847656 485.765625 228.285156 482.464844 C 226.726562 479.160156 225.246094 475.824219 223.847656 472.449219 C 222.449219 469.078125 221.136719 465.671875 219.90625 462.234375 C 218.675781 458.796875 217.53125 455.328125 216.472656 451.835938 C 215.410156 448.339844 214.4375 444.820312 213.550781 441.28125 C 212.664062 437.738281 211.863281 434.175781 211.152344 430.59375 C 210.4375 427.011719 209.816406 423.417969 209.277344 419.804688 C 208.742188 416.191406 208.296875 412.570312 207.9375 408.933594 C 207.582031 405.300781 207.3125 401.660156 207.132812 398.011719 C 206.953125 394.367188 206.863281 390.714844 206.863281 387.066406 C 206.863281 383.414062 206.953125 379.765625 207.132812 376.117188 C 207.3125 372.46875 207.582031 368.828125 207.9375 365.195312 C 208.296875 361.5625 208.742188 357.9375 209.277344 354.324219 C 209.816406 350.714844 210.4375 347.117188 211.152344 343.535156 C 211.863281 339.953125 212.664062 336.390625 213.550781 332.851562 C 214.4375 329.308594 215.410156 325.789062 216.472656 322.296875 C 217.53125 318.800781 218.675781 315.335938 219.90625 311.894531 C 221.136719 308.457031 222.449219 305.050781 223.847656 301.679688 C 225.246094 298.304688 226.726562 294.96875 228.285156 291.667969 C 229.847656 288.367188 231.488281 285.105469 233.210938 281.882812 C 234.933594 278.664062 236.730469 275.488281 238.609375 272.355469 C 240.484375 269.222656 242.4375 266.140625 244.46875 263.101562 C 246.496094 260.066406 248.597656 257.082031 250.773438 254.148438 C 252.949219 251.214844 255.195312 248.339844 257.511719 245.515625 C 259.828125 242.691406 262.210938 239.929688 264.664062 237.222656 C 267.117188 234.515625 269.632812 231.875 272.214844 229.292969 C 274.796875 226.710938 277.441406 224.191406 280.148438 221.738281 C 282.851562 219.289062 285.617188 216.902344 288.441406 214.585938 C 291.261719 212.269531 294.140625 210.023438 297.074219 207.847656 C 300.007812 205.671875 302.992188 203.570312 306.027344 201.542969 C 309.0625 199.515625 312.148438 197.5625 315.28125 195.683594 C 318.410156 193.808594 321.589844 192.007812 324.808594 190.285156 C 328.027344 188.566406 331.289062 186.921875 334.589844 185.363281 C 337.890625 183.800781 341.230469 182.320312 344.601562 180.925781 C 347.976562 179.527344 351.382812 178.214844 354.820312 176.984375 C 358.257812 175.753906 361.726562 174.609375 365.21875 173.546875 C 368.714844 172.488281 372.230469 171.515625 375.773438 170.625 C 379.316406 169.738281 382.878906 168.9375 386.460938 168.226562 C 390.039062 167.515625 393.636719 166.890625 397.25 166.355469 C 400.863281 165.820312 404.484375 165.371094 408.117188 165.015625 C 411.753906 164.65625 415.394531 164.386719 419.039062 164.207031 C 422.6875 164.03125 426.335938 163.941406 429.988281 163.941406 C 433.640625 163.941406 437.289062 164.03125 440.9375 164.207031 C 444.585938 164.386719 448.226562 164.65625 451.859375 165.015625 C 455.492188 165.371094 459.117188 165.820312 462.726562 166.355469 C 466.339844 166.890625 469.9375 167.515625 473.519531 168.226562 C 477.101562 168.9375 480.660156 169.738281 484.203125 170.625 C 487.746094 171.515625 491.265625 172.488281 494.757812 173.546875 C 498.253906 174.609375 501.71875 175.753906 505.15625 176.984375 C 508.597656 178.214844 512 179.527344 515.375 180.925781 C 518.75 182.320312 522.085938 183.800781 525.386719 185.363281 C 528.6875 186.921875 531.949219 188.566406 535.167969 190.285156 C 538.390625 192.007812 541.566406 193.808594 544.699219 195.683594 C 547.832031 197.5625 550.914062 199.515625 553.949219 201.542969 C 556.988281 203.570312 559.972656 205.671875 562.90625 207.847656 C 565.835938 210.023438 568.714844 212.269531 571.539062 214.585938 C 574.359375 216.902344 577.125 219.289062 579.832031 221.738281 C 582.535156 224.191406 585.179688 226.710938 587.761719 229.292969 C 590.34375 231.875 592.863281 234.515625 595.3125 237.222656 C 597.765625 239.929688 600.152344 242.691406 602.46875 245.515625 C 604.785156 248.339844 607.03125 251.214844 609.203125 254.148438 C 611.378906 257.082031 613.480469 260.066406 615.511719 263.101562 C 617.539062 266.140625 619.492188 269.222656 621.371094 272.355469 C 623.246094 275.488281 625.046875 278.664062 626.769531 281.882812 C 628.488281 285.105469 630.128906 288.367188 631.691406 291.667969 C 633.253906 294.96875 634.730469 298.304688 636.128906 301.679688 C 637.527344 305.050781 638.839844 308.457031 640.070312 311.894531 C 641.300781 315.335938 642.445312 318.800781 643.507812 322.296875 C 644.566406 325.789062 645.539062 329.308594 646.425781 332.851562 C 647.316406 336.390625 648.113281 339.953125 648.828125 343.535156 C 649.539062 347.117188 650.164062 350.714844 650.699219 354.324219 C 651.234375 357.9375 651.683594 361.5625 652.039062 365.195312 C 652.398438 368.828125 652.667969 372.46875 652.84375 376.117188 C 653.023438 379.765625 653.113281 383.414062 653.113281 387.066406 Z M 653.113281 387.066406"/></g><g clip-path="url(#f)"><g clip-path="url(#g)"><g clip-path="url(#h)"><path fill="#ECD7FF" d="M 459.039062 148.875 C 452.113281 145.984375 448.894531 138.054688 451.84375 131.152344 C 454.792969 124.253906 462.789062 121.007812 469.714844 123.898438 C 470.171875 124.078125 470.972656 124.527344 470.972656 124.527344 C 470.972656 124.527344 471.03125 124.148438 471.445312 123.195312 C 474.394531 116.292969 482.390625 113.046875 489.316406 115.941406 C 496.242188 118.832031 499.460938 126.761719 496.511719 133.660156 L 485.777344 158.78125 C 485.527344 159.367188 484.835938 159.644531 484.246094 159.402344 Z M 468.792969 126.050781 C 463.070312 123.652344 456.433594 126.347656 454.003906 132.054688 C 451.558594 137.757812 454.230469 144.339844 459.960938 146.722656 L 484.082031 156.8125 L 494.351562 132.757812 C 496.796875 127.054688 494.125 120.476562 488.398438 118.09375 C 482.671875 115.691406 476.039062 118.386719 473.605469 124.097656 C 473.257812 124.894531 473.019531 125.707031 472.871094 126.539062 C 472.714844 127.390625 471.730469 127.789062 471.027344 127.289062 C 470.335938 126.796875 469.589844 126.382812 468.792969 126.050781 Z M 468.792969 126.050781"/></g></g></g><g clip-path="url(#i)"><g clip-path="url(#j)"><g clip-path="url(#k)"><path fill="#ECD7FF" d="M 670.132812 281.933594 C 669.96875 280.613281 669.292969 279.453125 668.277344 278.65625 C 669.160156 277.40625 669.496094 275.839844 669.15625 274.296875 C 668.554688 271.539062 665.769531 269.667969 662.824219 270.035156 L 649.28125 271.722656 C 649.695312 269.601562 650.304688 265.734375 649.929688 262.730469 C 649.335938 257.976562 644.796875 254.464844 642.257812 254.78125 C 639.980469 255.0625 638.511719 256.546875 638.449219 256.609375 C 638.214844 256.851562 638.105469 257.183594 638.148438 257.519531 L 639.074219 264.953125 L 634.460938 279.425781 L 634.214844 279.589844 L 634.164062 279.171875 C 634.089844 278.566406 633.535156 278.136719 632.929688 278.210938 L 621.96875 279.574219 C 618.945312 279.953125 616.792969 282.71875 617.167969 285.742188 L 619.351562 303.285156 C 619.730469 306.308594 622.496094 308.460938 625.515625 308.085938 L 632.09375 307.265625 C 634.46875 306.972656 636.304688 305.207031 636.804688 303 C 638.746094 303.710938 641.265625 303.898438 642.789062 303.710938 L 662.914062 301.203125 C 665.300781 300.90625 667.1875 299.035156 667.402344 296.753906 C 667.511719 295.582031 667.222656 294.449219 666.597656 293.511719 C 668.113281 292.492188 668.996094 290.6875 668.757812 288.785156 C 668.664062 288.007812 668.394531 287.285156 667.972656 286.65625 C 669.488281 285.636719 670.371094 283.832031 670.132812 281.933594 Z M 631.820312 305.074219 L 625.246094 305.890625 C 623.429688 306.117188 621.773438 304.824219 621.546875 303.011719 L 619.359375 285.46875 C 619.136719 283.65625 620.425781 281.996094 622.242188 281.769531 L 622.242188 281.78125 L 632.105469 280.550781 L 632.242188 281.648438 C 632.242188 281.65625 632.246094 281.660156 632.246094 281.664062 L 634.703125 301.375 C 634.925781 303.1875 633.632812 304.847656 631.820312 305.074219 Z M 665.84375 285.21875 C 665.425781 285.316406 665.105469 285.648438 665.023438 286.070312 C 664.9375 286.492188 665.105469 286.925781 665.453125 287.179688 C 666.074219 287.636719 666.472656 288.304688 666.566406 289.058594 C 666.738281 290.441406 665.839844 291.734375 664.472656 292.066406 C 664.054688 292.167969 663.734375 292.5 663.648438 292.921875 C 663.566406 293.339844 663.730469 293.777344 664.078125 294.027344 C 664.886719 294.621094 665.296875 295.539062 665.203125 296.546875 C 665.085938 297.804688 664.007812 298.839844 662.636719 299.007812 L 642.511719 301.515625 C 640.882812 301.71875 638.171875 301.339844 636.828125 300.578125 L 634.523438 282.046875 L 636.003906 281.0625 C 636.210938 280.921875 636.367188 280.714844 636.445312 280.476562 L 641.246094 265.402344 C 641.292969 265.253906 641.308594 265.089844 641.289062 264.933594 L 640.410156 257.855469 C 640.832031 257.542969 641.582031 257.101562 642.527344 256.984375 C 643.730469 256.835938 647.285156 259.425781 647.730469 263.015625 C 648.210938 266.875 646.804688 272.703125 646.792969 272.757812 C 646.707031 273.109375 646.796875 273.484375 647.039062 273.753906 C 647.28125 274.027344 647.640625 274.160156 648.003906 274.117188 L 663.089844 272.238281 C 664.917969 272.011719 666.632812 273.125 666.996094 274.777344 C 667.265625 276.011719 666.820312 277.273438 665.824219 278.074219 C 665.511719 278.320312 665.359375 278.722656 665.425781 279.113281 C 665.488281 279.507812 665.757812 279.832031 666.132812 279.972656 C 667.117188 280.332031 667.808594 281.1875 667.9375 282.210938 C 668.105469 283.59375 667.207031 284.886719 665.84375 285.21875 Z M 665.84375 285.21875"/></g></g></g><g clip-path="url(#l)"><path fill="#ECD7FF" d="M 634.511719 170.097656 C 630.46875 170.097656 626.632812 168.824219 623.382812 166.40625 L 616.929688 168.167969 C 616.628906 168.246094 616.3125 168.15625 616.09375 167.933594 C 615.878906 167.710938 615.804688 167.386719 615.898438 167.09375 L 618.078125 160.28125 C 616.625 157.582031 615.859375 154.550781 615.859375 151.496094 C 615.859375 141.242188 624.230469 132.890625 634.511719 132.890625 C 644.796875 132.890625 653.164062 141.242188 653.164062 151.496094 C 653.164062 161.753906 644.796875 170.097656 634.511719 170.097656 Z M 623.566406 164.636719 C 623.753906 164.636719 623.941406 164.699219 624.089844 164.8125 C 627.101562 167.167969 630.707031 168.40625 634.511719 168.40625 C 643.863281 168.40625 651.46875 160.820312 651.46875 151.496094 C 651.46875 142.164062 643.863281 134.582031 634.511719 134.582031 C 625.164062 134.582031 617.554688 142.164062 617.554688 151.496094 C 617.554688 154.386719 618.3125 157.246094 619.738281 159.777344 C 619.851562 159.980469 619.878906 160.226562 619.804688 160.445312 L 617.992188 166.121094 L 623.34375 164.660156 C 623.417969 164.644531 623.492188 164.636719 623.566406 164.636719 Z M 623.566406 164.636719"/></g></svg>