<svg xmlns="http://www.w3.org/2000/svg" xmlns:xlink="http://www.w3.org/1999/xlink" width="1440" viewBox="0 0 1440 1620" height="1620" version="1.0"><defs><clipPath id="d"><path d="M 11 0 L 842 0 L 842 1412 L 11 1412 Z M 11 0"/></clipPath><clipPath id="e"><path d="M -2.121094 -59.71875 L 168.945312 -156.410156 L 1008.148438 1328.332031 L 837.085938 1425.023438 Z M -2.121094 -59.71875"/></clipPath><clipPath id="f"><path d="M -2.121094 -59.71875 L 168.945312 -156.410156 L 1008.148438 1328.332031 L 837.085938 1425.023438 Z M -2.121094 -59.71875"/></clipPath><clipPath id="g"><path d="M 3.039062 -50.589844 L 176.644531 -148.71875 L 1007.917969 1321.996094 L 834.3125 1420.121094 Z M 3.039062 -50.589844"/></clipPath><clipPath id="h"><path d="M 3.039062 -50.589844 L 174.28125 -147.378906 L 1003.257812 1319.269531 L 832.019531 1416.058594 Z M 3.039062 -50.589844"/></clipPath><clipPath id="c"><path d="M0 0H1008V1421H0z"/></clipPath><filter x="0%" y="0%" width="100%" xmlns:xlink="http://www.w3.org/1999/xlink" xlink:type="simple" xlink:actuate="onLoad" height="100%" id="a" xlink:show="other"><feColorMatrix values="0 0 0 0 1 0 0 0 0 1 0 0 0 0 1 0 0 0 1 0" color-interpolation-filters="sRGB"/></filter><mask id="b"><g filter="url(#a)"><path fill-opacity=".529" d="M-144 -162H1584V1782H-144z"/></g></mask></defs><g mask="url(#b)"><g><g clip-path="url(#c)" transform="translate(56)"><g clip-path="url(#d)"><g clip-path="url(#e)"><g clip-path="url(#f)"><g clip-path="url(#g)"><g clip-path="url(#h)"><path fill="#F5E9FF" d="M 49.175781 -60.550781 C 164.671875 25.710938 268.316406 126.796875 358.945312 237.828125 C 449.640625 348.910156 527.480469 469.828125 593.007812 596.683594 C 658.523438 723.566406 711.867188 856.4375 753.328125 992.691406 C 794.730469 1128.957031 824.382812 1268.679688 841.003906 1409.871094 C 841.125 1410.738281 840.5 1411.527344 839.621094 1411.632812 C 838.757812 1411.726562 837.980469 1411.121094 837.851562 1410.277344 C 817.625 1269.777344 784.5 1131.359375 739.84375 996.980469 C 695.160156 862.636719 638.839844 732.253906 570.847656 608.488281 C 502.835938 484.761719 423.035156 367.628906 331.292969 260.996094 C 239.589844 154.359375 135.820312 58.335938 21.484375 -22.550781 C 10.890625 -30.023438 8.386719 -44.683594 15.882812 -55.28125 C 23.40625 -65.871094 38.078125 -68.414062 48.664062 -60.914062 C 48.804688 -60.820312 49.035156 -60.644531 49.175781 -60.550781"/></g></g></g></g></g></g></g></g></svg>