<svg xmlns="http://www.w3.org/2000/svg" width="32" height="32" viewBox="0 0 32 32">
    <g fill="#dac6ff" fill-rule="evenodd">
        <path d="M16.0000318,0 C11.6546609,0 11.1097906,0.018418509 9.40322046,0.0962843437 C7.70020701,0.173959642 6.53710992,0.444457676 5.51939203,0.840011035 C4.46725058,1.24883842 3.57496909,1.79593165 2.68541861,2.68541861 C1.79593165,3.57496909 1.24883842,4.46725058 0.840011035,5.51939203 C0.444457676,6.53710992 0.173959642,7.70020701 0.0962843437,9.40322046 C0.018418509,11.1097906 0,11.6546609 0,16.0000318 C0,20.3453391 0.018418509,20.8902094 0.0962843437,22.5967795 C0.173959642,24.299793 0.444457676,25.4628901 0.840011035,26.480608 C1.24883842,27.5327494 1.79593165,28.4250309 2.68541861,29.3145814 C3.57496909,30.2040683 4.46725058,30.7511616 5.51939203,31.1600525 C6.53710992,31.5555423 7.70020701,31.8260404 9.40322046,31.9037157 C11.1097906,31.9815815 11.6546609,32 16.0000318,32 C20.3453391,32 20.8902094,31.9815815 22.5967795,31.9037157 C24.299793,31.8260404 25.4628901,31.5555423 26.480608,31.1600525 C27.5327494,30.7511616 28.4250309,30.2040683 29.3145814,29.3145814 C30.2040683,28.4250309 30.7511616,27.5327494 31.1600525,26.480608 C31.5555423,25.4628901 31.8260404,24.299793 31.9037157,22.5967795 C31.9815815,20.8902094 32,20.3453391 32,16.0000318 C32,11.6546609 31.9815815,11.1097906 31.9037157,9.40322046 C31.8260404,7.70020701 31.5555423,6.53710992 31.1600525,5.51939203 C30.7511616,4.46725058 30.2040683,3.57496909 29.3145814,2.68541861 C28.4250309,1.79593165 27.5327494,1.24883842 26.480608,0.840011035 C25.4628901,0.444457676 24.299793,0.173959642 22.5967795,0.0962843437 C20.8902094,0.018418509 20.3453391,0 16.0000318,0 Z M16.0000318,2.88287773 C20.2721732,2.88287773 20.7782376,2.89920034 22.465373,2.97617701 C24.0253572,3.04731056 24.8725451,3.30796422 25.436342,3.52708096 C26.1831808,3.81733126 26.7161743,4.16404382 27.2760335,4.72396649 C27.8359562,5.28382565 28.1826687,5.81681919 28.472919,6.56365798 C28.6920358,7.12745489 28.9526894,7.97464279 29.023823,9.534627 C29.1007997,11.2217624 29.1171223,11.7278268 29.1171223,16.0000318 C29.1171223,20.2721732 29.1007997,20.7782376 29.023823,22.465373 C28.9526894,24.0253572 28.6920358,24.8725451 28.472919,25.436342 C28.1826687,26.1831808 27.8359562,26.7161743 27.2760335,27.2760335 C26.7161743,27.8359562 26.1831808,28.1826687 25.436342,28.472919 C24.8725451,28.6920358 24.0253572,28.9526894 22.465373,29.023823 C20.7784916,29.1007997 20.2724907,29.1171223 16.0000318,29.1171223 C11.7275093,29.1171223 11.2215719,29.1007997 9.534627,29.023823 C7.97464279,28.9526894 7.12745489,28.6920358 6.56365798,28.472919 C5.81681919,28.1826687 5.28382565,27.8359562 4.72396649,27.2760335 C4.16410733,26.7161743 3.81733126,26.1831808 3.52708096,25.436342 C3.30796422,24.8725451 3.04731056,24.0253572 2.97617701,22.465373 C2.89920034,20.7782376 2.88287773,20.2721732 2.88287773,16.0000318 C2.88287773,11.7278268 2.89920034,11.2217624 2.97617701,9.534627 C3.04731056,7.97464279 3.30796422,7.12745489 3.52708096,6.56365798 C3.81733126,5.81681919 4.16404382,5.28382565 4.72396649,4.72396649 C5.28382565,4.16404382 5.81681919,3.81733126 6.56365798,3.52708096 C7.12745489,3.30796422 7.97464279,3.04731056 9.534627,2.97617701 C11.2217624,2.89920034 11.7278268,2.88287773 16.0000318,2.88287773 L16.0000318,2.88287773 Z"/>
        <path d="M16.0000318 21.3333333C13.0544676 21.3333333 10.6666667 18.9455324 10.6666667 16.0000318 10.6666667 13.0544676 13.0544676 10.6666667 16.0000318 10.6666667 18.9455324 10.6666667 21.3333333 13.0544676 21.3333333 16.0000318 21.3333333 18.9455324 18.9455324 21.3333333 16.0000318 21.3333333ZM16.0000318 7.78378893C11.4622827 7.78378893 7.78378893 11.4622827 7.78378893 16.0000318 7.78378893 20.5377173 11.4622827 24.2162111 16.0000318 24.2162111 20.5377173 24.2162111 24.2162111 20.5377173 24.2162111 16.0000318 24.2162111 11.4622827 20.5377173 7.78378893 16.0000318 7.78378893L16.0000318 7.78378893ZM26.4608557 7.45917859C26.4608557 8.51957661 25.6012194 9.37914937 24.5408214 9.37914937 23.4804869 9.37914937 22.6208506 8.51957661 22.6208506 7.45917859 22.6208506 6.39878057 23.4804869 5.53914429 24.5408214 5.53914429 25.6012194 5.53914429 26.4608557 6.39878057 26.4608557 7.45917859"/>
    </g>
</svg>