<svg xmlns="http://www.w3.org/2000/svg" width="32" height="32" viewBox="0 0 32 32"><g fill="none" fill-rule="evenodd" transform="translate(-.005)"><path fill="#dac6ff" d="M29.6362904,0 L2.36056421,0 C1.05827886,0 0,1.03311545 0,2.3076424 L0,29.6953458 C0,30.9697941 1.05827886,32.0047181 2.36056421,32.0047181 L29.6362904,32.0047181 C30.9411707,32.0047181 32.0038531,30.9697941 32.0038531,29.6953458 L32.0038531,2.3076424 C32.0038531,1.03311545 30.9411707,0 29.6362904,0"/><path fill="#FFFFFE" d="M7.11912321 4.40603529C8.63757802 4.40603529 9.87034944 5.63927852 9.87034944 7.15859832 9.87034944 8.67838993 8.63757802 9.91163316 7.11912321 9.91163316 5.59461346 9.91163316 4.36522337 8.67838993 4.36522337 7.15859832 4.36522337 5.63927852 5.59461346 4.40603529 7.11912321 4.40603529L7.11912321 4.40603529ZM4.74204551 27.2714012 9.49360594 27.2714012 9.49360594 11.9983093 4.74204551 11.9983093 4.74204551 27.2714012ZM12.4714602 11.9983093 17.0216346 11.9983093 17.0216346 14.0862437 17.0866663 14.0862437C17.7196049 12.8855556 19.268413 11.6192854 21.5778641 11.6192854 26.3840763 11.6192854 27.2722662 14.7816975 27.2722662 18.8951295L27.2722662 27.2714012 22.5258957 27.2714012 22.5258957 19.8441048C22.5258957 18.0729936 22.4954637 15.7944464 20.0594092 15.7944464 17.5894628 15.7944464 17.212562 17.7248734 17.212562 19.7173441L17.212562 27.2714012 12.4714602 27.2714012 12.4714602 11.9983093"/></g></svg>