<svg xmlns="http://www.w3.org/2000/svg" width="1440" viewBox="0 0 1440 810" height="810" version="1.0"><defs><clipPath id="a"><path d="M 315 438 L 650 438 L 650 769 L 315 769 Z M 315 438"/></clipPath><clipPath id="b"><path d="M 604.800781 347.09375 L 739.152344 716.875 L 346.359375 859.585938 L 212.007812 489.804688 Z M 604.800781 347.09375"/></clipPath><clipPath id="c"><path d="M 604.800781 347.09375 L 739.152344 716.875 L 346.359375 859.585938 L 212.007812 489.804688 Z M 604.800781 347.09375"/></clipPath><clipPath id="d"><path d="M 294 362 L 691 362 L 691 714 L 294 714 Z M 294 362"/></clipPath><clipPath id="e"><path d="M 313.546875 332.164062 L 709.273438 385.78125 L 660.300781 747.207031 L 264.574219 693.585938 Z M 313.546875 332.164062"/></clipPath><clipPath id="f"><path d="M 313.546875 332.164062 L 709.273438 385.78125 L 660.300781 747.207031 L 264.574219 693.585938 Z M 313.546875 332.164062"/></clipPath><clipPath id="g"><path d="M 0 307 L 272 307 L 272 664 L 0 664 Z M 0 307"/></clipPath><clipPath id="h"><path d="M 34.320312 225.828125 L 361.480469 422.546875 L 157.808594 761.277344 L -169.351562 564.5625 Z M 34.320312 225.828125"/></clipPath><clipPath id="i"><path d="M 34.320312 225.828125 L 361.480469 422.546875 L 157.808594 761.277344 L -169.351562 564.5625 Z M 34.320312 225.828125"/></clipPath></defs><path fill="#FFF" d="M-144 -81H1584V891H-144z"/><path fill="#FFF" d="M-144 -81H1584V891H-144z"/><path fill="#F4EFEC" d="M-144 -81H1584V891H-144z"/><g clip-path="url(#a)"><g clip-path="url(#b)"><g clip-path="url(#c)"><path fill="#D0B1A1" d="M 474.269531 458.5625 C 555.320312 544.871094 573.203125 432.625 626.910156 494.203125 C 680.621094 555.78125 631.875 633.371094 539.15625 652.808594 C 478.378906 665.523438 421.832031 832.164062 346.148438 741.425781 C 270.460938 650.6875 360.511719 608.683594 347.851562 534.351562 C 332.863281 445.894531 432.421875 413.964844 474.269531 458.5625 Z M 474.269531 458.5625"/></g></g></g><g clip-path="url(#d)"><g clip-path="url(#e)"><g clip-path="url(#f)"><path fill="#ECE4DD" d="M 363.089844 431.40625 C 387.582031 409.886719 426.53125 387.988281 448.5625 379.128906 C 467.019531 371.371094 486.140625 365.953125 505.921875 362.871094 C 509.847656 362.214844 513.800781 361.933594 517.777344 362.027344 C 521.757812 362.121094 525.691406 362.585938 529.582031 363.425781 C 533.472656 364.265625 537.25 365.460938 540.914062 367.019531 C 544.574219 368.574219 548.058594 370.460938 551.363281 372.675781 C 572.746094 387.230469 572.898438 407.972656 592.828125 426.101562 C 598.15625 430.457031 604.125 433.601562 610.726562 435.539062 C 633.894531 443.820312 667.339844 439.3125 683.332031 463.734375 C 690.671875 474.917969 694.320312 494.238281 685.984375 518.695312 C 683.320312 526 679.832031 532.894531 675.53125 539.375 C 671.226562 545.855469 666.222656 551.742188 660.523438 557.035156 C 640.878906 576.375 636.675781 587.152344 632.691406 601.351562 C 624.789062 628.828125 636.285156 672.398438 626.234375 698.710938 C 618.710938 718.351562 602.039062 714.128906 582.648438 707.886719 C 575.535156 705.546875 568.984375 702.136719 562.988281 697.652344 C 552.214844 689.957031 520.871094 667.914062 516.167969 664.410156 C 510.933594 660.457031 505.359375 657.058594 499.449219 654.210938 C 493.535156 651.363281 487.402344 649.125 481.042969 647.496094 C 474.511719 646.0625 467.914062 645.601562 461.246094 646.125 C 414.835938 648.28125 393.546875 686.441406 373.417969 700.355469 C 370.855469 701.953125 368.097656 703.066406 365.140625 703.691406 C 359.347656 705.242188 354.984375 701.566406 350.257812 697.09375 C 339.0625 686.507812 336.027344 693.730469 313.753906 673.789062 C 306.4375 667.253906 302.058594 631.691406 297.308594 608.078125 C 284.910156 546.3125 314.726562 473.78125 363.089844 431.40625 Z M 299.828125 597.292969 C 308.640625 647.324219 309.484375 649.621094 312.707031 663.332031 C 312.933594 664.660156 313.308594 665.945312 313.835938 667.1875 C 314.359375 668.429688 315.023438 669.59375 315.820312 670.679688 C 316.617188 671.765625 317.527344 672.75 318.554688 673.625 C 319.578125 674.5 320.691406 675.242188 321.890625 675.859375 C 324.265625 676.992188 331.109375 683.777344 341.714844 686.742188 C 353.578125 690.0625 357.410156 705.976562 370.257812 697.464844 C 390.148438 684.359375 410.800781 647.921875 453.367188 642.8125 C 461.453125 641.550781 469.542969 641.527344 477.636719 642.734375 C 502.425781 647.09375 515.066406 658.746094 534.921875 672.84375 C 543.445312 678.953125 552.375 684.867188 560.910156 691.136719 C 568.578125 697.113281 577.011719 701.683594 586.210938 704.847656 C 609.652344 712.261719 620.792969 711.25 624.710938 687.875 C 629.773438 657.644531 622.292969 629.769531 627.839844 603.34375 C 628.660156 599.550781 629.738281 595.832031 631.078125 592.191406 C 632.414062 588.546875 634 585.015625 635.828125 581.59375 C 637.65625 578.171875 639.714844 574.890625 642 571.753906 C 644.285156 568.617188 646.777344 565.652344 649.476562 562.863281 C 668.019531 543.125 677.664062 535.703125 684.761719 507.933594 C 686.121094 502.789062 686.789062 497.558594 686.765625 492.238281 C 686.738281 486.917969 686.023438 481.691406 684.617188 476.558594 C 684.039062 474.253906 683.230469 472.027344 682.191406 469.882812 C 681.15625 467.742188 679.914062 465.726562 678.464844 463.839844 C 677.015625 461.953125 675.386719 460.230469 673.585938 458.675781 C 671.78125 457.121094 669.839844 455.765625 667.761719 454.609375 C 640.320312 438.957031 601.984375 450.589844 580.140625 417.808594 C 575.167969 410.339844 570.707031 402.503906 566.117188 394.746094 C 565.0625 392.859375 563.902344 391.039062 562.632812 389.289062 C 561.367188 387.539062 560 385.867188 558.539062 384.277344 C 557.074219 382.683594 555.523438 381.1875 553.882812 379.777344 C 552.242188 378.367188 550.527344 377.058594 548.734375 375.851562 C 546.9375 374.644531 545.082031 373.546875 543.160156 372.558594 C 541.238281 371.566406 539.261719 370.695312 537.238281 369.933594 C 535.214844 369.175781 533.152344 368.539062 531.050781 368.023438 C 528.953125 367.507812 526.832031 367.117188 524.683594 366.847656 C 499.929688 363.152344 454.984375 379.59375 431.796875 391.472656 C 369.851562 423.15625 342.792969 452.558594 323.449219 487.863281 C 301.171875 528.695312 295.46875 572.644531 299.828125 597.292969 Z M 299.828125 597.292969"/></g></g></g><g clip-path="url(#g)"><g clip-path="url(#h)"><g clip-path="url(#i)"><path fill="#ECD7FF" d="M 260.558594 581.496094 C 274.429688 543.859375 273.488281 502.933594 267.847656 463.699219 C 262.835938 429.082031 252.839844 394.785156 233.613281 365.253906 C 224.339844 350.925781 213.046875 336.117188 198.835938 326.46875 C 184.691406 316.859375 168.175781 310.890625 151.222656 308.714844 C 134.070312 306.414062 116.140625 308.164062 99.941406 314.089844 C 81.5625 320.730469 66.269531 332.820312 50.828125 344.542969 C 15.796875 371.210938 -24.488281 389.742188 -59.789062 416.242188 C -91.027344 439.664062 -118.429688 471.285156 -124.847656 511.101562 C -130.914062 549.101562 -112.773438 583.964844 -84.789062 608.898438 C -52.714844 637.308594 -10.996094 652.441406 30.941406 658.765625 C 51.957031 662.007812 73.246094 663.105469 94.535156 663.28125 C 115.582031 663.40625 136.816406 663.363281 157.742188 661.386719 C 176.699219 659.613281 195.09375 655.097656 211.210938 644.703125 C 226.542969 634.847656 239.304688 621.144531 248.839844 605.59375 C 253.585938 597.851562 257.371094 589.714844 260.558594 581.496094"/></g></g></g></svg>