<svg xmlns="http://www.w3.org/2000/svg" width="1440" viewBox="0 0 1440 810" height="810" version="1.0"><defs><clipPath id="a"><path d="M 450 114 L 498 114 L 498 160 L 450 160 Z M 450 114"/></clipPath><clipPath id="b"><path d="M 444.929688 128.074219 L 492.183594 108.886719 L 508.832031 149.886719 L 461.578125 169.074219 Z M 444.929688 128.074219"/></clipPath><clipPath id="c"><path d="M 444.929688 128.074219 L 492.183594 108.886719 L 508.832031 149.886719 L 461.578125 169.074219 Z M 444.929688 128.074219"/></clipPath><clipPath id="d"><path d="M 617 254 L 671 254 L 671 309 L 617 309 Z M 617 254"/></clipPath><clipPath id="e"><path d="M 613.746094 258.242188 L 666.585938 251.664062 L 672.886719 302.273438 L 620.046875 308.851562 Z M 613.746094 258.242188"/></clipPath><clipPath id="f"><path d="M 613.746094 258.242188 L 666.585938 251.664062 L 672.886719 302.273438 L 620.046875 308.851562 Z M 613.746094 258.242188"/></clipPath><clipPath id="g"><path d="M 613.746094 258.242188 L 666.585938 251.664062 L 672.886719 302.273438 L 620.046875 308.851562 Z M 613.746094 258.242188"/></clipPath><clipPath id="h"><path d="M 615 132 L 653.164062 132 L 653.164062 170.3125 L 615 170.3125 Z M 615 132"/></clipPath><clipPath id="i"><path d="M 0 0 L 611 0 L 611 158 L 0 158 Z M 0 0"/></clipPath><clipPath id="j"><path d="M -69.230469 -67.304688 L 583.542969 -187.507812 L 627.277344 50 L -25.496094 170.199219 Z M -69.230469 -67.304688"/></clipPath><clipPath id="k"><path d="M -69.230469 -67.304688 L 583.542969 -187.507812 L 627.277344 50 L -25.496094 170.199219 Z M -69.230469 -67.304688"/></clipPath></defs><g clip-path="url(#a)"><g clip-path="url(#b)"><g clip-path="url(#c)"><path fill="#FF1F1F" d="M 459.039062 148.875 C 452.113281 145.984375 448.894531 138.054688 451.84375 131.152344 C 454.792969 124.253906 462.789062 121.007812 469.714844 123.898438 C 470.171875 124.078125 470.972656 124.527344 470.972656 124.527344 C 470.972656 124.527344 471.03125 124.148438 471.445312 123.195312 C 474.394531 116.292969 482.390625 113.046875 489.316406 115.941406 C 496.242188 118.832031 499.460938 126.761719 496.511719 133.660156 L 485.777344 158.78125 C 485.527344 159.367188 484.835938 159.644531 484.246094 159.402344 Z M 468.792969 126.050781 C 463.070312 123.652344 456.433594 126.347656 454.003906 132.054688 C 451.558594 137.757812 454.230469 144.339844 459.960938 146.722656 L 484.082031 156.8125 L 494.351562 132.757812 C 496.796875 127.054688 494.125 120.476562 488.398438 118.09375 C 482.671875 115.691406 476.039062 118.386719 473.605469 124.097656 C 473.257812 124.894531 473.019531 125.707031 472.871094 126.539062 C 472.714844 127.390625 471.730469 127.789062 471.027344 127.289062 C 470.335938 126.796875 469.589844 126.382812 468.792969 126.050781 Z M 468.792969 126.050781"/></g></g></g><g clip-path="url(#d)"><g clip-path="url(#e)"><g clip-path="url(#f)"><g clip-path="url(#g)"><path d="M 670.132812 281.933594 C 669.96875 280.613281 669.292969 279.453125 668.277344 278.65625 C 669.160156 277.40625 669.496094 275.839844 669.15625 274.296875 C 668.554688 271.539062 665.769531 269.667969 662.824219 270.035156 L 649.28125 271.722656 C 649.695312 269.601562 650.304688 265.734375 649.929688 262.730469 C 649.335938 257.976562 644.796875 254.464844 642.257812 254.78125 C 639.980469 255.0625 638.511719 256.546875 638.449219 256.609375 C 638.214844 256.851562 638.105469 257.183594 638.148438 257.519531 L 639.074219 264.953125 L 634.460938 279.425781 L 634.214844 279.589844 L 634.164062 279.171875 C 634.089844 278.566406 633.535156 278.136719 632.929688 278.210938 L 621.96875 279.574219 C 618.945312 279.953125 616.792969 282.71875 617.167969 285.742188 L 619.351562 303.285156 C 619.730469 306.308594 622.496094 308.460938 625.515625 308.085938 L 632.09375 307.265625 C 634.46875 306.972656 636.304688 305.207031 636.804688 303 C 638.746094 303.710938 641.265625 303.898438 642.789062 303.710938 L 662.914062 301.203125 C 665.300781 300.90625 667.1875 299.035156 667.402344 296.753906 C 667.511719 295.582031 667.222656 294.449219 666.597656 293.511719 C 668.113281 292.492188 668.996094 290.6875 668.757812 288.785156 C 668.664062 288.007812 668.394531 287.285156 667.972656 286.65625 C 669.488281 285.636719 670.371094 283.832031 670.132812 281.933594 Z M 631.820312 305.074219 L 625.246094 305.890625 C 623.429688 306.117188 621.773438 304.824219 621.546875 303.011719 L 619.359375 285.46875 C 619.136719 283.65625 620.425781 281.996094 622.242188 281.769531 L 622.242188 281.78125 L 632.105469 280.550781 L 632.242188 281.648438 C 632.242188 281.65625 632.246094 281.660156 632.246094 281.664062 L 634.703125 301.375 C 634.925781 303.1875 633.632812 304.847656 631.820312 305.074219 Z M 665.84375 285.21875 C 665.425781 285.316406 665.105469 285.648438 665.023438 286.070312 C 664.9375 286.492188 665.105469 286.925781 665.453125 287.179688 C 666.074219 287.636719 666.472656 288.304688 666.566406 289.058594 C 666.738281 290.441406 665.839844 291.734375 664.472656 292.066406 C 664.054688 292.167969 663.734375 292.5 663.648438 292.921875 C 663.566406 293.339844 663.730469 293.777344 664.078125 294.027344 C 664.886719 294.621094 665.296875 295.539062 665.203125 296.546875 C 665.085938 297.804688 664.007812 298.839844 662.636719 299.007812 L 642.511719 301.515625 C 640.882812 301.71875 638.171875 301.339844 636.828125 300.578125 L 634.523438 282.046875 L 636.003906 281.0625 C 636.210938 280.921875 636.367188 280.714844 636.445312 280.476562 L 641.246094 265.402344 C 641.292969 265.253906 641.308594 265.089844 641.289062 264.933594 L 640.410156 257.855469 C 640.832031 257.542969 641.582031 257.101562 642.527344 256.984375 C 643.730469 256.835938 647.285156 259.425781 647.730469 263.015625 C 648.210938 266.875 646.804688 272.703125 646.792969 272.757812 C 646.707031 273.109375 646.796875 273.484375 647.039062 273.753906 C 647.28125 274.027344 647.640625 274.160156 648.003906 274.117188 L 663.089844 272.238281 C 664.917969 272.011719 666.632812 273.125 666.996094 274.777344 C 667.265625 276.011719 666.820312 277.273438 665.824219 278.074219 C 665.511719 278.320312 665.359375 278.722656 665.425781 279.113281 C 665.488281 279.507812 665.757812 279.832031 666.132812 279.972656 C 667.117188 280.332031 667.808594 281.1875 667.9375 282.210938 C 668.105469 283.59375 667.207031 284.886719 665.84375 285.21875 Z M 665.84375 285.21875"/></g></g></g></g><g clip-path="url(#h)"><path fill="#545454" d="M 634.511719 170.097656 C 630.46875 170.097656 626.632812 168.824219 623.382812 166.40625 L 616.929688 168.167969 C 616.628906 168.246094 616.3125 168.15625 616.09375 167.933594 C 615.878906 167.710938 615.804688 167.386719 615.898438 167.09375 L 618.078125 160.28125 C 616.625 157.582031 615.859375 154.550781 615.859375 151.496094 C 615.859375 141.242188 624.230469 132.890625 634.511719 132.890625 C 644.796875 132.890625 653.164062 141.242188 653.164062 151.496094 C 653.164062 161.753906 644.796875 170.097656 634.511719 170.097656 Z M 623.566406 164.636719 C 623.753906 164.636719 623.941406 164.699219 624.089844 164.8125 C 627.101562 167.167969 630.707031 168.40625 634.511719 168.40625 C 643.863281 168.40625 651.46875 160.820312 651.46875 151.496094 C 651.46875 142.164062 643.863281 134.582031 634.511719 134.582031 C 625.164062 134.582031 617.554688 142.164062 617.554688 151.496094 C 617.554688 154.386719 618.3125 157.246094 619.738281 159.777344 C 619.851562 159.980469 619.878906 160.226562 619.804688 160.445312 L 617.992188 166.121094 L 623.34375 164.660156 C 623.417969 164.644531 623.492188 164.636719 623.566406 164.636719 Z M 623.566406 164.636719"/></g><g clip-path="url(#i)"><g clip-path="url(#j)"><g clip-path="url(#k)"><path d="M 599.132812 -39.210938 C 604.847656 -37.066406 606.886719 -31.765625 608.519531 -26.742188 C 613.421875 -11.679688 609.6875 4.625 598.640625 15.882812 C 584.234375 32.019531 565.835938 36.117188 545.652344 36.285156 C 525.75 36.046875 505.746094 33.34375 486.050781 28.453125 C 466.011719 23.628906 445.972656 18.800781 425.84375 15.410156 C 417.105469 14.179688 408.277344 14.386719 399.699219 15.964844 C 367.585938 22.589844 335.59375 29.898438 303.324219 37.617188 C 274.015625 44.078125 245.339844 53.972656 218.320312 67.109375 C 177.097656 87.828125 136.46875 109.859375 95.308594 130.921875 C 81.039062 138.164062 67.019531 146.777344 52.089844 152.363281 C 33.859375 159.269531 13.609375 159.097656 -4.40625 151.769531 C -20.863281 145.21875 -30.441406 131.722656 -29.140625 113.738281 C -27.652344 96.789062 -25.070312 79.988281 -21.742188 63.40625 C -17.671875 43.140625 -11.695312 23.585938 -3.816406 4.75 C 1.148438 -6.8125 4.957031 -18.867188 8.828125 -30.582031 C 13.070312 -44.136719 21.589844 -55.640625 32.863281 -63.75 C 53.851562 -80.746094 78.71875 -92.066406 105.003906 -97.617188 C 154.425781 -108.488281 204.738281 -110.65625 255 -109.265625 C 307.101562 -107.503906 359.457031 -104.371094 411.042969 -95.773438 C 467 -86.558594 522.152344 -74.003906 575.761719 -54.421875 C 582.289062 -51.722656 588.878906 -48.675781 594.910156 -44.820312 C 596.875 -43.761719 597.726562 -41.078125 599.132812 -39.210938 C 598.445312 -39.082031 597.417969 -38.894531 596.949219 -39.515625 C 591.847656 -46.03125 584.230469 -48.886719 576.609375 -51.742188 C 521.972656 -71.132812 465.132812 -85.152344 407.867188 -93.769531 C 343.296875 -103.523438 277.558594 -108.097656 212.078125 -107.394531 C 172.460938 -106.84375 132.570312 -101.980469 93.632812 -91.972656 C 70.28125 -85.898438 48.625 -74.460938 29.851562 -58.9375 C 21.195312 -52.019531 15.101562 -42.738281 11.664062 -32.523438 C 7.636719 -19.714844 3.269531 -6.847656 -1.910156 5.460938 C -14.070312 35.734375 -22.011719 67.714844 -26.335938 100.09375 C -27.6875 108.148438 -27.605469 116.296875 -25.808594 124.125 C -22.6875 139.164062 -12 147.132812 2.238281 151.253906 C 22.121094 157.171875 43.425781 155.378906 61.902344 145.945312 C 102.035156 125.070312 142.101562 103.851562 182.234375 82.980469 C 203.546875 71.601562 224.792969 59.882812 247.550781 52.5 C 269.621094 45.242188 291.753906 38.328125 314.074219 32.441406 C 342.570312 25.421875 371.601562 19.367188 400.628906 13.3125 C 409.144531 11.386719 417.628906 11.246094 426.429688 12.820312 C 446.621094 16.550781 466.941406 20.972656 486.636719 25.863281 C 505.988281 30.816406 525.992188 33.519531 545.898438 33.757812 C 565.738281 33.652344 583.449219 29.683594 597.574219 13.949219 C 610.453125 -0.839844 612.375 -19.292969 601.261719 -35.34375 C 600.324219 -36.589844 599.730469 -37.898438 599.132812 -39.210938 Z M 599.132812 -39.210938"/></g></g></g></svg>